<svg width="26" height="26" viewBox="0 0 26 26" fill="none" xmlns="http://www.w3.org/2000/svg">
<g clip-path="url(#clip0)">
<path d="M22.3908 8.42213C22.8388 8.42213 23.2188 8.57836 23.5313 8.8908C23.8437 9.20324 24 9.57816 24 10.0158V16.7345C24 17.183 23.8438 17.5628 23.5313 17.8753C23.2188 18.1877 22.8388 18.344 22.3908 18.344C21.9431 18.344 21.5653 18.1877 21.2577 17.8753C20.9507 17.5628 20.7968 17.183 20.7968 16.7345V10.0158C20.7968 9.57812 20.953 9.20324 21.2655 8.8908C21.578 8.57836 21.9532 8.42213 22.3908 8.42213Z" fill="black"/>
<path d="M9.45349 2.39064L8.34409 0.344105C8.27127 0.208616 8.29718 0.104719 8.42204 0.031662C8.55758 -0.0313344 8.66171 0.00058691 8.73448 0.125169L9.85939 2.18806C10.8492 1.75043 11.8961 1.53121 13.0001 1.53121C14.1044 1.53121 15.1514 1.75047 16.1408 2.18806L17.2658 0.125169C17.3389 0.00058691 17.443 -0.0310523 17.5782 0.031662C17.7034 0.105048 17.7293 0.208616 17.6562 0.344105L16.5467 2.39064C17.6717 2.96433 18.5677 3.7633 19.2343 4.7893C19.9009 5.81585 20.2344 6.93766 20.2344 8.15668H5.7816C5.7816 6.93794 6.1151 5.81609 6.78169 4.7893C7.44837 3.7633 8.33916 2.96433 9.45349 2.39064ZM15.8675 5.36736C15.9875 5.48762 16.1308 5.54746 16.2973 5.54746C16.4642 5.54746 16.6046 5.48762 16.7191 5.36736C16.8337 5.24766 16.8909 5.10494 16.8909 4.93781C16.8909 4.77124 16.8337 4.62823 16.7191 4.50826C16.6046 4.38856 16.4639 4.32872 16.2973 4.32872C16.1308 4.32872 15.9875 4.38856 15.8675 4.50826C15.7478 4.62851 15.6877 4.77124 15.6877 4.93781C15.688 5.10465 15.7481 5.24766 15.8675 5.36736ZM9.28175 5.36736C9.39651 5.48762 9.53722 5.54746 9.7035 5.54746C9.87044 5.54746 10.0137 5.48762 10.1334 5.36736C10.2534 5.24766 10.3132 5.10494 10.3132 4.93781C10.3132 4.77124 10.2534 4.62823 10.1334 4.50826C10.0137 4.38856 9.87044 4.32872 9.7035 4.32872C9.53693 4.32872 9.39656 4.38856 9.28175 4.50826C9.16714 4.62851 9.10997 4.77124 9.10997 4.93781C9.10997 5.10465 9.16718 5.24766 9.28175 5.36736Z" fill="black"/>
<path d="M20.1719 19.125C20.1719 19.6046 20.0053 20.0106 19.6721 20.3438C19.3387 20.6769 18.9327 20.8435 18.4534 20.8435H17.2971L17.2812 24.3908C17.2812 24.8387 17.125 25.2191 16.8126 25.5316C16.5001 25.8441 16.1249 26.0003 15.6876 26.0003C15.2399 26.0003 14.8596 25.8441 14.5471 25.5316C14.2346 25.2191 14.0784 24.8387 14.0784 24.3908V20.8438H11.9222V24.3908C11.9222 24.8387 11.766 25.2191 11.4536 25.5316C11.1411 25.8441 10.7611 26.0003 10.313 26.0003C9.86535 26.0003 9.48502 25.8441 9.17253 25.5316C8.86004 25.2191 8.70386 24.8387 8.70386 24.3908V20.8438H7.53194C7.06328 20.8438 6.6625 20.6772 6.32871 20.3441C5.99558 20.0109 5.82892 19.6049 5.82892 19.1253V8.71864H20.1719V19.125Z" fill="black"/>
<path d="M3.60946 8.42213C4.04709 8.42213 4.42197 8.57605 4.73446 8.88304C5.0469 9.1906 5.20312 9.56839 5.20312 10.0158V16.7345C5.20312 17.183 5.04695 17.5628 4.73446 17.8753C4.42197 18.1877 4.04681 18.344 3.60946 18.344C3.16176 18.344 2.78143 18.1877 2.46894 17.8753C2.15645 17.5628 2.00027 17.183 2.00027 16.7345V10.0158C2.00027 9.56834 2.15645 9.1906 2.46894 8.88304C2.78143 8.57605 3.16176 8.42213 3.60946 8.42213Z" fill="black"/>
</g>
<defs>
<clipPath id="clip0">
<rect width="26" height="26" fill="white" transform="matrix(-1 0 0 1 26 0)"/>
</clipPath>
</defs>
</svg>
