<svg width="300" height="220" viewBox="0 0 300 220" fill="none" xmlns="http://www.w3.org/2000/svg">
<path d="M131.367 11.5089C142.035 1.18902 158.965 1.18902 169.633 11.5089V11.5089C175.733 17.4103 184.215 20.1664 192.619 18.9777V18.9777C207.315 16.899 221.012 26.8502 223.576 41.4695V41.4695C225.043 49.8294 230.285 57.0448 237.783 61.0229V61.0229C250.894 67.9794 256.126 84.0807 249.607 97.4153V97.4153C245.88 105.041 245.88 113.959 249.607 121.585V121.585C256.126 134.919 250.894 151.021 237.783 157.977V157.977C230.285 161.955 225.043 169.171 223.576 177.531V177.531C221.012 192.15 207.315 202.101 192.619 200.022V200.022C184.215 198.834 175.733 201.59 169.633 207.491V207.491C158.965 217.811 142.035 217.811 131.367 207.491V207.491C125.267 201.59 116.785 198.834 108.381 200.022V200.022C93.6847 202.101 79.9881 192.15 77.4237 177.531V177.531C75.9572 169.171 70.7149 161.955 63.2173 157.977V157.977C50.106 151.021 44.8743 134.919 51.3927 121.585V121.585C55.1201 113.959 55.1201 105.041 51.3927 97.4153V97.4153C44.8743 84.0807 50.106 67.9794 63.2173 61.0229V61.0229C70.7149 57.0448 75.9572 49.8294 77.4237 41.4695V41.4695C79.9881 26.8502 93.6847 16.899 108.381 18.9777V18.9777C116.785 20.1664 125.267 17.4103 131.367 11.5089V11.5089Z" fill="url(#paint0_linear)"/>
<path d="M80.687 165.952C81.5404 165.333 82.5676 165 83.6218 165H216.378C217.432 165 218.46 165.333 219.313 165.952L245.52 184.952C249.443 187.797 247.431 194 242.585 194H57.4149C52.5687 194 50.5565 187.797 54.4801 184.952L80.687 165.952Z" fill="#504277"/>
<path d="M218 178C176.957 178 187.779 178 150.5 178C113.221 178 119.972 178 83 178C83 140.445 113.221 110 150.5 110C187.779 110 218 140.445 218 178Z" fill="url(#paint1_radial)"/>
<g filter="url(#filter0_d)">
<path d="M94.3902 165H205.61L226 184H74L94.3902 165Z" fill="#F9FFFC"/>
</g>
<ellipse opacity="0.2" cx="150" cy="173.5" rx="9" ry="2.5" fill="#B8E0D0"/>
<path fill-rule="evenodd" clip-rule="evenodd" d="M175.667 69.794C178.663 65.477 181.69 60.2225 182.572 55.8931C183.779 49.9641 182.493 45.5926 181.319 43.4235C180.949 42.7414 180.257 42.3214 179.489 42.2114C175.887 41.6949 170.269 41.8595 169.658 45.8043C168.976 50.215 169.731 55.7952 170.194 58.034C168.68 55.1174 165.658 50.3783 165.674 54.7546C165.685 57.7429 166.24 60.8745 166.779 63.1318C163.992 62.0782 160.57 61.329 156.36 60.9772C156.23 58.8321 155.83 56.6587 154.877 55.9507C153.317 54.7907 152.595 58.6499 152.424 60.7719L152.4 60.7714C151.89 59.4471 150.428 56.5156 148.487 54.9766C146.724 53.5791 146.937 57.8203 147.354 60.8189C143.1 61.0023 139.552 61.5509 136.588 62.384C135.89 58.5584 134.812 54.6893 133.204 51.9944C130.411 47.3131 126.912 45.1441 124.772 44.3706C124.043 44.1069 123.247 44.2629 122.608 44.7021C119.864 46.587 116.263 50.1169 118.26 53.1284C120.516 56.5303 124.463 59.8376 126.155 61.0661C123.336 60.0266 118.373 58.6848 121.08 61.6331C123.147 63.8847 125.785 65.8387 127.585 67.0153C122.059 71.9197 121.392 78.8632 120.832 84.6908C120.739 85.6573 120.649 86.593 120.541 87.4837L120.535 87.5354C118.722 87.6239 115.919 87.9572 115.159 89.1538C114.009 90.9639 117.25 92.3062 117.25 92.3062C113.917 93.3304 107.03 96.0834 106.143 98.9013C105.256 101.719 108.722 104.766 110.566 105.937C109.491 106.74 107.684 108.961 109.057 111.422C109.954 113.03 112.255 114.613 114.346 115.768C110.682 121.448 108.472 127.097 107.987 131.192C106.314 145.319 116.681 152.237 122.711 155.615C123.985 156.328 125.776 157.17 127.846 158.142L127.846 158.142L127.847 158.143L127.847 158.143C135.01 161.509 145.502 166.44 149.357 173.012C149.669 173.544 150.562 173.518 150.84 172.967C153.474 167.748 159.158 165.023 166.022 161.732L166.023 161.732C169.638 159.999 173.581 158.109 177.578 155.615C182.456 152.57 194.048 143.978 191.95 131.192C191.252 126.938 189.077 121.563 185.701 116.216C187.978 115.046 190.812 113.249 191.832 111.422C193.205 108.961 191.398 106.74 190.323 105.937C192.167 104.766 195.633 101.719 194.746 98.9013C193.859 96.0834 186.972 93.3304 183.639 92.3062C183.639 92.3062 186.879 90.9639 185.73 89.1538C184.872 87.8042 181.417 87.5527 179.714 87.5121L179.711 87.4837C179.649 86.7394 179.595 85.9776 179.54 85.2037C179.174 80.0582 178.77 74.3815 175.667 69.794Z" fill="url(#paint2_linear)"/>
<path fill-rule="evenodd" clip-rule="evenodd" d="M175.667 69.794C178.663 65.477 181.69 60.2225 182.572 55.8931C183.779 49.9641 182.493 45.5926 181.319 43.4235C180.949 42.7414 180.257 42.3214 179.489 42.2114C175.887 41.6949 170.269 41.8595 169.658 45.8043C168.976 50.215 169.731 55.7952 170.194 58.034C168.68 55.1174 165.658 50.3783 165.674 54.7546C165.685 57.7429 166.24 60.8745 166.779 63.1318C163.992 62.0782 160.57 61.329 156.36 60.9772C156.23 58.8321 155.83 56.6587 154.877 55.9507C153.317 54.7907 152.595 58.6499 152.424 60.7719L152.4 60.7714C151.89 59.4471 150.428 56.5156 148.487 54.9766C146.724 53.5791 146.937 57.8203 147.354 60.8189C143.1 61.0023 139.552 61.5509 136.588 62.384C135.89 58.5584 134.812 54.6893 133.204 51.9944C130.411 47.3131 126.912 45.1441 124.772 44.3706C124.043 44.1069 123.247 44.2629 122.608 44.7021C119.864 46.587 116.263 50.1169 118.26 53.1284C120.516 56.5303 124.463 59.8376 126.155 61.0661C123.336 60.0266 118.373 58.6848 121.08 61.6331C123.147 63.8847 125.785 65.8387 127.585 67.0153C122.059 71.9197 121.392 78.8632 120.832 84.6908C120.739 85.6573 120.649 86.593 120.541 87.4837L120.535 87.5354C118.722 87.6239 115.919 87.9572 115.159 89.1538C114.009 90.9639 117.25 92.3062 117.25 92.3062C113.917 93.3304 107.03 96.0834 106.143 98.9013C105.256 101.719 108.722 104.766 110.566 105.937C109.491 106.74 107.684 108.961 109.057 111.422C109.954 113.03 112.255 114.613 114.346 115.768C110.682 121.448 108.472 127.097 107.987 131.192C106.314 145.319 116.681 152.237 122.711 155.615C123.985 156.328 125.776 157.17 127.846 158.142L127.846 158.142L127.847 158.143L127.847 158.143C135.01 161.509 145.502 166.44 149.357 173.012C149.669 173.544 150.562 173.518 150.84 172.967C153.474 167.748 159.158 165.023 166.022 161.732L166.023 161.732C169.638 159.999 173.581 158.109 177.578 155.615C182.456 152.57 194.048 143.978 191.95 131.192C191.252 126.938 189.077 121.563 185.701 116.216C187.978 115.046 190.812 113.249 191.832 111.422C193.205 108.961 191.398 106.74 190.323 105.937C192.167 104.766 195.633 101.719 194.746 98.9013C193.859 96.0834 186.972 93.3304 183.639 92.3062C183.639 92.3062 186.879 90.9639 185.73 89.1538C184.872 87.8042 181.417 87.5527 179.714 87.5121L179.711 87.4837C179.649 86.7394 179.595 85.9776 179.54 85.2037C179.174 80.0582 178.77 74.3815 175.667 69.794Z" fill="url(#paint3_radial)"/>
<ellipse cx="152.073" cy="72.7712" rx="3.005" ry="2.67111" fill="#8CD1C2"/>
<ellipse cx="154.744" cy="67.7629" rx="1.66944" ry="1.00167" fill="#8CD1C2"/>
<ellipse cx="147.732" cy="68.4307" rx="2.00333" ry="1.66944" fill="#8CD1C2"/>
<path fill-rule="evenodd" clip-rule="evenodd" d="M135.185 83.5499C134.435 82.7993 133.218 82.7993 132.467 83.5499C131.717 84.3005 131.717 85.5174 132.467 86.268L135.186 88.9866L132.468 91.7044C131.717 92.455 131.717 93.6719 132.468 94.4225C133.219 95.1731 134.436 95.1731 135.186 94.4225L137.904 91.7047L140.622 94.4225C141.372 95.1731 142.589 95.1731 143.34 94.4225C144.09 93.6719 144.09 92.4549 143.34 91.7043L140.622 88.9866L143.341 86.268C144.091 85.5174 144.091 84.3005 143.341 83.5499C142.59 82.7993 141.373 82.7993 140.622 83.5499L137.904 86.2684L135.185 83.5499Z" fill="#D6FFEB"/>
<path fill-rule="evenodd" clip-rule="evenodd" d="M160.56 83.5499C159.81 82.7993 158.593 82.7993 157.842 83.5499C157.092 84.3005 157.092 85.5174 157.842 86.268L160.561 88.9866L157.843 91.7044C157.092 92.455 157.092 93.6719 157.843 94.4225C158.594 95.1731 159.811 95.1731 160.561 94.4225L163.279 91.7047L165.997 94.4225C166.747 95.1731 167.964 95.1731 168.715 94.4225C169.465 93.6719 169.465 92.455 168.715 91.7044L165.997 88.9866L168.716 86.268C169.466 85.5174 169.466 84.3005 168.716 83.5499C167.965 82.7993 166.748 82.7993 165.997 83.5499L163.279 86.2684L160.56 83.5499Z" fill="#D6FFEB"/>
<g filter="url(#filter1_d)">
<rect x="135" y="189" width="31" height="3" rx="1.5" fill="#483A70"/>
</g>
<g filter="url(#filter2_d)">
<rect x="105" y="189" width="13" height="3" rx="1.5" fill="#483A70"/>
</g>
<line x1="57" y1="184.5" x2="242" y2="184.5" stroke="url(#paint4_linear)"/>
<defs>
<filter id="filter0_d" x="70" y="159" width="160" height="27" filterUnits="userSpaceOnUse" color-interpolation-filters="sRGB">
<feFlood flood-opacity="0" result="BackgroundImageFix"/>
<feColorMatrix in="SourceAlpha" type="matrix" values="0 0 0 0 0 0 0 0 0 0 0 0 0 0 0 0 0 0 127 0"/>
<feOffset dy="-2"/>
<feGaussianBlur stdDeviation="2"/>
<feColorMatrix type="matrix" values="0 0 0 0 0.870833 0 0 0 0 1 0 0 0 0 0.936604 0 0 0 0.41 0"/>
<feBlend mode="normal" in2="BackgroundImageFix" result="effect1_dropShadow"/>
<feBlend mode="normal" in="SourceGraphic" in2="effect1_dropShadow" result="shape"/>
</filter>
<filter id="filter1_d" x="135" y="188" width="31" height="4" filterUnits="userSpaceOnUse" color-interpolation-filters="sRGB">
<feFlood flood-opacity="0" result="BackgroundImageFix"/>
<feColorMatrix in="SourceAlpha" type="matrix" values="0 0 0 0 0 0 0 0 0 0 0 0 0 0 0 0 0 0 127 0"/>
<feOffset dy="-1"/>
<feColorMatrix type="matrix" values="0 0 0 0 0.45098 0 0 0 0 0.552941 0 0 0 0 0.580392 0 0 0 1 0"/>
<feBlend mode="normal" in2="BackgroundImageFix" result="effect1_dropShadow"/>
<feBlend mode="normal" in="SourceGraphic" in2="effect1_dropShadow" result="shape"/>
</filter>
<filter id="filter2_d" x="105" y="188" width="13" height="4" filterUnits="userSpaceOnUse" color-interpolation-filters="sRGB">
<feFlood flood-opacity="0" result="BackgroundImageFix"/>
<feColorMatrix in="SourceAlpha" type="matrix" values="0 0 0 0 0 0 0 0 0 0 0 0 0 0 0 0 0 0 127 0"/>
<feOffset dy="-1"/>
<feColorMatrix type="matrix" values="0 0 0 0 0.45098 0 0 0 0 0.552941 0 0 0 0 0.580392 0 0 0 0.59 0"/>
<feBlend mode="normal" in2="BackgroundImageFix" result="effect1_dropShadow"/>
<feBlend mode="normal" in="SourceGraphic" in2="effect1_dropShadow" result="shape"/>
</filter>
<linearGradient id="paint0_linear" x1="150.5" y1="-7" x2="150.5" y2="226" gradientUnits="userSpaceOnUse">
<stop stop-color="#7CB772"/>
<stop offset="1" stop-color="#5D9D99"/>
</linearGradient>
<radialGradient id="paint1_radial" cx="0" cy="0" r="1" gradientUnits="userSpaceOnUse" gradientTransform="translate(150.5 178) rotate(90) scale(68 67.5)">
<stop offset="0.0100503" stop-color="#E2E4EA" stop-opacity="0.61"/>
<stop offset="1" stop-color="#A4E4C6" stop-opacity="0"/>
</radialGradient>
<linearGradient id="paint2_linear" x1="150.444" y1="60.7511" x2="150.444" y2="173.396" gradientUnits="userSpaceOnUse">
<stop stop-color="#A5E8C8"/>
<stop offset="1" stop-color="#A5E8C8" stop-opacity="0.68"/>
</linearGradient>
<radialGradient id="paint3_radial" cx="0" cy="0" r="1" gradientUnits="userSpaceOnUse" gradientTransform="translate(151 166.5) rotate(90.7074) scale(45.0034 64.5691)">
<stop stop-color="#CCFFB5" stop-opacity="0.54"/>
<stop offset="1" stop-color="white" stop-opacity="0"/>
</radialGradient>
<linearGradient id="paint4_linear" x1="58" y1="185" x2="241" y2="185" gradientUnits="userSpaceOnUse">
<stop stop-color="#241942" stop-opacity="0"/>
<stop offset="0.502049" stop-color="#C8E9DB"/>
<stop offset="1" stop-color="#241942" stop-opacity="0"/>
</linearGradient>
</defs>
</svg>
