<svg width="300" height="220" viewBox="0 0 300 220" fill="none" xmlns="http://www.w3.org/2000/svg">
<path d="M131.945 11.5089C142.613 1.18902 159.543 1.18902 170.211 11.5089C176.311 17.4103 184.793 20.1664 193.197 18.9777C207.893 16.899 221.59 26.8502 224.154 41.4695C225.621 49.8294 230.863 57.0448 238.361 61.0229C251.472 67.9794 256.704 84.0807 250.185 97.4153C246.458 105.041 246.458 113.959 250.185 121.585C256.704 134.919 251.472 151.021 238.361 157.977C230.863 161.955 225.621 169.171 224.154 177.531C221.59 192.15 207.893 202.101 193.197 200.022C184.793 198.834 176.311 201.59 170.211 207.491C159.543 217.811 142.613 217.811 131.945 207.491C125.845 201.59 117.363 198.834 108.959 200.022C94.2628 202.101 80.5662 192.15 78.0018 177.531C76.5353 169.171 71.293 161.955 63.7954 157.977C50.6841 151.021 45.4524 134.919 51.9708 121.585C55.6982 113.959 55.6982 105.041 51.9708 97.4153C45.4524 84.0807 50.6841 67.9794 63.7954 61.0229C71.293 57.0448 76.5353 49.8294 78.0018 41.4695C80.5662 26.8502 94.2628 16.899 108.959 18.9777C117.363 20.1664 125.845 17.4103 131.945 11.5089Z" fill="#9670C7"/>
<path d="M131.945 11.5089C142.613 1.18902 159.543 1.18902 170.211 11.5089C176.311 17.4103 184.793 20.1664 193.197 18.9777C207.893 16.899 221.59 26.8502 224.154 41.4695C225.621 49.8294 230.863 57.0448 238.361 61.0229C251.472 67.9794 256.704 84.0807 250.185 97.4153C246.458 105.041 246.458 113.959 250.185 121.585C256.704 134.919 251.472 151.021 238.361 157.977C230.863 161.955 225.621 169.171 224.154 177.531C221.59 192.15 207.893 202.101 193.197 200.022C184.793 198.834 176.311 201.59 170.211 207.491C159.543 217.811 142.613 217.811 131.945 207.491C125.845 201.59 117.363 198.834 108.959 200.022C94.2628 202.101 80.5662 192.15 78.0018 177.531C76.5353 169.171 71.293 161.955 63.7954 157.977C50.6841 151.021 45.4524 134.919 51.9708 121.585C55.6982 113.959 55.6982 105.041 51.9708 97.4153C45.4524 84.0807 50.6841 67.9794 63.7954 61.0229C71.293 57.0448 76.5353 49.8294 78.0018 41.4695C80.5662 26.8502 94.2628 16.899 108.959 18.9777C117.363 20.1664 125.845 17.4103 131.945 11.5089Z" fill="url(#paint0_linear)"/>
<circle cx="240.551" cy="110.789" r="25.2697" fill="#FDEBD1"/>
<path d="M265.821 110.789C265.821 124.745 254.507 136.058 240.551 136.058V85.519C254.507 85.519 265.821 96.8327 265.821 110.789Z" fill="#9081E4"/>
<path d="M265.821 110.789C265.821 124.745 254.507 136.058 240.551 136.058V85.519C254.507 85.519 265.821 96.8327 265.821 110.789Z" fill="url(#paint1_radial)"/>
<ellipse cx="240.551" cy="110.789" rx="15.1618" ry="25.2697" fill="#FDEBD1"/>
<circle cx="148.674" cy="111.54" r="50.5394" fill="#FFF8EF"/>
<path fill-rule="evenodd" clip-rule="evenodd" d="M149.222 61.0032C176.881 61.2975 199.213 83.8107 199.213 111.54C199.213 139.273 176.875 161.788 149.211 162.076C149.176 162.078 149.142 162.079 149.108 162.079C149.086 162.079 149.064 162.079 149.041 162.078C148.919 162.079 148.796 162.079 148.673 162.079V162.033C143.292 160.895 139 138.723 139 111.539C139 84.3554 143.292 62.1841 148.673 61.0459V61.0002C148.792 61.0002 148.911 61.0007 149.03 61.0015C149.056 61.0005 149.082 61 149.108 61C149.146 61 149.184 61.0011 149.222 61.0032Z" fill="#9385E9"/>
<path fill-rule="evenodd" clip-rule="evenodd" d="M149.222 61.0032C176.881 61.2975 199.213 83.8107 199.213 111.54C199.213 139.273 176.875 161.788 149.211 162.076C149.176 162.078 149.142 162.079 149.108 162.079C149.086 162.079 149.064 162.079 149.041 162.078C148.919 162.079 148.796 162.079 148.673 162.079V162.033C143.292 160.895 139 138.723 139 111.539C139 84.3554 143.292 62.1841 148.673 61.0459V61.0002C148.792 61.0002 148.911 61.0007 149.03 61.0015C149.056 61.0005 149.082 61 149.108 61C149.146 61 149.184 61.0011 149.222 61.0032Z" fill="url(#paint2_radial)"/>
<circle cx="59.3869" cy="110.789" r="25.2697" fill="#FDEBD1"/>
<path fill-rule="evenodd" clip-rule="evenodd" d="M63.6017 135.709C75.5516 133.702 84.6569 123.309 84.6569 110.789C84.6569 98.2669 75.5491 87.8722 63.5966 85.8681C62.7756 85.6387 61.9321 85.5193 61.072 85.5193C60.8612 85.5193 60.6515 85.5265 60.4428 85.5407C60.0927 85.5263 59.7408 85.519 59.3872 85.519V85.6736C51.8064 87.0704 45.9102 97.7821 45.9102 110.789C45.9102 123.796 51.8064 134.508 59.3872 135.905V136.058C59.739 136.058 60.0892 136.051 60.4376 136.037C60.648 136.051 60.8595 136.059 61.072 136.059C61.9339 136.059 62.779 135.939 63.6017 135.709Z" fill="#9082E5"/>
<path fill-rule="evenodd" clip-rule="evenodd" d="M63.6017 135.709C75.5516 133.702 84.6569 123.309 84.6569 110.789C84.6569 98.2669 75.5491 87.8722 63.5966 85.8681C62.7756 85.6387 61.9321 85.5193 61.072 85.5193C60.8612 85.5193 60.6515 85.5265 60.4428 85.5407C60.0927 85.5263 59.7408 85.519 59.3872 85.519V85.6736C51.8064 87.0704 45.9102 97.7821 45.9102 110.789C45.9102 123.796 51.8064 134.508 59.3872 135.905V136.058C59.739 136.058 60.0892 136.051 60.4376 136.037C60.648 136.051 60.8595 136.059 61.072 136.059C61.9339 136.059 62.779 135.939 63.6017 135.709Z" fill="url(#paint3_radial)"/>
<circle cx="14.3671" cy="110.811" r="10.3671" fill="#8E80E1"/>
<path fill-rule="evenodd" clip-rule="evenodd" d="M16.0954 121.035C20.9982 120.212 24.734 115.948 24.734 110.811C24.734 105.674 20.9978 101.41 16.0945 100.587C15.7575 100.493 15.4112 100.444 15.0581 100.444C14.9715 100.444 14.8852 100.447 14.7994 100.453C14.6559 100.447 14.5118 100.444 14.3669 100.444V100.507C11.2569 101.08 8.83789 105.475 8.83789 110.811C8.83789 116.147 11.2569 120.542 14.3669 121.115V121.178C14.5115 121.178 14.6553 121.175 14.7985 121.169C14.8846 121.175 14.9711 121.178 15.0581 121.178C15.4116 121.178 15.7581 121.129 16.0954 121.035Z" fill="#8E80E1"/>
<circle cx="286.211" cy="110.811" r="10.3671" fill="#FDCFA5"/>
<path fill-rule="evenodd" clip-rule="evenodd" d="M287.94 121.034C292.842 120.211 296.577 115.947 296.577 110.811C296.577 105.674 292.842 101.41 287.939 100.587C287.602 100.493 287.255 100.444 286.902 100.444C286.815 100.444 286.729 100.447 286.643 100.453C286.499 100.447 286.355 100.444 286.21 100.444V100.507C283.1 101.081 280.682 105.475 280.682 110.811C280.682 116.147 283.1 120.541 286.21 121.115V121.178C286.355 121.178 286.499 121.175 286.642 121.169C286.728 121.175 286.815 121.178 286.902 121.178C287.255 121.178 287.602 121.129 287.94 121.034Z" fill="#FDCFA5"/>
<defs>
<linearGradient id="paint0_linear" x1="267.578" y1="103" x2="43.5781" y2="105" gradientUnits="userSpaceOnUse">
<stop stop-color="#894BD9"/>
<stop offset="1" stop-color="#837AE9"/>
</linearGradient>
<radialGradient id="paint1_radial" cx="0" cy="0" r="1" gradientUnits="userSpaceOnUse" gradientTransform="translate(267.264 112.052) rotate(90) scale(58.5415 27.9772)">
<stop stop-color="#EA8C8C" stop-opacity="0.18"/>
<stop offset="1" stop-color="#393299" stop-opacity="0"/>
</radialGradient>
<radialGradient id="paint2_radial" cx="0" cy="0" r="1" gradientUnits="userSpaceOnUse" gradientTransform="translate(202.582 114.067) rotate(90) scale(117.083 72.861)">
<stop stop-color="#EA8C8C" stop-opacity="0.28"/>
<stop offset="1" stop-color="#393299" stop-opacity="0"/>
</radialGradient>
<radialGradient id="paint3_radial" cx="0" cy="0" r="1" gradientUnits="userSpaceOnUse" gradientTransform="translate(86.871 110.789) rotate(90) scale(72.4402 53.0826)">
<stop stop-color="#EA8C8C" stop-opacity="0.18"/>
<stop offset="1" stop-color="#393299" stop-opacity="0"/>
</radialGradient>
</defs>
</svg>
