<svg width="300" height="220" viewBox="0 0 300 220" fill="none" xmlns="http://www.w3.org/2000/svg">
<path d="M131.367 11.5089C142.035 1.18902 158.965 1.18902 169.633 11.5089V11.5089C175.733 17.4103 184.215 20.1664 192.619 18.9777V18.9777C207.315 16.899 221.012 26.8502 223.576 41.4695V41.4695C225.043 49.8294 230.285 57.0448 237.783 61.0229V61.0229C250.894 67.9794 256.126 84.0807 249.607 97.4153V97.4153C245.88 105.041 245.88 113.959 249.607 121.585V121.585C256.126 134.919 250.894 151.021 237.783 157.977V157.977C230.285 161.955 225.043 169.171 223.576 177.531V177.531C221.012 192.15 207.315 202.101 192.619 200.022V200.022C184.215 198.834 175.733 201.59 169.633 207.491V207.491C158.965 217.811 142.035 217.811 131.367 207.491V207.491C125.267 201.59 116.785 198.834 108.381 200.022V200.022C93.6847 202.101 79.9881 192.15 77.4237 177.531V177.531C75.9572 169.171 70.7149 161.955 63.2173 157.977V157.977C50.106 151.021 44.8743 134.919 51.3927 121.585V121.585C55.1201 113.959 55.1201 105.041 51.3927 97.4153V97.4153C44.8743 84.0807 50.106 67.9794 63.2173 61.0229V61.0229C70.7149 57.0448 75.9572 49.8294 77.4237 41.4695V41.4695C79.9881 26.8502 93.6847 16.899 108.381 18.9777V18.9777C116.785 20.1664 125.267 17.4103 131.367 11.5089V11.5089Z" fill="#DE74BA"/>
<path d="M131.367 11.5089C142.035 1.18902 158.965 1.18902 169.633 11.5089V11.5089C175.733 17.4103 184.215 20.1664 192.619 18.9777V18.9777C207.315 16.899 221.012 26.8502 223.576 41.4695V41.4695C225.043 49.8294 230.285 57.0448 237.783 61.0229V61.0229C250.894 67.9794 256.126 84.0807 249.607 97.4153V97.4153C245.88 105.041 245.88 113.959 249.607 121.585V121.585C256.126 134.919 250.894 151.021 237.783 157.977V157.977C230.285 161.955 225.043 169.171 223.576 177.531V177.531C221.012 192.15 207.315 202.101 192.619 200.022V200.022C184.215 198.834 175.733 201.59 169.633 207.491V207.491C158.965 217.811 142.035 217.811 131.367 207.491V207.491C125.267 201.59 116.785 198.834 108.381 200.022V200.022C93.6847 202.101 79.9881 192.15 77.4237 177.531V177.531C75.9572 169.171 70.7149 161.955 63.2173 157.977V157.977C50.106 151.021 44.8743 134.919 51.3927 121.585V121.585C55.1201 113.959 55.1201 105.041 51.3927 97.4153V97.4153C44.8743 84.0807 50.106 67.9794 63.2173 61.0229V61.0229C70.7149 57.0448 75.9572 49.8294 77.4237 41.4695V41.4695C79.9881 26.8502 93.6847 16.899 108.381 18.9777V18.9777C116.785 20.1664 125.267 17.4103 131.367 11.5089V11.5089Z" fill="url(#paint0_linear)"/>
<path d="M125.059 96.2949L106.446 91.0339C105.879 90.8736 105.269 90.9635 104.811 91.335C101.585 93.9543 95.4028 101.398 91.4995 114.65C87.5656 128.006 92.6541 139.778 96.3009 144.95C96.7607 145.602 97.5888 145.872 98.3797 145.766C101.2 145.391 108.175 144.93 121.621 145.021C121.947 145.023 122.259 145.188 122.447 145.454C133.275 160.741 149.165 163.28 154.999 162.5C154.999 162.5 154.999 163.638 156.704 164.772C168.61 172.69 180.387 171.116 184.427 169.982C187.659 169.074 188.996 162.635 188.337 159.355C189.798 158.367 191.779 155.641 193.408 152.734C196.287 147.595 195.47 141.76 195.47 141.76C195.47 141.76 199.853 138.797 200.884 133.31C202.018 127.278 200.754 123.818 200.754 123.818C200.754 123.818 205.138 120.855 206.513 113.539C207.915 106.079 202.687 103.353 198.99 102.658L180.509 99.1855C178.661 98.8383 169.677 94.6571 168.946 89.4389C168.129 83.6048 170.245 79.407 174.231 71.4968C179.113 61.8104 172.854 51.6715 169.114 47.8129C160.904 40.59 153.985 46.864 151.45 50.1743C152.496 54.789 154.382 65.116 153.558 69.5054C152.733 73.8949 147.914 79.1748 145.608 81.2661L125.934 96.1304C125.684 96.3192 125.361 96.38 125.059 96.2949Z" fill="#EDBBB5"/>
<path d="M196.5 142C195.425 141.95 178.142 141.246 174.5 140.5C172.336 140.057 166 137 163 132.5" stroke="#F59494" stroke-width="2"/>
<path d="M196.5 142C195.425 141.95 178.142 141.246 174.5 140.5C172.336 140.057 166 137 163 132.5" stroke="url(#paint1_linear)" stroke-width="2"/>
<path d="M190 159.5C188.925 159.45 174.5 159.154 168.867 158C166.703 157.557 160.367 154.5 157.367 150" stroke="#F59494" stroke-width="2"/>
<path d="M190 159.5C188.925 159.45 174.5 159.154 168.867 158C166.703 157.557 160.367 154.5 157.367 150" stroke="url(#paint2_linear)" stroke-width="2"/>
<path d="M201.5 124C200.425 123.95 182.509 121.746 178.867 121C176.703 120.557 170.367 117.5 167.367 113" stroke="#F59494" stroke-width="2"/>
<path d="M201.5 124C200.425 123.95 182.509 121.746 178.867 121C176.703 120.557 170.367 117.5 167.367 113" stroke="url(#paint3_linear)" stroke-width="2"/>
<path d="M170 81.5C165.833 82.1667 155.9 82.1 149.5 76.5C150.333 74.8334 152.653 71.8539 153 67.0001C153.5 60.0001 152 53.1667 151 50C153 47.0002 156.5 43.9998 161.5 44C174.538 44.0005 177 61 176.5 66.5C176.1 70.9 172 78.3333 170 81.5Z" fill="#FFFEFD"/>
<path d="M152 73C153.429 73.8457 157.238 75.7399 161.048 76.5517C164.857 77.3636 169.937 76.89 172 76.5517" stroke="#DDE7ED" stroke-width="2" stroke-linecap="round"/>
<path d="M153 68.6494C154.79 68.9551 159.462 69.4371 163.828 68.9199C168.194 68.4027 173.575 66.2768 175.72 65.2785" stroke="#DDE7ED" stroke-width="2" stroke-linecap="round"/>
<path d="M154 59.7002C155.243 60.1392 158.535 61.0707 161.753 61.2849C164.971 61.499 169.156 60.7534 170.846 60.3538" stroke="#DDE7ED" stroke-width="2" stroke-linecap="round"/>
<path d="M159 55.042C160.087 55.0129 162.855 54.7331 165.234 53.8467C167.612 52.9604 170.223 50.9066 171.231 49.9906" stroke="#DDE7ED" stroke-width="2" stroke-linecap="round"/>
<path d="M153.499 66.4999C152.499 65.9999 141.499 53.9999 138.499 59.4999C136.099 63.8999 147.499 65.9999 153.499 66.4999Z" stroke="#FFFEFD" stroke-width="4"/>
<path d="M154.037 66.4364C153.289 66.9201 140.305 69.594 143.177 73.8956C145.475 77.3368 151.375 70.3567 154.037 66.4364Z" stroke="#FFFEFD" stroke-width="4"/>
<path d="M141 60.0001C141 60.0001 140 60.5001 140.5 61.0001C141 61.5001 142.3 62.1001 143.5 62.5001C144.7 62.9001 146.333 63.3334 147 63.5001L151.5 67.0001C150.667 66.8334 148.6 66.6001 147 67.0001C145.707 67.3233 145.415 67.4507 145.439 67.4876C145.46 67.4919 145.48 67.496 145.5 67.5001C145.468 67.5001 145.445 67.4964 145.439 67.4876C143.765 67.1385 140.976 65.988 139 65.0001C137.237 64.1188 136.5 63 136.5 62.0001C136.5 61.0002 137 59 141 60.0001Z" fill="#DDE7ED"/>
<path d="M155.5 153.5C154 155.5 154.5 160.167 155 162.5C153.667 162.5 149.7 162.2 144.5 161C139.3 159.8 138.667 157 137.5 154.5L135 125C159 127.5 163 95.5 174 98.5C168 101.5 167.5 107.5 169 114C169 114 167.5 114.928 166 116C163.2 118 162 129 164.5 134C164.167 133.667 162.9 133.5 160.5 135.5C158.1 137.5 158.833 146 159 150.5C158.833 150.5 156.858 151.69 155.5 153.5Z" fill="url(#paint4_linear)"/>
<path d="M123.499 126C120.699 133.2 121.666 142 122.499 145.5C118.499 143.9 103.833 144.833 96.9995 145.5C94.9994 144.667 90.7991 139.6 89.9991 126C89.1991 112.4 99.9991 97 105.499 91L125.499 96C124.833 97.3333 123.299 101.1 122.499 105.5C121.499 111 126.999 117 123.499 126Z" fill="url(#paint5_linear)"/>
<path d="M146 76.5C145 76.5 144 76.5 143.5 75C143.1 73.8 144.333 72.8333 145 72.5C145.5 73 147 72 148 70.5C149 70.3333 150.8 70.3 154 69.5C150.5 75 147 76.5 146 76.5Z" fill="#DDE7ED"/>
<path d="M156.5 115.5C152 121 146.397 123.953 143.436 124.36C125.298 124.116 138.275 107.547 146.009 98.7812C153.744 90.0154 167.078 87.9126 167.965 90.0917C168.675 91.8349 170.657 95.9163 170.045 98.7445C165.501 101.76 160.081 111.123 156.5 115.5Z" fill="url(#paint6_linear)"/>
<path d="M185 112C185 114.8 181.667 118.5 180 120L201.5 123C202.333 122.333 204.4 119.9 206 115.5C208 110 205 107.5 203 106C201.4 104.8 188.5 102.5 186.5 104C184.5 105.5 185 109.2 185 112Z" fill="url(#paint7_linear)"/>
<path d="M179 131.492C179 134.292 175.5 135.5 175.001 138.5C174.502 141.5 196.5 141 196.5 141C197.333 140.333 199.214 138.502 200.5 134C202.5 127 201 125 197 124.5C195.015 124.252 182.5 121.992 180.5 123.492C178.5 124.992 179 128.692 179 131.492Z" fill="url(#paint8_linear)"/>
<path d="M173.065 149.406C173.065 151.848 171 153.5 169.001 156C167.001 158.5 189.5 158.5 189.5 158.5C190.5 157 195 152.5 195.5 145C195.633 143 195.25 143 194.5 143H194.5C187.5 143 176.609 141.121 174.584 142.429C172.558 143.737 173.065 146.964 173.065 149.406Z" fill="url(#paint9_linear)"/>
<path d="M167.064 164.228C167.064 165.952 165 166 165.5 168.5C166 171 179.5 171 182 170.5C184.5 170 186.79 169.576 187.5 166.5C189 160 188.5 160.5 187 160.5C177 160.5 171.5 159.303 168.583 159.303C166.557 160.226 167.064 162.504 167.064 164.228Z" fill="url(#paint10_linear)"/>
<defs>
<linearGradient id="paint0_linear" x1="150.5" y1="-7" x2="150.5" y2="226" gradientUnits="userSpaceOnUse">
<stop stop-color="#F47A72"/>
<stop offset="1" stop-color="#DA83BC" stop-opacity="0"/>
</linearGradient>
<linearGradient id="paint1_linear" x1="196" y1="142" x2="163" y2="132.5" gradientUnits="userSpaceOnUse">
<stop stop-color="#DB81B3"/>
<stop offset="1" stop-color="#F59494"/>
</linearGradient>
<linearGradient id="paint2_linear" x1="190.367" y1="159.5" x2="157.367" y2="150" gradientUnits="userSpaceOnUse">
<stop stop-color="#DB81B3"/>
<stop offset="1" stop-color="#F59494"/>
</linearGradient>
<linearGradient id="paint3_linear" x1="200.367" y1="122.5" x2="167.367" y2="113" gradientUnits="userSpaceOnUse">
<stop stop-color="#DB81B3"/>
<stop offset="1" stop-color="#F59494"/>
</linearGradient>
<linearGradient id="paint4_linear" x1="164" y1="126.5" x2="137" y2="120" gradientUnits="userSpaceOnUse">
<stop stop-color="#F59494"/>
<stop offset="1" stop-color="#EDBBB5" stop-opacity="0"/>
</linearGradient>
<linearGradient id="paint5_linear" x1="123.5" y1="124" x2="101.5" y2="121.5" gradientUnits="userSpaceOnUse">
<stop stop-color="#F59494" stop-opacity="0.13"/>
<stop offset="1" stop-color="#EDBBB5"/>
</linearGradient>
<linearGradient id="paint6_linear" x1="158.095" y1="114.287" x2="144.624" y2="106.203" gradientUnits="userSpaceOnUse">
<stop stop-color="white" stop-opacity="0.31"/>
<stop offset="1" stop-color="white" stop-opacity="0"/>
</linearGradient>
<linearGradient id="paint7_linear" x1="186" y1="111.5" x2="205.5" y2="117.5" gradientUnits="userSpaceOnUse">
<stop stop-color="white" stop-opacity="0.37"/>
<stop offset="1" stop-color="white" stop-opacity="0"/>
</linearGradient>
<linearGradient id="paint8_linear" x1="180" y1="130.992" x2="199.5" y2="136.992" gradientUnits="userSpaceOnUse">
<stop stop-color="white" stop-opacity="0.37"/>
<stop offset="1" stop-color="white" stop-opacity="0"/>
</linearGradient>
<linearGradient id="paint9_linear" x1="174.077" y1="148.97" x2="193.248" y2="155.82" gradientUnits="userSpaceOnUse">
<stop stop-color="white" stop-opacity="0.37"/>
<stop offset="1" stop-color="white" stop-opacity="0"/>
</linearGradient>
<linearGradient id="paint10_linear" x1="168.077" y1="163.92" x2="185.286" y2="172.631" gradientUnits="userSpaceOnUse">
<stop stop-color="white" stop-opacity="0.37"/>
<stop offset="1" stop-color="white" stop-opacity="0"/>
</linearGradient>
</defs>
</svg>
