<svg width="152" height="157" viewBox="0 0 152 157" fill="none" xmlns="http://www.w3.org/2000/svg">
<rect x="120.243" y="56.4248" width="18.6424" height="18.6424" rx="7" transform="rotate(-45 120.243 56.4248)" stroke="#8967AC" stroke-width="6"/>
<rect x="130.176" y="56.4248" width="4.59619" height="4.59619" rx="2" transform="rotate(-45 130.176 56.4248)" fill="#E2F8FF"/>
<rect x="130" y="66" width="6" height="91" fill="#8967AC"/>
<path d="M127.99 105.673C130.441 109.196 131.44 113.136 131.848 115.736C132.066 117.122 130.738 118.045 129.515 117.359C127.219 116.072 123.873 113.763 121.423 110.24C118.972 106.717 117.973 102.777 117.565 100.177C117.347 98.7911 118.675 97.8679 119.899 98.5541C122.194 99.8413 125.54 102.15 127.99 105.673Z" fill="#8967AC"/>
<path d="M138.424 105.673C135.973 109.196 134.974 113.136 134.566 115.736C134.348 117.122 135.676 118.045 136.9 117.359C139.195 116.072 142.541 113.763 144.991 110.24C147.442 106.717 148.441 102.777 148.849 100.177C149.067 98.7911 147.739 97.8679 146.516 98.5541C144.22 99.8413 140.874 102.15 138.424 105.673Z" fill="#8967AC"/>
<rect x="73" y="30" width="6" height="127" fill="#6D5E98"/>
<rect x="66" width="20" height="85" rx="10" fill="#6D5E98"/>
<rect x="66" y="44" width="20" height="5" fill="#AFA6CE"/>
<rect opacity="0.6" x="66" y="65" width="20" height="5" fill="#C0B9DC"/>
<rect x="21" y="107" width="6" height="50" fill="#7291AD"/>
<rect x="12" y="91" width="6" height="66" fill="#C0E6E3"/>
<path fill-rule="evenodd" clip-rule="evenodd" d="M35.4746 111C35.195 105.99 30.2708 102 24.2371 102C18.2035 102 13.2793 105.99 12.9997 111L35.4746 111Z" fill="#7291AD"/>
<path fill-rule="evenodd" clip-rule="evenodd" d="M31.002 94C30.6163 88.9899 23.824 85 15.5015 85C7.17895 85 0.386673 88.9899 0.000974655 94L31.002 94Z" fill="#C0E6E3"/>
</svg>
