<svg width="416" height="369" viewBox="0 0 416 369" fill="none" xmlns="http://www.w3.org/2000/svg">
<path fill-rule="evenodd" clip-rule="evenodd" d="M68.2431 215.347C91.8843 194.557 121.129 181.6 146.627 173.595C182.509 162.33 215.206 138.949 234.801 106.847C249.747 82.3605 269.829 55.1207 293.106 37.8327C344.045 0 416 0 416 0V369H0C0 369 13.902 263.133 68.2431 215.347Z" fill="#75ACFF"/>
<path fill-rule="evenodd" clip-rule="evenodd" d="M68.2431 215.347C91.8843 194.557 121.129 181.6 146.627 173.595C182.509 162.33 215.206 138.949 234.801 106.847C249.747 82.3605 269.829 55.1207 293.106 37.8327C344.045 0 416 0 416 0V369H0C0 369 13.902 263.133 68.2431 215.347Z" fill="url(#paint0_linear)" fill-opacity="0.8"/>
<path opacity="0.5" fill-rule="evenodd" clip-rule="evenodd" d="M190.906 282.691C204.818 273.754 222.182 266.789 238.702 261.535C272.651 250.739 301.657 226.954 322.573 198.116C330.983 186.522 341.045 175.318 352.416 167.535C387.549 143.488 416 144.011 416 144.011V369H144C144 369 152.319 307.479 190.906 282.691Z" fill="#949DF4"/>
<defs>
<linearGradient id="paint0_linear" x1="38.4623" y1="11.1053" x2="134.878" y2="400.129" gradientUnits="userSpaceOnUse">
<stop stop-color="#9EA8FF"/>
<stop offset="1" stop-color="#AAE5E9"/>
</linearGradient>
</defs>
</svg>
