<svg width="190" height="175" viewBox="0 0 190 175" fill="none" xmlns="http://www.w3.org/2000/svg">
<path d="M53.3916 113.301C51.9842 124.842 56.6168 138.51 59.1091 143.901H129.479C131.531 138.072 136.516 123.792 135.636 113.301C134.315 97.5462 135.636 76.1436 95.1739 76.1436C53.3916 76.1436 55.1431 98.9385 53.3916 113.301Z" fill="#30305D"/>
<path d="M94.8009 121.679C60.7733 121.679 37.9317 157.269 35.9434 174.054H152.648C149.606 155.518 126.398 121.679 94.8009 121.679Z" fill="#30305D"/>
<path d="M101.12 69.5257C103.306 71.1506 103.397 78.3275 103.169 81.7128L90.8709 77.6507C90.1876 73.5883 89.5044 66.0052 92.2374 68.1718C94.9703 70.3384 97.0201 74.4909 97.7033 76.2963C97.9311 73.3624 98.9332 67.9007 101.12 69.5257Z" fill="#30305D"/>
<path d="M45.9124 115.622C47.5107 113.106 55.6058 113.336 55.6058 113.336C61.1059 119.193 73.1691 133.683 73.0208 134.411C72.8724 135.139 69.0351 146.86 67.135 152.63L48.8252 154.581C45.8219 153.337 39.3384 149.994 37.4303 146.574C35.5223 143.154 38.0336 140.066 39.5278 138.95C36.9648 137.322 32.1469 133.087 33.3797 129.171C34.6125 125.254 44.1859 121.427 48.8186 120.004C48.8186 120.004 44.314 118.138 45.9124 115.622Z" fill="#30305D"/>
<path d="M144.002 115.622C142.403 113.106 134.308 113.336 134.308 113.336C128.808 119.193 116.745 133.683 116.893 134.411C117.042 135.139 120.879 146.86 122.779 152.63L141.089 154.581C144.092 153.337 150.576 149.994 152.484 146.574C154.392 143.154 151.88 140.066 150.386 138.95C152.949 137.322 157.767 133.087 156.534 129.171C155.302 125.254 145.728 121.427 141.095 120.004C141.095 120.004 145.6 118.138 144.002 115.622Z" fill="#30305D"/>
<path d="M70.9949 64.0268C75.6978 71.9076 77.1349 87.0125 77.2655 93.5799L71.7789 94.762C69.5581 93.7112 64.5677 91.058 62.373 88.8514C60.1783 86.6448 63.2875 86.0931 65.1164 86.0931C63.0262 84.911 57.9052 81.5222 54.1428 77.4242C50.3804 73.3262 57.2781 75.1913 61.1973 76.6361C58.8457 74.9286 53.3587 70.3315 50.2234 65.603C47.4479 61.4171 52.4529 56.5107 56.2663 53.8907C57.155 53.2802 58.2606 53.0634 59.2746 53.43C62.2492 54.5052 67.1118 57.5199 70.9949 64.0268Z" fill="#30305D"/>
<path d="M139.611 69.4456C137.608 79.2785 127.646 92.5449 122.915 97.9489L117.61 94.8638C116.589 92.379 114.509 86.5595 114.361 83.1598C114.212 79.7601 117.131 81.604 118.609 82.9509C117.79 80.4561 116.147 73.9459 116.124 67.863C116.101 61.7802 120.303 68.3674 122.406 72.4213C121.763 69.3095 120.714 61.5531 121.662 55.4225C122.51 49.9393 130.319 49.7106 135.326 50.4284C136.393 50.5814 137.356 51.1651 137.869 52.1132C139.502 55.1282 141.289 61.2045 139.611 69.4456Z" fill="#30305D"/>
<path d="M68.9121 115.182C71.5935 117.983 78.3177 121.906 83.7631 115.182" stroke="#ABA7FB" stroke-width="2.78456" stroke-linecap="round"/>
<path d="M120.891 115.182C118.209 117.983 111.485 121.906 106.04 115.182" stroke="#ABA7FB" stroke-width="2.78456" stroke-linecap="round"/>
<ellipse cx="97.2218" cy="92.9051" rx="4.17684" ry="3.71274" fill="#57578F"/>
<ellipse cx="100.932" cy="85.944" rx="2.32046" ry="1.39228" fill="#57578F"/>
<ellipse cx="91.1869" cy="86.8722" rx="2.78456" ry="2.32046" fill="#57578F"/>
</svg>
