<svg width="106" height="158" viewBox="0 0 106 158" fill="none" xmlns="http://www.w3.org/2000/svg">
<rect x="-4.24264" width="23.6985" height="23.6985" rx="7" transform="matrix(-0.707107 -0.707107 -0.707107 0.707107 93.2203 28)" stroke="#7779C0" stroke-width="6"/>
<rect width="7.17741" height="7.17741" rx="1" transform="matrix(-0.707107 -0.707107 -0.707107 0.707107 84.5391 31)" fill="#E2F8FF"/>
<rect width="6" height="83" transform="matrix(-1 0 0 1 27 75)" fill="#5F89B0"/>
<path fill-rule="evenodd" clip-rule="evenodd" d="M40 86C39.6021 93.237 32.5904 99.0004 23.999 99.0004C15.4076 99.0004 8.39592 93.237 7.998 86H40Z" fill="#5F89B0"/>
<path fill-rule="evenodd" clip-rule="evenodd" d="M35 70.001C34.7258 75.0107 29.9059 79.0002 24 79.0002C18.0942 79.0002 13.2742 75.0107 13.0001 70.001H35Z" fill="#5F89B0"/>
<rect width="6" height="114" transform="matrix(-1 0 0 1 82.4629 44)" fill="#7779C0"/>
<path d="M84.8963 77.1048C82.4461 80.6278 81.4463 84.5679 81.0385 87.1681C80.821 88.5541 82.1484 89.4773 83.3722 88.7911C85.6679 87.504 89.0139 85.1956 91.4641 81.6726C93.9142 78.1496 94.914 74.2095 95.3219 71.6093C95.5394 70.2232 94.212 69.3001 92.9882 69.9863C90.6925 71.2734 87.3465 73.5818 84.8963 77.1048Z" fill="#7779C0"/>
<path d="M74.465 77.1048C76.9152 80.6278 77.915 84.5679 78.3229 87.1681C78.5403 88.5541 77.2129 89.4773 75.9891 88.7911C73.6934 87.504 70.3474 85.1956 67.8973 81.6726C65.4471 78.1496 64.4473 74.2095 64.0394 71.6093C63.822 70.2232 65.1493 69.3001 66.3731 69.9863C68.6688 71.2734 72.0148 73.5818 74.465 77.1048Z" fill="#7779C0"/>
<circle cx="24" cy="55" r="7" fill="#E2F8FF"/>
</svg>
