<svg width="114" height="114" viewBox="0 0 114 114" fill="none" xmlns="http://www.w3.org/2000/svg">
<path fill-rule="evenodd" clip-rule="evenodd" d="M43.6979 7.38818C46.4592 2.95245 51.3792 0 56.9888 0C62.5983 0 67.5182 2.95236 70.2795 7.38798C74.8886 4.92732 80.6255 4.8305 85.4835 7.63522C90.3413 10.4399 93.1259 15.4566 93.2996 20.6785C98.5218 20.8518 103.539 23.6365 106.344 28.4946C109.148 33.3526 109.052 39.0897 106.591 43.6988C111.027 46.46 113.98 51.3802 113.98 56.99C113.98 62.5997 111.027 67.5198 106.591 70.281C109.052 74.8901 109.148 80.627 106.344 85.4848C103.539 90.3429 98.5219 93.1275 93.2998 93.3009C93.1263 98.523 90.3417 103.54 85.4837 106.345C80.6257 109.149 74.8886 109.052 70.2794 106.592C67.5182 111.027 62.5982 113.98 56.9888 113.98C51.3792 113.98 46.4593 111.027 43.698 106.591C39.0888 109.052 33.3517 109.149 28.4937 106.344C23.6356 103.54 20.851 98.5226 20.6776 93.3005C15.4557 93.1268 10.4391 90.3422 7.63448 85.4844C4.82973 80.6264 4.92658 74.8894 7.38729 70.2803C2.95206 67.5189 0 62.5992 0 56.99C0 51.3807 2.95218 46.4609 7.38757 43.6995C4.92665 39.0903 4.82971 33.3532 7.63454 28.4951C10.4392 23.6372 15.4559 20.8526 20.6778 20.679C20.8513 15.457 23.636 10.4402 28.4939 7.6354C33.3519 4.83067 39.0888 4.9275 43.6979 7.38818Z" fill="#C4C4C4"/>
<path fill-rule="evenodd" clip-rule="evenodd" d="M43.6979 7.38818C46.4592 2.95245 51.3792 0 56.9888 0C62.5983 0 67.5182 2.95236 70.2795 7.38798C74.8886 4.92732 80.6255 4.8305 85.4835 7.63522C90.3413 10.4399 93.1259 15.4566 93.2996 20.6785C98.5218 20.8518 103.539 23.6365 106.344 28.4946C109.148 33.3526 109.052 39.0897 106.591 43.6988C111.027 46.46 113.98 51.3802 113.98 56.99C113.98 62.5997 111.027 67.5198 106.591 70.281C109.052 74.8901 109.148 80.627 106.344 85.4848C103.539 90.3429 98.5219 93.1275 93.2998 93.3009C93.1263 98.523 90.3417 103.54 85.4837 106.345C80.6257 109.149 74.8886 109.052 70.2794 106.592C67.5182 111.027 62.5982 113.98 56.9888 113.98C51.3792 113.98 46.4593 111.027 43.698 106.591C39.0888 109.052 33.3517 109.149 28.4937 106.344C23.6356 103.54 20.851 98.5226 20.6776 93.3005C15.4557 93.1268 10.4391 90.3422 7.63448 85.4844C4.82973 80.6264 4.92658 74.8894 7.38729 70.2803C2.95206 67.5189 0 62.5992 0 56.99C0 51.3807 2.95218 46.4609 7.38757 43.6995C4.92665 39.0903 4.82971 33.3532 7.63454 28.4951C10.4392 23.6372 15.4559 20.8526 20.6778 20.679C20.8513 15.457 23.636 10.4402 28.4939 7.6354C33.3519 4.83067 39.0888 4.9275 43.6979 7.38818Z" fill="url(#paint0_linear)"/>
<g filter="url(#filter0_d)">
<path d="M36.0707 80.6939L24.982 50.8928C24.3824 49.2815 25.2569 47.497 26.8976 46.9835L75.3534 31.818C76.8609 31.3462 78.476 32.1242 79.0468 33.5971L89.7385 61.1886C90.3468 62.7585 89.5444 64.5214 87.9612 65.0938L39.9024 82.4689C38.3545 83.0286 36.6447 82.2365 36.0707 80.6939Z" fill="white"/>
<path d="M36.0707 80.6939L24.982 50.8928C24.3824 49.2815 25.2569 47.497 26.8976 46.9835L75.3534 31.818C76.8609 31.3462 78.476 32.1242 79.0468 33.5971L89.7385 61.1886C90.3468 62.7585 89.5444 64.5214 87.9612 65.0938L39.9024 82.4689C38.3545 83.0286 36.6447 82.2365 36.0707 80.6939Z" fill="url(#paint1_linear)"/>
<path d="M36.6934 78.9326C43.3075 72.9799 50.4729 60.7436 53.2288 55.3696" stroke="white" stroke-width="2" stroke-linecap="round"/>
<path d="M87.6666 59.6362C82.1597 56.0341 71.8399 53.1047 67.3683 52.0903" stroke="white" stroke-width="2" stroke-linecap="round"/>
<path d="M46.6159 58.6766C41.986 56.0309 30.6316 52.0624 25.5332 50.4089L34.6277 50.8222L57.7773 56.1963L62.7379 57.023C63.5647 56.0585 65.6316 53.6333 67.2852 51.649C68.9387 49.6648 75.1395 39.523 78.0332 34.7002C76.9308 37.3183 74.2301 43.464 72.2458 47.1018C69.7655 51.649 61.9112 62.8104 59.0175 63.6372C56.1238 64.464 52.4033 61.9837 46.6159 58.6766Z" fill="#D7E7FA"/>
<path d="M25.5332 49.9953C26.7734 49.1685 52.4033 53.7158 58.6041 56.6095C60.671 57.574 63.1513 57.4362 64.8049 55.3693C68.5253 50.4087 75.3875 41.2315 78.0332 34.2866" stroke="#B2B0C7" stroke-width="2" stroke-linecap="round"/>
<path d="M25.5332 49.9953C26.7734 49.1685 52.4033 53.7158 58.6041 56.6095C60.671 57.574 63.1513 57.4362 64.8049 55.3693C68.5253 50.4087 75.3875 41.2315 78.0332 34.2866" stroke="url(#paint2_linear)" stroke-width="2" stroke-linecap="round"/>
</g>
<defs>
<filter id="filter0_d" x="17.5332" y="31.6802" width="73.4092" height="59.968" filterUnits="userSpaceOnUse" color-interpolation-filters="sRGB">
<feFlood flood-opacity="0" result="BackgroundImageFix"/>
<feColorMatrix in="SourceAlpha" type="matrix" values="0 0 0 0 0 0 0 0 0 0 0 0 0 0 0 0 0 0 127 0"/>
<feOffset dx="-3" dy="5"/>
<feGaussianBlur stdDeviation="2"/>
<feColorMatrix type="matrix" values="0 0 0 0 0.289873 0 0 0 0 0.188229 0 0 0 0 0.579167 0 0 0 0.2 0"/>
<feBlend mode="normal" in2="BackgroundImageFix" result="effect1_dropShadow"/>
<feBlend mode="normal" in="SourceGraphic" in2="effect1_dropShadow" result="shape"/>
</filter>
<linearGradient id="paint0_linear" x1="2.67576e-07" y1="54.276" x2="111.944" y2="54.276" gradientUnits="userSpaceOnUse">
<stop stop-color="#FF7EAD"/>
<stop offset="1" stop-color="#FF947C"/>
</linearGradient>
<linearGradient id="paint1_linear" x1="67.6978" y1="72.3181" x2="55.7096" y2="37.5937" gradientUnits="userSpaceOnUse">
<stop stop-color="#E6F5F9"/>
<stop offset="0.707547" stop-color="white" stop-opacity="0"/>
</linearGradient>
<linearGradient id="paint2_linear" x1="49.923" y1="40.9008" x2="54.8836" y2="58.6764" gradientUnits="userSpaceOnUse">
<stop stop-color="white"/>
<stop offset="1" stop-color="white" stop-opacity="0"/>
</linearGradient>
</defs>
</svg>
