<svg width="569" height="260" viewBox="0 0 569 260" fill="none" xmlns="http://www.w3.org/2000/svg">
<g filter="url(#filter0_dd)">
<mask id="path-1-inside-1" fill="white">
<path d="M333.799 111.946C342.301 112.302 349.72 114.676 356.056 119.067C362.392 123.458 367.192 129.582 370.455 137.437C373.857 145.164 375.346 154.076 374.922 164.172C374.499 174.267 372.263 183.156 368.215 190.837C364.299 198.524 358.929 204.42 352.103 208.525C345.415 212.502 337.887 214.316 329.519 213.964C323.01 213.691 317.088 212.112 311.753 209.227C306.551 206.347 302.653 202.524 300.058 197.758C299.47 202.258 297.526 205.769 294.227 208.292C291.066 210.688 286.961 211.779 281.913 211.568C276.6 211.345 272.41 209.705 269.345 206.649C266.418 203.466 265.058 199.416 265.264 194.501L269.896 84.114C270.091 79.4647 271.91 75.7485 275.354 72.9655C278.803 70.0496 283.25 68.7059 288.697 68.9344C293.877 69.1518 298.003 70.7222 301.074 73.6455C304.145 76.5688 305.583 80.3551 305.388 85.0044L303.724 124.656C306.825 120.528 311.019 117.311 316.305 115.004C321.725 112.703 327.556 111.684 333.799 111.946ZM319.672 187.004C325.782 187.26 330.587 185.332 334.086 181.221C337.591 176.977 339.514 170.803 339.854 162.7C340.177 154.996 338.764 149.015 335.616 144.757C332.601 140.506 328.038 138.252 321.928 137.995C315.684 137.733 310.813 139.658 307.314 143.769C303.82 147.748 301.909 153.656 301.58 161.493C301.245 169.464 302.649 175.644 305.792 180.034C308.935 184.424 313.561 186.747 319.672 187.004Z"/>
</mask>
<path d="M333.799 111.946C342.301 112.302 349.72 114.676 356.056 119.067C362.392 123.458 367.192 129.582 370.455 137.437C373.857 145.164 375.346 154.076 374.922 164.172C374.499 174.267 372.263 183.156 368.215 190.837C364.299 198.524 358.929 204.42 352.103 208.525C345.415 212.502 337.887 214.316 329.519 213.964C323.01 213.691 317.088 212.112 311.753 209.227C306.551 206.347 302.653 202.524 300.058 197.758C299.47 202.258 297.526 205.769 294.227 208.292C291.066 210.688 286.961 211.779 281.913 211.568C276.6 211.345 272.41 209.705 269.345 206.649C266.418 203.466 265.058 199.416 265.264 194.501L269.896 84.114C270.091 79.4647 271.91 75.7485 275.354 72.9655C278.803 70.0496 283.25 68.7059 288.697 68.9344C293.877 69.1518 298.003 70.7222 301.074 73.6455C304.145 76.5688 305.583 80.3551 305.388 85.0044L303.724 124.656C306.825 120.528 311.019 117.311 316.305 115.004C321.725 112.703 327.556 111.684 333.799 111.946ZM319.672 187.004C325.782 187.26 330.587 185.332 334.086 181.221C337.591 176.977 339.514 170.803 339.854 162.7C340.177 154.996 338.764 149.015 335.616 144.757C332.601 140.506 328.038 138.252 321.928 137.995C315.684 137.733 310.813 139.658 307.314 143.769C303.82 147.748 301.909 153.656 301.58 161.493C301.245 169.464 302.649 175.644 305.792 180.034C308.935 184.424 313.561 186.747 319.672 187.004Z" fill="#DCEAF8"/>
<path d="M333.799 111.946C342.301 112.302 349.72 114.676 356.056 119.067C362.392 123.458 367.192 129.582 370.455 137.437C373.857 145.164 375.346 154.076 374.922 164.172C374.499 174.267 372.263 183.156 368.215 190.837C364.299 198.524 358.929 204.42 352.103 208.525C345.415 212.502 337.887 214.316 329.519 213.964C323.01 213.691 317.088 212.112 311.753 209.227C306.551 206.347 302.653 202.524 300.058 197.758C299.47 202.258 297.526 205.769 294.227 208.292C291.066 210.688 286.961 211.779 281.913 211.568C276.6 211.345 272.41 209.705 269.345 206.649C266.418 203.466 265.058 199.416 265.264 194.501L269.896 84.114C270.091 79.4647 271.91 75.7485 275.354 72.9655C278.803 70.0496 283.25 68.7059 288.697 68.9344C293.877 69.1518 298.003 70.7222 301.074 73.6455C304.145 76.5688 305.583 80.3551 305.388 85.0044L303.724 124.656C306.825 120.528 311.019 117.311 316.305 115.004C321.725 112.703 327.556 111.684 333.799 111.946ZM319.672 187.004C325.782 187.26 330.587 185.332 334.086 181.221C337.591 176.977 339.514 170.803 339.854 162.7C340.177 154.996 338.764 149.015 335.616 144.757C332.601 140.506 328.038 138.252 321.928 137.995C315.684 137.733 310.813 139.658 307.314 143.769C303.82 147.748 301.909 153.656 301.58 161.493C301.245 169.464 302.649 175.644 305.792 180.034C308.935 184.424 313.561 186.747 319.672 187.004Z" fill="url(#paint0_linear)"/>
<path d="M333.799 111.946C342.301 112.302 349.72 114.676 356.056 119.067C362.392 123.458 367.192 129.582 370.455 137.437C373.857 145.164 375.346 154.076 374.922 164.172C374.499 174.267 372.263 183.156 368.215 190.837C364.299 198.524 358.929 204.42 352.103 208.525C345.415 212.502 337.887 214.316 329.519 213.964C323.01 213.691 317.088 212.112 311.753 209.227C306.551 206.347 302.653 202.524 300.058 197.758C299.47 202.258 297.526 205.769 294.227 208.292C291.066 210.688 286.961 211.779 281.913 211.568C276.6 211.345 272.41 209.705 269.345 206.649C266.418 203.466 265.058 199.416 265.264 194.501L269.896 84.114C270.091 79.4647 271.91 75.7485 275.354 72.9655C278.803 70.0496 283.25 68.7059 288.697 68.9344C293.877 69.1518 298.003 70.7222 301.074 73.6455C304.145 76.5688 305.583 80.3551 305.388 85.0044L303.724 124.656C306.825 120.528 311.019 117.311 316.305 115.004C321.725 112.703 327.556 111.684 333.799 111.946ZM319.672 187.004C325.782 187.26 330.587 185.332 334.086 181.221C337.591 176.977 339.514 170.803 339.854 162.7C340.177 154.996 338.764 149.015 335.616 144.757C332.601 140.506 328.038 138.252 321.928 137.995C315.684 137.733 310.813 139.658 307.314 143.769C303.82 147.748 301.909 153.656 301.58 161.493C301.245 169.464 302.649 175.644 305.792 180.034C308.935 184.424 313.561 186.747 319.672 187.004Z" stroke="white" stroke-width="7.80488" mask="url(#path-1-inside-1)"/>
<mask id="path-2-inside-2" fill="white">
<path d="M210.865 105.413C219.361 104.941 226.975 106.581 233.709 110.334C240.443 114.087 245.816 119.714 249.829 127.214C253.967 134.573 256.316 143.298 256.878 153.387C257.439 163.475 256.08 172.539 252.799 180.578C249.65 188.61 244.879 195.001 238.486 199.751C232.217 204.361 224.902 206.899 216.539 207.364C210.034 207.726 203.986 206.731 198.396 204.379C192.938 202.019 188.686 198.594 185.64 194.103C185.493 198.639 183.9 202.323 180.862 205.155C177.949 207.847 173.971 209.334 168.926 209.614C163.616 209.91 159.287 208.686 155.939 205.943C152.715 203.06 150.967 199.162 150.694 194.25L144.555 83.9366C144.296 79.2904 145.745 75.4148 148.901 72.3096C152.05 69.0717 156.345 67.3013 161.788 66.9984C166.965 66.7103 171.224 67.8714 174.566 70.4818C177.907 73.0922 179.706 76.7205 179.965 81.3667L182.17 120.992C184.854 116.582 188.715 112.971 193.752 110.161C198.921 107.343 204.626 105.761 210.865 105.413ZM204.113 181.49C210.219 181.15 214.814 178.764 217.896 174.332C220.971 169.766 222.283 163.435 221.832 155.337C221.404 147.638 219.416 141.823 215.868 137.892C212.453 133.954 207.692 132.155 201.586 132.495C195.347 132.842 190.686 135.232 187.604 139.665C184.514 143.965 183.187 150.031 183.623 157.863C184.066 165.828 186.066 171.842 189.621 175.905C193.176 179.968 198.007 181.83 204.113 181.49Z"/>
</mask>
<path d="M210.865 105.413C219.361 104.941 226.975 106.581 233.709 110.334C240.443 114.087 245.816 119.714 249.829 127.214C253.967 134.573 256.316 143.298 256.878 153.387C257.439 163.475 256.08 172.539 252.799 180.578C249.65 188.61 244.879 195.001 238.486 199.751C232.217 204.361 224.902 206.899 216.539 207.364C210.034 207.726 203.986 206.731 198.396 204.379C192.938 202.019 188.686 198.594 185.64 194.103C185.493 198.639 183.9 202.323 180.862 205.155C177.949 207.847 173.971 209.334 168.926 209.614C163.616 209.91 159.287 208.686 155.939 205.943C152.715 203.06 150.967 199.162 150.694 194.25L144.555 83.9366C144.296 79.2904 145.745 75.4148 148.901 72.3096C152.05 69.0717 156.345 67.3013 161.788 66.9984C166.965 66.7103 171.224 67.8714 174.566 70.4818C177.907 73.0922 179.706 76.7205 179.965 81.3667L182.17 120.992C184.854 116.582 188.715 112.971 193.752 110.161C198.921 107.343 204.626 105.761 210.865 105.413ZM204.113 181.49C210.219 181.15 214.814 178.764 217.896 174.332C220.971 169.766 222.283 163.435 221.832 155.337C221.404 147.638 219.416 141.823 215.868 137.892C212.453 133.954 207.692 132.155 201.586 132.495C195.347 132.842 190.686 135.232 187.604 139.665C184.514 143.965 183.187 150.031 183.623 157.863C184.066 165.828 186.066 171.842 189.621 175.905C193.176 179.968 198.007 181.83 204.113 181.49Z" fill="#DCEAF8"/>
<path d="M210.865 105.413C219.361 104.941 226.975 106.581 233.709 110.334C240.443 114.087 245.816 119.714 249.829 127.214C253.967 134.573 256.316 143.298 256.878 153.387C257.439 163.475 256.08 172.539 252.799 180.578C249.65 188.61 244.879 195.001 238.486 199.751C232.217 204.361 224.902 206.899 216.539 207.364C210.034 207.726 203.986 206.731 198.396 204.379C192.938 202.019 188.686 198.594 185.64 194.103C185.493 198.639 183.9 202.323 180.862 205.155C177.949 207.847 173.971 209.334 168.926 209.614C163.616 209.91 159.287 208.686 155.939 205.943C152.715 203.06 150.967 199.162 150.694 194.25L144.555 83.9366C144.296 79.2904 145.745 75.4148 148.901 72.3096C152.05 69.0717 156.345 67.3013 161.788 66.9984C166.965 66.7103 171.224 67.8714 174.566 70.4818C177.907 73.0922 179.706 76.7205 179.965 81.3667L182.17 120.992C184.854 116.582 188.715 112.971 193.752 110.161C198.921 107.343 204.626 105.761 210.865 105.413ZM204.113 181.49C210.219 181.15 214.814 178.764 217.896 174.332C220.971 169.766 222.283 163.435 221.832 155.337C221.404 147.638 219.416 141.823 215.868 137.892C212.453 133.954 207.692 132.155 201.586 132.495C195.347 132.842 190.686 135.232 187.604 139.665C184.514 143.965 183.187 150.031 183.623 157.863C184.066 165.828 186.066 171.842 189.621 175.905C193.176 179.968 198.007 181.83 204.113 181.49Z" fill="url(#paint1_linear)"/>
<path d="M210.865 105.413C219.361 104.941 226.975 106.581 233.709 110.334C240.443 114.087 245.816 119.714 249.829 127.214C253.967 134.573 256.316 143.298 256.878 153.387C257.439 163.475 256.08 172.539 252.799 180.578C249.65 188.61 244.879 195.001 238.486 199.751C232.217 204.361 224.902 206.899 216.539 207.364C210.034 207.726 203.986 206.731 198.396 204.379C192.938 202.019 188.686 198.594 185.64 194.103C185.493 198.639 183.9 202.323 180.862 205.155C177.949 207.847 173.971 209.334 168.926 209.614C163.616 209.91 159.287 208.686 155.939 205.943C152.715 203.06 150.967 199.162 150.694 194.25L144.555 83.9366C144.296 79.2904 145.745 75.4148 148.901 72.3096C152.05 69.0717 156.345 67.3013 161.788 66.9984C166.965 66.7103 171.224 67.8714 174.566 70.4818C177.907 73.0922 179.706 76.7205 179.965 81.3667L182.17 120.992C184.854 116.582 188.715 112.971 193.752 110.161C198.921 107.343 204.626 105.761 210.865 105.413ZM204.113 181.49C210.219 181.15 214.814 178.764 217.896 174.332C220.971 169.766 222.283 163.435 221.832 155.337C221.404 147.638 219.416 141.823 215.868 137.892C212.453 133.954 207.692 132.155 201.586 132.495C195.347 132.842 190.686 135.232 187.604 139.665C184.514 143.965 183.187 150.031 183.623 157.863C184.066 165.828 186.066 171.842 189.621 175.905C193.176 179.968 198.007 181.83 204.113 181.49Z" stroke="white" stroke-width="7.80488" mask="url(#path-2-inside-2)"/>
<mask id="path-3-inside-3" fill="white">
<path d="M408.72 202.891C403.707 203.516 399.32 202.724 395.561 200.513C391.917 198.153 389.758 194.269 389.084 188.86L375.486 79.8183C374.811 74.4091 375.95 70.1136 378.903 66.9317C381.988 63.7334 386.037 61.8216 391.05 61.1964C396.064 60.5713 400.392 61.4383 404.036 63.7976C407.812 66.1404 410.037 70.0164 410.712 75.4256L424.309 184.467C424.984 189.876 423.779 194.18 420.694 197.378C417.725 200.428 413.734 202.266 408.72 202.891Z"/>
</mask>
<path d="M408.72 202.891C403.707 203.516 399.32 202.724 395.561 200.513C391.917 198.153 389.758 194.269 389.084 188.86L375.486 79.8183C374.811 74.4091 375.95 70.1136 378.903 66.9317C381.988 63.7334 386.037 61.8216 391.05 61.1964C396.064 60.5713 400.392 61.4383 404.036 63.7976C407.812 66.1404 410.037 70.0164 410.712 75.4256L424.309 184.467C424.984 189.876 423.779 194.18 420.694 197.378C417.725 200.428 413.734 202.266 408.72 202.891Z" fill="#DCEAF8"/>
<path d="M408.72 202.891C403.707 203.516 399.32 202.724 395.561 200.513C391.917 198.153 389.758 194.269 389.084 188.86L375.486 79.8183C374.811 74.4091 375.95 70.1136 378.903 66.9317C381.988 63.7334 386.037 61.8216 391.05 61.1964C396.064 60.5713 400.392 61.4383 404.036 63.7976C407.812 66.1404 410.037 70.0164 410.712 75.4256L424.309 184.467C424.984 189.876 423.779 194.18 420.694 197.378C417.725 200.428 413.734 202.266 408.72 202.891Z" fill="url(#paint2_linear)"/>
<path d="M408.72 202.891C403.707 203.516 399.32 202.724 395.561 200.513C391.917 198.153 389.758 194.269 389.084 188.86L375.486 79.8183C374.811 74.4091 375.95 70.1136 378.903 66.9317C381.988 63.7334 386.037 61.8216 391.05 61.1964C396.064 60.5713 400.392 61.4383 404.036 63.7976C407.812 66.1404 410.037 70.0164 410.712 75.4256L424.309 184.467C424.984 189.876 423.779 194.18 420.694 197.378C417.725 200.428 413.734 202.266 408.72 202.891Z" stroke="white" stroke-width="7.80488" mask="url(#path-3-inside-3)"/>
<mask id="path-4-inside-4" fill="white">
<path d="M514.04 184.33C517.022 185.009 519.154 186.722 520.438 189.469C521.851 192.245 522.129 195.513 521.273 199.272C520.091 204.457 516.663 207.835 510.987 209.406C506.078 210.606 500.399 211.29 493.952 211.457C487.664 211.525 481.992 210.983 476.937 209.832C466.307 207.41 457.496 203.29 450.504 197.47C443.511 191.65 438.733 184.493 436.167 176C433.602 167.507 433.471 158.205 435.774 148.093C437.959 138.5 441.918 130.402 447.649 123.799C453.539 117.096 460.587 112.497 468.791 110.002C477.155 107.407 485.938 107.158 495.142 109.255C504.087 111.292 511.487 115.023 517.342 120.447C523.197 125.872 527.127 132.562 529.133 140.519C531.268 148.505 531.243 157.295 529.058 166.888C528.379 169.869 527.135 172.04 525.325 173.401C523.674 174.661 521.552 174.996 518.96 174.405L467.625 162.712C467.115 169.141 468.106 174.071 470.597 177.502C473.088 180.933 477.38 183.342 483.473 184.73C486.713 185.468 489.769 185.824 492.639 185.795C495.538 185.638 498.821 185.295 502.487 184.766C504.608 184.431 506.636 184.211 508.569 184.106C510.661 183.901 512.485 183.975 514.04 184.33ZM490.799 132.81C486.262 131.776 482.293 132.44 478.892 134.802C475.52 137.034 472.94 140.878 471.151 146.334L501.68 153.288C503.501 141.703 499.874 134.877 490.799 132.81Z"/>
</mask>
<path d="M514.04 184.33C517.022 185.009 519.154 186.722 520.438 189.469C521.851 192.245 522.129 195.513 521.273 199.272C520.091 204.457 516.663 207.835 510.987 209.406C506.078 210.606 500.399 211.29 493.952 211.457C487.664 211.525 481.992 210.983 476.937 209.832C466.307 207.41 457.496 203.29 450.504 197.47C443.511 191.65 438.733 184.493 436.167 176C433.602 167.507 433.471 158.205 435.774 148.093C437.959 138.5 441.918 130.402 447.649 123.799C453.539 117.096 460.587 112.497 468.791 110.002C477.155 107.407 485.938 107.158 495.142 109.255C504.087 111.292 511.487 115.023 517.342 120.447C523.197 125.872 527.127 132.562 529.133 140.519C531.268 148.505 531.243 157.295 529.058 166.888C528.379 169.869 527.135 172.04 525.325 173.401C523.674 174.661 521.552 174.996 518.96 174.405L467.625 162.712C467.115 169.141 468.106 174.071 470.597 177.502C473.088 180.933 477.38 183.342 483.473 184.73C486.713 185.468 489.769 185.824 492.639 185.795C495.538 185.638 498.821 185.295 502.487 184.766C504.608 184.431 506.636 184.211 508.569 184.106C510.661 183.901 512.485 183.975 514.04 184.33ZM490.799 132.81C486.262 131.776 482.293 132.44 478.892 134.802C475.52 137.034 472.94 140.878 471.151 146.334L501.68 153.288C503.501 141.703 499.874 134.877 490.799 132.81Z" fill="#DCEAF8"/>
<path d="M514.04 184.33C517.022 185.009 519.154 186.722 520.438 189.469C521.851 192.245 522.129 195.513 521.273 199.272C520.091 204.457 516.663 207.835 510.987 209.406C506.078 210.606 500.399 211.29 493.952 211.457C487.664 211.525 481.992 210.983 476.937 209.832C466.307 207.41 457.496 203.29 450.504 197.47C443.511 191.65 438.733 184.493 436.167 176C433.602 167.507 433.471 158.205 435.774 148.093C437.959 138.5 441.918 130.402 447.649 123.799C453.539 117.096 460.587 112.497 468.791 110.002C477.155 107.407 485.938 107.158 495.142 109.255C504.087 111.292 511.487 115.023 517.342 120.447C523.197 125.872 527.127 132.562 529.133 140.519C531.268 148.505 531.243 157.295 529.058 166.888C528.379 169.869 527.135 172.04 525.325 173.401C523.674 174.661 521.552 174.996 518.96 174.405L467.625 162.712C467.115 169.141 468.106 174.071 470.597 177.502C473.088 180.933 477.38 183.342 483.473 184.73C486.713 185.468 489.769 185.824 492.639 185.795C495.538 185.638 498.821 185.295 502.487 184.766C504.608 184.431 506.636 184.211 508.569 184.106C510.661 183.901 512.485 183.975 514.04 184.33ZM490.799 132.81C486.262 131.776 482.293 132.44 478.892 134.802C475.52 137.034 472.94 140.878 471.151 146.334L501.68 153.288C503.501 141.703 499.874 134.877 490.799 132.81Z" fill="url(#paint3_linear)"/>
<path d="M514.04 184.33C517.022 185.009 519.154 186.722 520.438 189.469C521.851 192.245 522.129 195.513 521.273 199.272C520.091 204.457 516.663 207.835 510.987 209.406C506.078 210.606 500.399 211.29 493.952 211.457C487.664 211.525 481.992 210.983 476.937 209.832C466.307 207.41 457.496 203.29 450.504 197.47C443.511 191.65 438.733 184.493 436.167 176C433.602 167.507 433.471 158.205 435.774 148.093C437.959 138.5 441.918 130.402 447.649 123.799C453.539 117.096 460.587 112.497 468.791 110.002C477.155 107.407 485.938 107.158 495.142 109.255C504.087 111.292 511.487 115.023 517.342 120.447C523.197 125.872 527.127 132.562 529.133 140.519C531.268 148.505 531.243 157.295 529.058 166.888C528.379 169.869 527.135 172.04 525.325 173.401C523.674 174.661 521.552 174.996 518.96 174.405L467.625 162.712C467.115 169.141 468.106 174.071 470.597 177.502C473.088 180.933 477.38 183.342 483.473 184.73C486.713 185.468 489.769 185.824 492.639 185.795C495.538 185.638 498.821 185.295 502.487 184.766C504.608 184.431 506.636 184.211 508.569 184.106C510.661 183.901 512.485 183.975 514.04 184.33ZM490.799 132.81C486.262 131.776 482.293 132.44 478.892 134.802C475.52 137.034 472.94 140.878 471.151 146.334L501.68 153.288C503.501 141.703 499.874 134.877 490.799 132.81Z" stroke="white" stroke-width="7.80488" mask="url(#path-4-inside-4)"/>
<mask id="path-5-inside-5" fill="white">
<path d="M120.31 107.594C125.735 108.124 129.894 109.999 132.785 113.221C135.676 116.442 136.877 120.567 136.385 125.595L129.677 194.271C129.224 198.903 127.195 202.578 123.59 205.299C119.997 207.887 115.555 208.922 110.262 208.405C105.498 207.94 101.717 206.301 98.9195 203.49C96.1346 200.546 94.8892 196.884 95.1835 192.505C91.6747 196.971 87.4157 200.229 82.4064 202.278C77.5295 204.339 72.0476 205.073 65.9607 204.478C53.3899 203.25 44.3972 198.899 38.9824 191.423C33.5806 183.815 31.5713 172.932 32.9544 158.774L37.1425 115.901C37.6337 110.872 39.6094 107.058 43.0695 104.457C46.5297 101.856 50.9724 100.82 56.3977 101.35C61.8229 101.88 65.9813 103.756 68.8727 106.977C71.764 110.199 72.9641 114.324 72.473 119.352L68.2073 163.019C67.2766 172.546 70.9133 177.71 79.1174 178.512C83.881 178.977 87.9526 177.638 91.3321 174.495C94.7117 171.352 96.6729 167.002 97.2158 161.444L101.055 122.144C101.546 117.116 103.522 113.301 106.982 110.7C110.442 108.099 114.885 107.064 120.31 107.594Z"/>
</mask>
<path d="M120.31 107.594C125.735 108.124 129.894 109.999 132.785 113.221C135.676 116.442 136.877 120.567 136.385 125.595L129.677 194.271C129.224 198.903 127.195 202.578 123.59 205.299C119.997 207.887 115.555 208.922 110.262 208.405C105.498 207.94 101.717 206.301 98.9195 203.49C96.1346 200.546 94.8892 196.884 95.1835 192.505C91.6747 196.971 87.4157 200.229 82.4064 202.278C77.5295 204.339 72.0476 205.073 65.9607 204.478C53.3899 203.25 44.3972 198.899 38.9824 191.423C33.5806 183.815 31.5713 172.932 32.9544 158.774L37.1425 115.901C37.6337 110.872 39.6094 107.058 43.0695 104.457C46.5297 101.856 50.9724 100.82 56.3977 101.35C61.8229 101.88 65.9813 103.756 68.8727 106.977C71.764 110.199 72.9641 114.324 72.473 119.352L68.2073 163.019C67.2766 172.546 70.9133 177.71 79.1174 178.512C83.881 178.977 87.9526 177.638 91.3321 174.495C94.7117 171.352 96.6729 167.002 97.2158 161.444L101.055 122.144C101.546 117.116 103.522 113.301 106.982 110.7C110.442 108.099 114.885 107.064 120.31 107.594Z" fill="#DCEAF8"/>
<path d="M120.31 107.594C125.735 108.124 129.894 109.999 132.785 113.221C135.676 116.442 136.877 120.567 136.385 125.595L129.677 194.271C129.224 198.903 127.195 202.578 123.59 205.299C119.997 207.887 115.555 208.922 110.262 208.405C105.498 207.94 101.717 206.301 98.9195 203.49C96.1346 200.546 94.8892 196.884 95.1835 192.505C91.6747 196.971 87.4157 200.229 82.4064 202.278C77.5295 204.339 72.0476 205.073 65.9607 204.478C53.3899 203.25 44.3972 198.899 38.9824 191.423C33.5806 183.815 31.5713 172.932 32.9544 158.774L37.1425 115.901C37.6337 110.872 39.6094 107.058 43.0695 104.457C46.5297 101.856 50.9724 100.82 56.3977 101.35C61.8229 101.88 65.9813 103.756 68.8727 106.977C71.764 110.199 72.9641 114.324 72.473 119.352L68.2073 163.019C67.2766 172.546 70.9133 177.71 79.1174 178.512C83.881 178.977 87.9526 177.638 91.3321 174.495C94.7117 171.352 96.6729 167.002 97.2158 161.444L101.055 122.144C101.546 117.116 103.522 113.301 106.982 110.7C110.442 108.099 114.885 107.064 120.31 107.594Z" fill="url(#paint4_linear)"/>
<path d="M120.31 107.594C125.735 108.124 129.894 109.999 132.785 113.221C135.676 116.442 136.877 120.567 136.385 125.595L129.677 194.271C129.224 198.903 127.195 202.578 123.59 205.299C119.997 207.887 115.555 208.922 110.262 208.405C105.498 207.94 101.717 206.301 98.9195 203.49C96.1346 200.546 94.8892 196.884 95.1835 192.505C91.6747 196.971 87.4157 200.229 82.4064 202.278C77.5295 204.339 72.0476 205.073 65.9607 204.478C53.3899 203.25 44.3972 198.899 38.9824 191.423C33.5806 183.815 31.5713 172.932 32.9544 158.774L37.1425 115.901C37.6337 110.872 39.6094 107.058 43.0695 104.457C46.5297 101.856 50.9724 100.82 56.3977 101.35C61.8229 101.88 65.9813 103.756 68.8727 106.977C71.764 110.199 72.9641 114.324 72.473 119.352L68.2073 163.019C67.2766 172.546 70.9133 177.71 79.1174 178.512C83.881 178.977 87.9526 177.638 91.3321 174.495C94.7117 171.352 96.6729 167.002 97.2158 161.444L101.055 122.144C101.546 117.116 103.522 113.301 106.982 110.7C110.442 108.099 114.885 107.064 120.31 107.594Z" stroke="white" stroke-width="7.80488" mask="url(#path-5-inside-5)"/>
</g>
<circle opacity="0.5" cx="509.093" cy="140.66" r="50.8231" fill="url(#paint5_radial)"/>
<circle opacity="0.5" cx="402.876" cy="146.37" r="50.8231" fill="url(#paint6_radial)"/>
<circle opacity="0.5" cx="348.056" cy="139.518" r="35.9759" fill="url(#paint7_radial)"/>
<circle opacity="0.5" cx="234.992" cy="140.66" r="35.9759" fill="url(#paint8_radial)"/>
<circle opacity="0.6" cx="56.8231" cy="145.228" r="50.8231" fill="url(#paint9_radial)"/>
<g filter="url(#filter1_f)">
<circle opacity="0.5" cx="108.575" cy="75.9017" r="1.94" fill="white"/>
<circle opacity="0.8" cx="73.6548" cy="118.582" r="1.94" fill="white"/>
<circle opacity="0.3" cx="145.92" cy="127.797" r="1.455" fill="white"/>
<circle opacity="0.3" cx="199.269" cy="77.3569" r="1.455" fill="white"/>
<circle opacity="0.7" cx="141.554" cy="47.7718" r="0.97" fill="white"/>
<circle opacity="0.7" cx="101.784" cy="157.382" r="0.97" fill="white"/>
<circle opacity="0.7" cx="209.454" cy="143.802" r="0.97" fill="white"/>
<circle opacity="0.7" cx="379.97" cy="215.97" r="0.97" fill="white"/>
<circle opacity="0.5" cx="420.94" cy="241.94" r="1.94" fill="white"/>
</g>
<g filter="url(#filter2_f)">
<circle opacity="0.5" cx="389.375" cy="157.678" r="1.94" transform="rotate(8.59049 389.375 157.678)" fill="white"/>
<circle opacity="0.8" cx="348.47" cy="194.662" r="1.94" transform="rotate(8.59049 348.47 194.662)" fill="white"/>
<circle opacity="0.3" cx="418.548" cy="214.568" r="1.455" transform="rotate(8.59049 418.548 214.568)" fill="white"/>
<circle opacity="0.3" cx="478.833" cy="172.663" r="1.455" transform="rotate(8.59049 478.833 172.663)" fill="white"/>
<circle opacity="0.7" cx="426.183" cy="134.789" r="0.97" transform="rotate(8.59049 426.183 134.789)" fill="white"/>
<circle cx="264.103" cy="242.104" r="0.97" transform="rotate(8.59049 264.103 242.104)" fill="white"/>
<circle opacity="0.7" cx="370.488" cy="237.229" r="0.97" transform="rotate(8.59049 370.488 237.229)" fill="white"/>
<circle opacity="0.7" cx="478.98" cy="239.884" r="0.97" transform="rotate(8.59049 478.98 239.884)" fill="white"/>
</g>
<circle opacity="0.8" cx="266.783" cy="2.63673" r="1.94" transform="rotate(8.59049 266.783 2.63673)" fill="white"/>
<circle opacity="0.6" cx="144.613" cy="243.675" r="1.94" transform="rotate(-36.4095 144.613 243.675)" fill="white"/>
<circle opacity="0.3" cx="336.86" cy="22.5422" r="1.455" transform="rotate(8.59049 336.86 22.5422)" fill="white"/>
<circle opacity="0.7" cx="288.803" cy="45.2029" r="0.97" transform="rotate(8.59049 288.803 45.2029)" fill="white"/>
<circle opacity="0.6" cx="190.282" cy="258.203" r="0.97" transform="rotate(-36.4095 190.282 258.203)" fill="white"/>
<circle opacity="0.6" cx="494.356" cy="94.3563" r="0.97" transform="rotate(-36.4095 494.356 94.3563)" fill="white"/>
<circle opacity="0.7" cx="397.293" cy="47.8579" r="0.97" transform="rotate(8.59049 397.293 47.8579)" fill="white"/>
<defs>
<filter id="filter0_dd" x="0.551067" y="43.3902" width="567.608" height="216.585" filterUnits="userSpaceOnUse" color-interpolation-filters="sRGB">
<feFlood flood-opacity="0" result="BackgroundImageFix"/>
<feColorMatrix in="SourceAlpha" type="matrix" values="0 0 0 0 0 0 0 0 0 0 0 0 0 0 0 0 0 0 127 0"/>
<feOffset dy="12.6829"/>
<feGaussianBlur stdDeviation="14.1463"/>
<feColorMatrix type="matrix" values="0 0 0 0 0.229665 0 0 0 0 0.130278 0 0 0 0 0.466667 0 0 0 0.23 0"/>
<feBlend mode="normal" in2="BackgroundImageFix" result="effect1_dropShadow"/>
<feColorMatrix in="SourceAlpha" type="matrix" values="0 0 0 0 0 0 0 0 0 0 0 0 0 0 0 0 0 0 127 0"/>
<feOffset dy="3.90244"/>
<feColorMatrix type="matrix" values="0 0 0 0 0.995833 0 0 0 0 0.767622 0 0 0 0 0.767622 0 0 0 1 0"/>
<feBlend mode="normal" in2="effect1_dropShadow" result="effect2_dropShadow"/>
<feBlend mode="normal" in="SourceGraphic" in2="effect2_dropShadow" result="shape"/>
</filter>
<filter id="filter1_f" x="67.8348" y="42.9218" width="358.925" height="204.838" filterUnits="userSpaceOnUse" color-interpolation-filters="sRGB">
<feFlood flood-opacity="0" result="BackgroundImageFix"/>
<feBlend mode="normal" in="SourceGraphic" in2="BackgroundImageFix" result="shape"/>
<feGaussianBlur stdDeviation="1.94" result="effect1_foregroundBlur"/>
</filter>
<filter id="filter2_f" x="259.12" y="129.805" width="225.248" height="117.283" filterUnits="userSpaceOnUse" color-interpolation-filters="sRGB">
<feFlood flood-opacity="0" result="BackgroundImageFix"/>
<feBlend mode="normal" in="SourceGraphic" in2="BackgroundImageFix" result="shape"/>
<feGaussianBlur stdDeviation="1.94" result="effect1_foregroundBlur"/>
</filter>
<linearGradient id="paint0_linear" x1="324.662" y1="70.4435" x2="318.659" y2="213.509" gradientUnits="userSpaceOnUse">
<stop stop-color="#B6FBFF" stop-opacity="0"/>
<stop offset="0.28125" stop-color="white" stop-opacity="0.458333"/>
<stop offset="0.729167" stop-color="white" stop-opacity="0.245773"/>
<stop offset="1" stop-color="#FFF6E4"/>
</linearGradient>
<linearGradient id="paint1_linear" x1="197.73" y1="64.9981" x2="205.686" y2="207.968" gradientUnits="userSpaceOnUse">
<stop stop-color="#B6FBFF" stop-opacity="0"/>
<stop offset="0.28125" stop-color="white" stop-opacity="0.458333"/>
<stop offset="0.729167" stop-color="white" stop-opacity="0.245773"/>
<stop offset="1" stop-color="#FFF6E4"/>
</linearGradient>
<linearGradient id="paint2_linear" x1="391.05" y1="61.1964" x2="408.72" y2="202.891" gradientUnits="userSpaceOnUse">
<stop stop-color="#B6FBFF" stop-opacity="0"/>
<stop offset="0.28125" stop-color="white" stop-opacity="0.458333"/>
<stop offset="0.729167" stop-color="white" stop-opacity="0.245773"/>
<stop offset="1" stop-color="#FFF6E4"/>
</linearGradient>
<linearGradient id="paint3_linear" x1="493.49" y1="108.878" x2="470.812" y2="208.436" gradientUnits="userSpaceOnUse">
<stop stop-color="#B6FBFF" stop-opacity="0"/>
<stop offset="0.28125" stop-color="white" stop-opacity="0.458333"/>
<stop offset="0.729167" stop-color="white" stop-opacity="0.245773"/>
<stop offset="1" stop-color="#FFF6E4"/>
</linearGradient>
<linearGradient id="paint4_linear" x1="88.3539" y1="104.472" x2="78.4653" y2="205.7" gradientUnits="userSpaceOnUse">
<stop stop-color="#B6FBFF" stop-opacity="0"/>
<stop offset="0.28125" stop-color="white" stop-opacity="0.458333"/>
<stop offset="0.729167" stop-color="white" stop-opacity="0.245773"/>
<stop offset="1" stop-color="#FFF6E4"/>
</linearGradient>
<radialGradient id="paint5_radial" cx="0" cy="0" r="1" gradientUnits="userSpaceOnUse" gradientTransform="translate(509.093 140.66) rotate(90) scale(50.8231)">
<stop stop-color="white"/>
<stop offset="1" stop-color="#C4C4C4" stop-opacity="0"/>
</radialGradient>
<radialGradient id="paint6_radial" cx="0" cy="0" r="1" gradientUnits="userSpaceOnUse" gradientTransform="translate(402.876 146.37) rotate(90) scale(50.8231)">
<stop stop-color="white"/>
<stop offset="1" stop-color="#C4C4C4" stop-opacity="0"/>
</radialGradient>
<radialGradient id="paint7_radial" cx="0" cy="0" r="1" gradientUnits="userSpaceOnUse" gradientTransform="translate(348.056 139.518) rotate(90) scale(35.9759)">
<stop stop-color="white"/>
<stop offset="1" stop-color="#C4C4C4" stop-opacity="0"/>
</radialGradient>
<radialGradient id="paint8_radial" cx="0" cy="0" r="1" gradientUnits="userSpaceOnUse" gradientTransform="translate(234.992 140.66) rotate(90) scale(35.9759)">
<stop stop-color="white"/>
<stop offset="1" stop-color="#C4C4C4" stop-opacity="0"/>
</radialGradient>
<radialGradient id="paint9_radial" cx="0" cy="0" r="1" gradientUnits="userSpaceOnUse" gradientTransform="translate(56.8231 145.228) rotate(90) scale(50.8231)">
<stop stop-color="white"/>
<stop offset="1" stop-color="#C4C4C4" stop-opacity="0"/>
</radialGradient>
</defs>
</svg>
