<svg width="94" height="38" viewBox="0 0 94 38" fill="none" xmlns="http://www.w3.org/2000/svg">
<g filter="url(#filter0_d)">
<path d="M47.9868 25.6828C46.242 25.6828 44.9183 25.2316 44.0158 24.3291C43.1134 23.4266 42.6621 22.109 42.6621 20.3762V13.8603C42.6621 13.5113 42.7644 13.2345 42.969 13.03C43.1735 12.8134 43.4503 12.7051 43.7992 12.7051C44.1482 12.7051 44.425 12.8134 44.6295 13.03C44.8341 13.2345 44.9364 13.5113 44.9364 13.8603V20.5025C44.9364 21.5976 45.1951 22.4278 45.7125 22.9934C46.2299 23.5469 46.988 23.8237 47.9868 23.8237C48.9735 23.8237 49.7256 23.5409 50.243 22.9754C50.7604 22.4098 51.0191 21.5855 51.0191 20.5025V13.8603C51.0191 13.5113 51.1214 13.2345 51.326 13.03C51.5305 12.8134 51.8073 12.7051 52.1563 12.7051C52.5052 12.7051 52.782 12.8134 52.9865 13.03C53.1911 13.2345 53.2934 13.5113 53.2934 13.8603V20.3762C53.2934 22.0969 52.8421 23.4146 51.9397 24.3291C51.0372 25.2316 49.7195 25.6828 47.9868 25.6828Z" fill="white"/>
<path d="M60.8453 16.4775C61.6155 16.4775 62.2953 16.664 62.885 17.037C63.4746 17.41 63.9318 17.9395 64.2567 18.6254C64.5937 19.3113 64.7621 20.1115 64.7621 21.026C64.7621 21.9405 64.5937 22.7527 64.2567 23.4627C63.9318 24.1606 63.4686 24.7021 62.8669 25.0872C62.2773 25.4722 61.6034 25.6648 60.8453 25.6648C60.2076 25.6648 59.636 25.5264 59.1306 25.2496C58.6373 24.9729 58.2582 24.5878 57.9935 24.0944V24.5457C57.9935 24.8706 57.8912 25.1293 57.6867 25.3218C57.4821 25.5143 57.2113 25.6106 56.8744 25.6106C56.5375 25.6106 56.2667 25.5143 56.0622 25.3218C55.8696 25.1293 55.7734 24.8706 55.7734 24.5457V13.752C55.7734 13.4391 55.8757 13.1864 56.0802 12.9939C56.2968 12.8013 56.5736 12.7051 56.9105 12.7051C57.2474 12.7051 57.5182 12.7953 57.7227 12.9758C57.9273 13.1563 58.0296 13.403 58.0296 13.7159V17.9756C58.2943 17.4943 58.6734 17.1273 59.1667 16.8746C59.6601 16.6098 60.2196 16.4775 60.8453 16.4775ZM60.2497 23.9139C60.9597 23.9139 61.5132 23.6612 61.9103 23.1559C62.3074 22.6505 62.5059 21.9405 62.5059 21.026C62.5059 20.1235 62.3074 19.4316 61.9103 18.9503C61.5252 18.4689 60.9717 18.2283 60.2497 18.2283C59.5277 18.2283 58.9682 18.475 58.5711 18.9683C58.186 19.4496 57.9935 20.1476 57.9935 21.0621C57.9935 21.9766 58.186 22.6805 58.5711 23.1739C58.9682 23.6673 59.5277 23.9139 60.2497 23.9139Z" fill="white"/>
<path d="M71.6857 16.4775C72.4559 16.4775 73.1357 16.664 73.7254 17.037C74.315 17.41 74.7722 17.9395 75.0971 18.6254C75.4341 19.3113 75.6025 20.1115 75.6025 21.026C75.6025 21.9405 75.4341 22.7527 75.0971 23.4627C74.7722 24.1606 74.309 24.7021 73.7073 25.0872C73.1177 25.4722 72.4438 25.6648 71.6857 25.6648C71.048 25.6648 70.4764 25.5264 69.971 25.2496C69.4777 24.9729 69.0986 24.5878 68.8339 24.0944V24.5457C68.8339 24.8706 68.7316 25.1293 68.527 25.3218C68.3225 25.5143 68.0517 25.6106 67.7148 25.6106C67.3779 25.6106 67.1071 25.5143 66.9026 25.3218C66.71 25.1293 66.6138 24.8706 66.6138 24.5457V13.752C66.6138 13.4391 66.7161 13.1864 66.9206 12.9939C67.1372 12.8013 67.414 12.7051 67.7509 12.7051C68.0878 12.7051 68.3586 12.7953 68.5631 12.9758C68.7677 13.1563 68.87 13.403 68.87 13.7159V17.9756C69.1347 17.4943 69.5138 17.1273 70.0071 16.8746C70.5005 16.6098 71.06 16.4775 71.6857 16.4775ZM71.0901 23.9139C71.8001 23.9139 72.3536 23.6612 72.7507 23.1559C73.1478 22.6505 73.3463 21.9405 73.3463 21.026C73.3463 20.1235 73.1478 19.4316 72.7507 18.9503C72.3656 18.4689 71.8121 18.2283 71.0901 18.2283C70.3681 18.2283 69.8086 18.475 69.4115 18.9683C69.0264 19.4496 68.8339 20.1476 68.8339 21.0621C68.8339 21.9766 69.0264 22.6805 69.4115 23.1739C69.8086 23.6673 70.3681 23.9139 71.0901 23.9139Z" fill="white"/>
<path d="M78.5733 25.6287C78.2484 25.6287 77.9776 25.5384 77.761 25.3579C77.5565 25.1654 77.4542 24.8946 77.4542 24.5457V13.77C77.4542 13.421 77.5565 13.1563 77.761 12.9758C77.9776 12.7953 78.2484 12.7051 78.5733 12.7051C78.8981 12.7051 79.1689 12.7953 79.3855 12.9758C79.6021 13.1563 79.7104 13.421 79.7104 13.77V24.5457C79.7104 24.8946 79.6021 25.1654 79.3855 25.3579C79.1689 25.5384 78.8981 25.6287 78.5733 25.6287Z" fill="white"/>
<path d="M89.0223 23.1017C89.2269 23.1017 89.3893 23.1799 89.5097 23.3364C89.642 23.4928 89.7082 23.7034 89.7082 23.9681C89.7082 24.3411 89.4856 24.654 89.0404 24.9067C88.6313 25.1353 88.168 25.3218 87.6506 25.4662C87.1331 25.5986 86.6398 25.6648 86.1705 25.6648C84.7506 25.6648 83.6255 25.2556 82.7952 24.4374C81.9649 23.6191 81.5498 22.5 81.5498 21.0801C81.5498 20.1777 81.7303 19.3775 82.0913 18.6795C82.4522 17.9816 82.9576 17.4401 83.6074 17.0551C84.2692 16.67 85.0153 16.4775 85.8456 16.4775C86.6398 16.4775 87.3317 16.6519 87.9213 17.0009C88.5109 17.3499 88.9682 17.8432 89.2931 18.481C89.618 19.1187 89.7804 19.8708 89.7804 20.7372C89.7804 21.2546 89.5518 21.5133 89.0945 21.5133H83.7699C83.8421 22.3436 84.0767 22.9573 84.4738 23.3544C84.8709 23.7395 85.4485 23.932 86.2066 23.932C86.5916 23.932 86.9286 23.8839 87.2174 23.7876C87.5182 23.6913 87.8551 23.559 88.2281 23.3905C88.5891 23.198 88.8539 23.1017 89.0223 23.1017ZM85.8997 18.0658C85.286 18.0658 84.7927 18.2584 84.4197 18.6434C84.0587 19.0285 83.8421 19.582 83.7699 20.304H87.8491C87.825 19.57 87.6445 19.0165 87.3076 18.6434C86.9707 18.2584 86.5014 18.0658 85.8997 18.0658Z" fill="white"/>
</g>
<g clip-path="url(#clip0)">
<g filter="url(#filter1_d)">
<path d="M17.2326 4.52589C18.1072 3.67974 19.4954 3.67974 20.37 4.5259L21.913 6.01855C22.4132 6.50242 23.1086 6.72839 23.7977 6.63093L25.9233 6.33027C27.1283 6.15983 28.2513 6.97575 28.4616 8.17443L28.8325 10.2889C28.9527 10.9744 29.3826 11.566 29.9973 11.8922L31.8937 12.8983C32.9687 13.4687 33.3977 14.7889 32.8632 15.8822L31.9204 17.8109C31.6148 18.4362 31.6148 19.1674 31.9204 19.7926L32.8632 21.7213C33.3977 22.8147 32.9687 24.1348 31.8937 24.7052L29.9973 25.7114C29.3826 26.0376 28.9527 26.6292 28.8325 27.3146L28.4616 29.4291C28.2513 30.6278 27.1283 31.4437 25.9233 31.2733L23.7977 30.9726C23.1086 30.8752 22.4132 31.1012 21.913 31.585L20.37 33.0777C19.4954 33.9238 18.1072 33.9238 17.2326 33.0777L15.6896 31.585C15.1894 31.1012 14.494 30.8752 13.8049 30.9726L11.6793 31.2733C10.4743 31.4437 9.35127 30.6278 9.14101 29.4291L8.77009 27.3146C8.64986 26.6292 8.22003 26.0376 7.60528 25.7114L5.70888 24.7052C4.63385 24.1348 4.2049 22.8147 4.73935 21.7213L5.68215 19.7926C5.98778 19.1674 5.98778 18.4362 5.68215 17.8109L4.73935 15.8822C4.2049 14.7889 4.63385 13.4687 5.70888 12.8983L7.60528 11.8922C8.22003 11.566 8.64986 10.9744 8.77009 10.2889L9.14101 8.17443C9.35127 6.97575 10.4743 6.15983 11.6793 6.33027L13.8049 6.63093C14.494 6.72839 15.1894 6.50242 15.6896 6.01855L17.2326 4.52589Z" fill="white"/>
<circle cx="13.5377" cy="17.2975" r="3.76035" fill="#FFC5AF"/>
<circle cx="24.067" cy="17.2975" r="3.76035" fill="#FFC5AF"/>
<circle cx="13.5375" cy="17.2977" r="2.25621" fill="white"/>
<circle cx="24.0668" cy="17.2977" r="2.25621" fill="white"/>
<path fill-rule="evenodd" clip-rule="evenodd" d="M15.6077 22.562C15.0887 22.562 14.7308 23.0784 15.0136 23.5136C15.8182 24.7516 17.2135 25.5703 18.7999 25.5703C20.3864 25.5703 21.7816 24.7516 22.5862 23.5136C22.869 23.0784 22.5111 22.562 21.9921 22.562H21.8395C21.5711 22.562 21.3286 22.7099 21.1623 22.9206C20.6114 23.6183 19.7579 24.0662 18.7999 24.0662C17.8419 24.0662 16.9885 23.6183 16.4376 22.9206C16.2712 22.7099 16.0288 22.562 15.7603 22.562H15.6077Z" fill="#FFC5AF"/>
<rect x="9.77734" y="12.7852" width="18.8018" height="4.51242" fill="white"/>
</g>
</g>
<defs>
<filter id="filter0_d" x="38.6621" y="10.7051" width="55.1183" height="20.9777" filterUnits="userSpaceOnUse" color-interpolation-filters="sRGB">
<feFlood flood-opacity="0" result="BackgroundImageFix"/>
<feColorMatrix in="SourceAlpha" type="matrix" values="0 0 0 0 0 0 0 0 0 0 0 0 0 0 0 0 0 0 127 0"/>
<feOffset dy="2"/>
<feGaussianBlur stdDeviation="2"/>
<feColorMatrix type="matrix" values="0 0 0 0 0.933333 0 0 0 0 0.649444 0 0 0 0 0.674792 0 0 0 1 0"/>
<feBlend mode="normal" in2="BackgroundImageFix" result="effect1_dropShadow"/>
<feBlend mode="normal" in="SourceGraphic" in2="effect1_dropShadow" result="shape"/>
</filter>
<filter id="filter1_d" x="0.509766" y="1.89111" width="36.5832" height="37.821" filterUnits="userSpaceOnUse" color-interpolation-filters="sRGB">
<feFlood flood-opacity="0" result="BackgroundImageFix"/>
<feColorMatrix in="SourceAlpha" type="matrix" values="0 0 0 0 0 0 0 0 0 0 0 0 0 0 0 0 0 0 127 0"/>
<feOffset dy="2"/>
<feGaussianBlur stdDeviation="2"/>
<feColorMatrix type="matrix" values="0 0 0 0 0.933333 0 0 0 0 0.649444 0 0 0 0 0.674792 0 0 0 1 0"/>
<feBlend mode="normal" in2="BackgroundImageFix" result="effect1_dropShadow"/>
<feBlend mode="normal" in="SourceGraphic" in2="effect1_dropShadow" result="shape"/>
</filter>
<clipPath id="clip0">
<rect width="37.6035" height="37.6035" fill="white"/>
</clipPath>
</defs>
</svg>
