<svg width="298" height="202" viewBox="0 0 298 202" fill="none" xmlns="http://www.w3.org/2000/svg">
<g clip-path="url(#clip0)">
<path d="M155.286 42.9126L172.853 73.023L131.114 44.0992L146.641 39.4895C149.967 38.502 153.537 39.9158 155.286 42.9126Z" fill="#402241"/>
<g filter="url(#filter0_d)">
<path d="M166.451 65.0512C184.827 83.6445 213.292 102.255 248.423 144.913C261.356 160.617 283.553 188.199 283.553 228.975C272.272 253.648 206.651 276.343 193.56 288.831C152.06 218.111 53.8208 136.763 9.88889 104.929L32.2374 49.9368L69.362 56.2392L46.5765 28.2758L77.6194 1.40609L166.451 65.0512Z" fill="#813460"/>
<path d="M166.451 65.0512C184.827 83.6445 213.292 102.255 248.423 144.913C261.356 160.617 283.553 188.199 283.553 228.975C272.272 253.648 206.651 276.343 193.56 288.831C152.06 218.111 53.8208 136.763 9.88889 104.929L32.2374 49.9368L69.362 56.2392L46.5765 28.2758L77.6194 1.40609L166.451 65.0512Z" fill="url(#paint0_linear)"/>
</g>
<path d="M114.002 73.7359C126.149 63.3766 158.686 66.7317 170.007 68.3788C154.633 53.0085 106.385 20.021 83.0345 2.93389C80.2371 0.886894 76.4157 0.972647 73.7322 3.16674L47.4841 24.6278C43.9418 27.524 43.7811 32.8844 47.1434 35.9876L64.929 52.4029C65.8665 53.2681 65.0644 54.8178 63.8166 54.552L37.4295 48.9299C30.7057 47.4973 23.7118 50.0874 20.0391 55.8989C14.0094 65.4398 7.68716 77.4198 3.51179 89.0817C1.12939 95.7358 3.93634 102.911 9.58413 107.16C36.7581 127.604 78.4005 162.073 94.2647 175.004C106.507 177.358 111.861 155.048 111.832 151.075C111.802 147.102 98.8183 86.685 114.002 73.7359Z" fill="#402241"/>
<path d="M114.002 73.7359C126.149 63.3766 158.686 66.7317 170.007 68.3788C154.633 53.0085 106.385 20.021 83.0345 2.93389C80.2371 0.886894 76.4157 0.972647 73.7322 3.16674L47.4841 24.6278C43.9418 27.524 43.7811 32.8844 47.1434 35.9876L64.929 52.4029C65.8665 53.2681 65.0644 54.8178 63.8166 54.552L37.4295 48.9299C30.7057 47.4973 23.7118 50.0874 20.0391 55.8989C14.0094 65.4398 7.68716 77.4198 3.51179 89.0817C1.12939 95.7358 3.93634 102.911 9.58413 107.16C36.7581 127.604 78.4005 162.073 94.2647 175.004C106.507 177.358 111.861 155.048 111.832 151.075C111.802 147.102 98.8183 86.685 114.002 73.7359Z" fill="url(#paint1_radial)"/>
</g>
<defs>
<filter id="filter0_d" x="3.0941" y="1.40601" width="296.248" height="312.518" filterUnits="userSpaceOnUse" color-interpolation-filters="sRGB">
<feFlood flood-opacity="0" result="BackgroundImageFix"/>
<feColorMatrix in="SourceAlpha" type="matrix" values="0 0 0 0 0 0 0 0 0 0 0 0 0 0 0 0 0 0 127 0"/>
<feOffset dx="4.49735" dy="13.8012"/>
<feGaussianBlur stdDeviation="5.64596"/>
<feColorMatrix type="matrix" values="0 0 0 0 0 0 0 0 0 0 0 0 0 0 0 0 0 0 0.25 0"/>
<feBlend mode="normal" in2="BackgroundImageFix" result="effect1_dropShadow"/>
<feBlend mode="normal" in="SourceGraphic" in2="effect1_dropShadow" result="shape"/>
</filter>
<linearGradient id="paint0_linear" x1="87.1356" y1="72.9369" x2="230.978" y2="258.126" gradientUnits="userSpaceOnUse">
<stop stop-color="#813460"/>
<stop offset="1" stop-color="#5B1F5C"/>
</linearGradient>
<radialGradient id="paint1_radial" cx="0" cy="0" r="1" gradientUnits="userSpaceOnUse" gradientTransform="translate(57.0875 -28.0418) rotate(82.3381) scale(141.155 142.671)">
<stop stop-color="#FFB5A6" stop-opacity="0.72"/>
<stop offset="1" stop-color="#402241" stop-opacity="0"/>
</radialGradient>
<clipPath id="clip0">
<rect width="297.354" height="202" fill="white"/>
</clipPath>
</defs>
</svg>
