<svg width="305" height="371" viewBox="0 0 305 371" fill="none" xmlns="http://www.w3.org/2000/svg">
<g clip-path="url(#clip0)">
<path d="M128.491 136.654L113.273 150.739C117.193 176.2 121.479 230.125 112.393 245.432C84.7872 291.942 97.048 362.524 97.309 373.027L281.736 383.432C263.048 342.927 251.448 238.781 254.985 212.716C261.08 212.657 264.039 203.484 266.01 185.836C267.587 171.718 258.281 154.366 253.43 147.455L128.491 136.654Z" fill="#390C2E"/>
<path d="M128.491 136.654L113.273 150.739C117.193 176.2 121.479 230.125 112.393 245.432C84.7872 291.942 97.048 362.524 97.309 373.027L281.736 383.432C263.048 342.927 251.448 238.781 254.985 212.716C261.08 212.657 264.039 203.484 266.01 185.836C267.587 171.718 258.281 154.366 253.43 147.455L128.491 136.654Z" fill="url(#paint0_radial)"/>
<path d="M264.59 39.547C251.08 31.2687 241.022 29.5988 237.682 29.7986L234.594 29.0213C245.453 23.278 247.245 15.958 248.242 6.29009C248.287 5.85479 248.092 5.4287 247.733 5.1778L242.803 1.7281C242.303 1.37786 241.623 1.45376 241.201 1.89599C238.073 5.17895 231.959 10.6314 227.625 11.1717C218.333 12.3301 206.779 -0.562758 192.497 5.01213C188.66 6.51008 185.681 9.51339 185.556 12.9547C185.432 16.3959 214.033 30.1429 228.349 36.5863L231.024 66.1338L240.19 65.8885C247.917 66.7117 241.939 74.6366 269.321 74.6845C283.51 74.7094 297.187 51.6818 302.758 38.3617C303.027 37.7185 302.787 36.9816 302.201 36.6051L296.841 33.165C296.22 32.7665 295.404 32.8961 294.906 33.441C289.593 39.2593 277.368 47.3761 264.59 39.547Z" fill="#18113A"/>
<path fill-rule="evenodd" clip-rule="evenodd" d="M167.141 284.608C167.838 281.636 166.252 262.479 165.372 253.273L189.161 254.871C188.96 253.346 189.641 250.329 193.979 250.458C197.961 250.577 204.879 253.615 208.591 255.489C208.819 255.604 209.052 255.331 208.903 255.123L202.68 246.445C201.961 245.442 201.763 244.156 202.146 242.983L216.227 199.881C216.995 197.531 218.492 195.486 220.501 194.044L225.156 190.704C226.04 190.07 225.696 189.14 224.637 189.391C223.352 189.696 221.561 190.209 219.106 191.068C212.349 193.432 188.13 196.031 168.345 187.721C158.091 183.414 152.389 176.562 149.423 169.867C149.402 170.673 149.384 171.508 149.365 172.376L149.365 172.377C149.342 173.465 149.318 174.602 149.285 175.795C149.098 182.488 148.62 190.628 146.334 200.597C146.154 201.379 145.374 201.868 144.592 201.689C143.809 201.509 143.321 200.729 143.5 199.947C145.726 190.242 146.195 182.315 146.379 175.714C146.41 174.592 146.433 173.5 146.455 172.438C146.535 168.576 146.607 165.109 147.052 162.037C147.049 162.019 147.046 162.002 147.043 161.984C146.638 162.477 146.154 162.976 145.603 163.467C143.953 166.655 142.07 170.781 140.531 175.169C138.373 181.323 136.966 187.786 137.653 192.862C137.761 193.657 137.203 194.389 136.408 194.497C135.612 194.605 134.88 194.047 134.772 193.252C133.99 187.474 135.59 180.473 137.788 174.207C138.742 171.487 139.822 168.866 140.904 166.491C136.113 168.67 129.836 169.191 124.519 164.577C116.286 157.432 121.15 148.381 121.15 148.381L152.821 142.177L251.695 149.441L262.141 170.848L261.53 194.464L256.905 209.476C254.082 221.339 251.12 245.142 251.928 262.877C252.805 282.152 262.628 362.63 265.184 374.221L207.486 372.464C201.088 342.751 204.406 312.678 206.378 294.8L206.378 294.8C206.954 289.579 207.416 285.398 207.486 282.57C200.132 290.708 175.18 290.176 163.624 288.893C164.507 288.703 166.445 287.581 167.141 284.608Z" fill="#4C1038"/>
<path fill-rule="evenodd" clip-rule="evenodd" d="M167.141 284.608C167.838 281.636 166.252 262.479 165.372 253.273L189.161 254.871C188.96 253.346 189.641 250.329 193.979 250.458C197.961 250.577 204.879 253.615 208.591 255.489C208.819 255.604 209.052 255.331 208.903 255.123L202.68 246.445C201.961 245.442 201.763 244.156 202.146 242.983L216.227 199.881C216.995 197.531 218.492 195.486 220.501 194.044L225.156 190.704C226.04 190.07 225.696 189.14 224.637 189.391C223.352 189.696 221.561 190.209 219.106 191.068C212.349 193.432 188.13 196.031 168.345 187.721C158.091 183.414 152.389 176.562 149.423 169.867C149.402 170.673 149.384 171.508 149.365 172.376L149.365 172.377C149.342 173.465 149.318 174.602 149.285 175.795C149.098 182.488 148.62 190.628 146.334 200.597C146.154 201.379 145.374 201.868 144.592 201.689C143.809 201.509 143.321 200.729 143.5 199.947C145.726 190.242 146.195 182.315 146.379 175.714C146.41 174.592 146.433 173.5 146.455 172.438C146.535 168.576 146.607 165.109 147.052 162.037C147.049 162.019 147.046 162.002 147.043 161.984C146.638 162.477 146.154 162.976 145.603 163.467C143.953 166.655 142.07 170.781 140.531 175.169C138.373 181.323 136.966 187.786 137.653 192.862C137.761 193.657 137.203 194.389 136.408 194.497C135.612 194.605 134.88 194.047 134.772 193.252C133.99 187.474 135.59 180.473 137.788 174.207C138.742 171.487 139.822 168.866 140.904 166.491C136.113 168.67 129.836 169.191 124.519 164.577C116.286 157.432 121.15 148.381 121.15 148.381L152.821 142.177L251.695 149.441L262.141 170.848L261.53 194.464L256.905 209.476C254.082 221.339 251.12 245.142 251.928 262.877C252.805 282.152 262.628 362.63 265.184 374.221L207.486 372.464C201.088 342.751 204.406 312.678 206.378 294.8L206.378 294.8C206.954 289.579 207.416 285.398 207.486 282.57C200.132 290.708 175.18 290.176 163.624 288.893C164.507 288.703 166.445 287.581 167.141 284.608Z" fill="url(#paint1_radial)"/>
<path d="M266.927 186.132C269.362 168.809 258.661 152.874 253.006 147.071L251.311 149.864C253.953 154.74 259.392 166.693 260.011 175.498C260.63 184.303 257.121 193.223 255.289 196.583L256.641 199.016C257.641 200.815 257.908 202.929 257.388 204.92L256.463 208.46C256.391 208.736 255.985 208.683 255.986 208.399L255.993 204.918C255.996 203.595 255.028 202.47 253.719 202.277L253.383 202.227C253.108 202.186 252.684 202.808 252.734 203.082C253.22 205.768 251.563 213.923 242.936 233.516C232.278 257.722 216.93 273.238 209.311 279.012C208.668 279.499 208.739 280.508 209.458 280.872C209.842 281.066 210.304 281.011 210.626 280.726C213.718 277.989 221.156 270.935 230.227 260.947C239.871 250.33 247.276 234.853 249.773 228.442C248.617 234.09 248.024 248.915 248.181 265.537C248.643 314.377 258.148 362.185 260.011 371.965L288.217 373.71C272.295 344.925 255.508 220 256.575 212.79C260.081 210.746 263.882 207.785 266.927 186.132Z" fill="#C04FAE"/>
<path d="M233.495 82.9982C231.695 91.7015 229.778 118.22 229.044 130.392C219.636 138.77 198.256 156.172 188.007 158.756C175.195 161.986 160.619 159.828 157.129 158.511C154.338 157.457 156.879 151.907 158.498 149.263L154.278 150.721L161.781 133.572L162.406 116.365L143.123 91.8882L127.516 85.1647L142.737 75.0129L148.203 57.5619L149.302 30.6551C149.302 30.6551 150.211 14.7723 177.181 16.5212C204.152 18.2702 226.878 34.4152 233.367 41.6543C241.478 50.7032 235.746 72.1191 233.495 82.9982Z" fill="#68284D"/>
<path d="M176.693 94.4608L169.791 83.6502C169.635 83.4064 169.513 83.143 169.427 82.867L169.183 82.0872C168.71 80.5751 169.703 78.9988 171.271 78.7722C172.302 78.6232 173.322 79.1111 173.853 80.008L174.905 81.7852C175.393 82.6085 176.081 83.2947 176.906 83.7798L184.485 88.238L191.85 91.391C196.765 93.4953 202.456 92.5275 206.4 88.9171L208.365 87.1178C216.144 79.9957 228.696 85.2414 229.094 95.7807C229.156 97.413 228.435 98.9768 227.153 99.9896L214.682 109.845L213.302 110.936C206.179 116.565 195.787 115.034 190.59 107.59C189.457 105.967 188.029 104.572 186.38 103.478L183.996 101.895C181.07 99.9531 178.582 97.4208 176.693 94.4608Z" fill="#5F1F47"/>
<path d="M140.348 42.4635C141.602 42.6491 145.572 40.3535 147.401 39.1825L147.588 50.903C146.526 51.2263 143.985 51.8753 142.318 51.8849C140.234 51.8968 137.18 48.7219 136.035 44.5482C134.891 40.3745 138.781 42.2316 140.348 42.4635Z" fill="#68284D"/>
<path d="M151.472 49.5557C151.472 49.5557 152.581 51.8022 152.326 53.5263L151.769 57.2881L150.939 57.4856C150.479 55.5487 149.867 51.5287 148.599 50.5722C147.014 49.3766 146.764 45.6556 147.803 44.0473C147.966 47.2749 150.317 49.0644 151.472 49.5557Z" fill="#864769"/>
<path d="M239.075 28.6263C237.483 27.0417 231.719 27.7304 231.127 28.0282L226.218 34.0466L226.265 57.1786L231.667 65.1083L238.28 66.0869C239.114 66.2104 241.174 65.783 242.742 63.0859C244.31 60.3887 243.645 56.9885 243.116 55.6255C244.257 55.7301 246.638 55.029 247.031 51.3871C247.424 47.7452 245.85 44.1463 245.014 42.8021C246.155 42.9068 248.219 42.1203 247.348 38.1371C246.476 34.1539 242.52 32.091 240.65 31.5574C240.656 31.1085 240.349 29.8939 239.075 28.6263Z" fill="#68284D"/>
<path d="M235.544 72.4094C236.795 68.6436 237.921 59.5948 232.412 53.5259" stroke="#CC4A62" stroke-width="2.90707"/>
<path fill-rule="evenodd" clip-rule="evenodd" d="M210.934 70.1533L210.39 69.4661C209.846 68.7776 210.425 67.7782 211.293 67.9067L214.813 68.4278C215.343 68.5061 215.836 68.1404 215.914 67.611L216.165 65.9122C216.259 65.2783 216.931 64.9084 217.517 65.1685L220.921 66.6798C221.393 66.8892 221.946 66.6923 222.179 66.2319L223.069 64.4741C223.335 63.948 224.006 63.7798 224.489 64.1179L226.79 65.7282C227.249 66.0493 227.883 65.9157 228.174 65.437L228.688 64.5897C229.015 64.0508 229.762 63.9627 230.205 64.4107L231.278 65.4944C231.668 65.8882 232.335 65.7404 232.522 65.2187C232.712 64.6894 233.399 64.542 233.806 64.9301C234.514 65.6059 235.462 66.4447 236.472 67.2015C237.353 67.5495 238.166 67.9882 238.892 68.5296C246.528 74.2257 254.321 73.1691 259.998 72.3995C260.985 72.2657 261.908 72.1405 262.755 72.0611C268.474 71.5244 271.508 74.5667 271.518 80.1009C271.529 85.635 264.146 93.4465 246.562 94.0429C223.977 94.809 218.613 85.7385 213.829 77.6513C212.381 75.2025 210.986 72.8439 209.182 70.8758C209.717 70.6432 210.303 70.4005 210.934 70.1533Z" fill="#7E305C"/>
<path fill-rule="evenodd" clip-rule="evenodd" d="M210.934 70.1533L210.39 69.4661C209.846 68.7776 210.425 67.7782 211.293 67.9067L214.813 68.4278C215.343 68.5061 215.836 68.1404 215.914 67.611L216.165 65.9122C216.259 65.2783 216.931 64.9084 217.517 65.1685L220.921 66.6798C221.393 66.8892 221.946 66.6923 222.179 66.2319L223.069 64.4741C223.335 63.948 224.006 63.7798 224.489 64.1179L226.79 65.7282C227.249 66.0493 227.883 65.9157 228.174 65.437L228.688 64.5897C229.015 64.0508 229.762 63.9627 230.205 64.4107L231.278 65.4944C231.668 65.8882 232.335 65.7404 232.522 65.2187C232.712 64.6894 233.399 64.542 233.806 64.9301C234.514 65.6059 235.462 66.4447 236.472 67.2015C237.353 67.5495 238.166 67.9882 238.892 68.5296C246.528 74.2257 254.321 73.1691 259.998 72.3995C260.985 72.2657 261.908 72.1405 262.755 72.0611C268.474 71.5244 271.508 74.5667 271.518 80.1009C271.529 85.635 264.146 93.4465 246.562 94.0429C223.977 94.809 218.613 85.7385 213.829 77.6513C212.381 75.2025 210.986 72.8439 209.182 70.8758C209.717 70.6432 210.303 70.4005 210.934 70.1533Z" fill="url(#paint2_linear)"/>
<path d="M213.303 105.797C211.316 108.835 195.555 105.947 190.449 106.9C192.985 124.137 177.975 122.73 162.163 125.939L161.155 142.128C158.49 146.432 153.8 155.679 156.369 158.238C158.937 160.796 168.62 160.958 173.14 160.72C174.128 152.964 179.569 136.972 193.436 135.052C207.303 133.132 222.924 121.957 229.001 116.61C229.428 113.363 230.429 103.719 231.012 91.1192C234.652 93.58 245.27 94.3504 255.701 92.05C266.132 89.7496 273.364 82.0102 267.216 79.1783C261.068 76.3464 238.906 85.4 231.562 84.153C225.687 83.1555 215.997 74.9621 211.887 70.9901L211.329 70.4271C210.294 69.8468 208.048 69.6532 207.347 73.5218C206.647 77.3905 212.637 82.1532 215.72 84.051C215.742 90.0341 215.29 102.76 213.303 105.797Z" fill="#5F1F47"/>
<path d="M213.303 105.797C211.316 108.835 195.555 105.947 190.449 106.9C192.985 124.137 177.975 122.73 162.163 125.939L161.155 142.128C158.49 146.432 153.8 155.679 156.369 158.238C158.937 160.796 168.62 160.958 173.14 160.72C174.128 152.964 179.569 136.972 193.436 135.052C207.303 133.132 222.924 121.957 229.001 116.61C229.428 113.363 230.429 103.719 231.012 91.1192C234.652 93.58 245.27 94.3504 255.701 92.05C266.132 89.7496 273.364 82.0102 267.216 79.1783C261.068 76.3464 238.906 85.4 231.562 84.153C225.687 83.1555 215.997 74.9621 211.887 70.9901L211.329 70.4271C210.294 69.8468 208.048 69.6532 207.347 73.5218C206.647 77.3905 212.637 82.1532 215.72 84.051C215.742 90.0341 215.29 102.76 213.303 105.797Z" fill="url(#paint3_linear)"/>
<g filter="url(#filter0_d)">
<path d="M149.861 31.2176C147.975 31.8356 147.573 30.0782 147.608 29.1223C146.091 27.83 149.79 23.038 154.938 19.6357C165.901 12.3916 182.053 10.6742 197.86 13.1737C213.668 15.6733 236.548 33.1547 238.726 36.8405C240.903 40.5264 240.388 49.4199 234.578 55.1272C228.768 60.8346 218.371 60.7372 206.516 52.0955C197.352 45.4158 187.687 31.0492 171.327 26.8663C154.968 22.6833 152.217 30.4452 149.861 31.2176Z" fill="#CC4A62"/>
</g>
<path d="M148.941 22.2724L148.988 26.2837C149.855 21.8737 163.865 17.7566 176.237 21.827C201.897 30.2694 205.382 45.6815 220.935 49.9052C236.487 54.1288 246.179 38.4245 233.511 26.6189C220.842 14.8133 198.799 8.98844 178.354 10.768C161.998 12.1916 151.961 18.8218 148.941 22.2724Z" fill="#CC6779"/>
<path d="M148.941 22.2724L148.988 26.2837C149.855 21.8737 163.865 17.7566 176.237 21.827C201.897 30.2694 205.382 45.6815 220.935 49.9052C236.487 54.1288 246.179 38.4245 233.511 26.6189C220.842 14.8133 198.799 8.98844 178.354 10.768C161.998 12.1916 151.961 18.8218 148.941 22.2724Z" fill="url(#paint4_linear)"/>
<path d="M253.389 150.973C262.438 142.861 263.544 127.809 260.367 113.563C258.648 105.856 249.869 99.2242 241.683 94.7795C237.137 94.1068 235.187 94.3002 231.071 92.8901C230.948 98.0508 230.387 107.685 228.712 116.407C222.571 121.104 181.926 133.83 174.066 137.151C166.206 140.473 167.819 153.038 171.701 161.788C176.265 172.074 185.575 177.353 191.348 176.229C199.924 174.558 244.34 159.084 253.389 150.973Z" fill="#87459F"/>
<path d="M253.389 150.973C262.438 142.861 263.544 127.809 260.367 113.563C258.648 105.856 249.869 99.2242 241.683 94.7795C237.137 94.1068 235.187 94.3002 231.071 92.8901C230.948 98.0508 230.387 107.685 228.712 116.407C222.571 121.104 181.926 133.83 174.066 137.151C166.206 140.473 167.819 153.038 171.701 161.788C176.265 172.074 185.575 177.353 191.348 176.229C199.924 174.558 244.34 159.084 253.389 150.973Z" fill="url(#paint5_linear)"/>
<path d="M236.627 107.131C237.308 112.41 231.864 114.952 228.608 116.392C228.608 116.392 229.53 111.242 230.063 107.637C230.597 104.032 230.846 99.1038 230.846 99.1038C232.549 99.5356 235.945 101.852 236.627 107.131Z" fill="#772E92"/>
<path d="M224.14 28.7877C224.762 28.3941 224.946 27.5709 224.553 26.9492C224.159 26.3275 223.336 26.1425 222.714 26.5361L224.14 28.7877ZM203.332 19.2198C203.904 18.7567 203.992 17.9177 203.529 17.3458C203.066 16.7739 202.227 16.6856 201.655 17.1486L203.332 19.2198ZM222.714 26.5361C220.705 27.8084 217.208 28.5474 213.486 28.4912C209.769 28.4351 206.178 27.591 203.964 26.0416L202.436 28.2252C205.268 30.2066 209.471 31.0958 213.446 31.1557C217.415 31.2156 221.508 30.4535 224.14 28.7877L222.714 26.5361ZM203.964 26.0416C201.748 24.4919 201.436 23.0835 201.574 22.0831C201.733 20.9275 202.554 19.8497 203.332 19.2198L201.655 17.1486C200.566 18.0306 199.217 19.662 198.934 21.7203C198.629 23.9338 199.604 26.2441 202.436 28.2252L203.964 26.0416Z" fill="#E68F8F"/>
<path fill-rule="evenodd" clip-rule="evenodd" d="M180.451 12.461C180.558 13.1529 180.083 13.8004 179.392 13.9072C177.752 14.1605 176.137 14.5848 174.499 15.0533C174.108 15.1653 173.713 15.2804 173.316 15.3963C172.075 15.7582 170.812 16.1266 169.566 16.4231C166.245 17.2132 162.637 17.4114 158.724 15.7111C160.107 15.0233 160.767 14.8923 162.131 14.3364C164.347 14.793 166.585 14.5263 168.979 13.9568C170.158 13.6764 171.334 13.3333 172.559 12.976C172.968 12.857 173.381 12.7363 173.802 12.6159C175.462 12.1409 177.202 11.6802 179.005 11.4018C179.696 11.2949 180.344 11.7691 180.451 12.461Z" fill="#EBBFBF"/>
<path d="M215.523 74.5713C215.533 74.5757 215.544 74.5832 215.555 74.5937C219.462 77.3553 225.676 83.2327 231.961 84.1628C235.803 84.7314 240.812 83.2163 244.637 82.4036L252.836 84.7066L248.274 87.2132L253.266 87.9521C249.178 89.3091 238.86 91.229 230.292 88.052C219.782 84.1548 216.17 75.1497 215.555 74.5937C215.545 74.5862 215.534 74.5787 215.523 74.5713Z" fill="url(#paint6_linear)"/>
<path d="M267.027 72.9041C262.606 71.6091 253.862 75.2804 250.042 77.278C250.658 79.6115 253.886 79.4484 254.803 79.7444C265.931 77.0665 268.137 79.4753 269.206 80.9148C270.06 82.0664 269.071 83.9915 268.469 84.8101C268.469 84.8101 262.356 93.9964 241.609 93.4888C241.539 93.959 241.66 94.8252 242.074 94.6789C265.509 95.4241 271.273 85.7056 271.952 82.9229C272.607 80.2344 272.554 74.5229 267.027 72.9041Z" fill="#994273"/>
<path d="M267.027 72.9041C262.606 71.6091 253.862 75.2804 250.042 77.278C250.658 79.6115 253.886 79.4484 254.803 79.7444C265.931 77.0665 268.137 79.4753 269.206 80.9148C270.06 82.0664 269.071 83.9915 268.469 84.8101C268.469 84.8101 262.356 93.9964 241.609 93.4888C241.539 93.959 241.66 94.8252 242.074 94.6789C265.509 95.4241 271.273 85.7056 271.952 82.9229C272.607 80.2344 272.554 74.5229 267.027 72.9041Z" fill="url(#paint7_linear)"/>
<path d="M253.999 127.099C258.704 122.955 260.102 118.093 260.794 115.319C261.666 118.436 262.557 125.416 261.994 131.425C261.07 141.265 258.038 145.199 256.452 146.351C253.447 148.534 252.143 144.675 253.999 142.368C250.947 142.368 250.751 137.86 252.661 135.649C249.201 135.014 250.54 130.145 253.999 127.099Z" fill="#BD5ACE"/>
<path d="M218.56 86.8738C216.521 85.9314 216.568 79.0508 216.846 75.7283C219.112 77.7295 224.103 80.8066 226.315 82.095C226.528 82.8206 226.849 84.5447 226.431 85.6361C225.909 87.0004 221.109 88.0518 218.56 86.8738Z" fill="#CC4A62"/>
<path d="M219.781 80.8076C217.941 81.3361 217.333 81.8335 216.815 82.4508C216.522 80.101 216.642 76.7657 216.738 75.3918L226.318 82.0952C224.843 81.2363 222.671 79.9776 219.781 80.8076Z" fill="#A92E44"/>
<path d="M219.781 80.8076C217.941 81.3361 217.333 81.8335 216.815 82.4508C216.522 80.101 216.642 76.7657 216.738 75.3918L226.318 82.0952C224.843 81.2363 222.671 79.9776 219.781 80.8076Z" fill="url(#paint8_linear)"/>
<path d="M173.902 115.904C168.62 107.434 162.37 105.441 159.904 105.504L160.709 128.207L175.094 128.414C176.897 127.773 179.184 124.374 173.902 115.904Z" fill="#5F1F47"/>
<ellipse cx="222.187" cy="85.8258" rx="3.4237" ry="1.10914" transform="rotate(-5.82428 222.187 85.8258)" fill="#A92E44"/>
<rect x="30.0605" y="98.9192" width="7.80424" height="12.2638" transform="rotate(-17.6405 30.0605 98.9192)" fill="#FFF7D9"/>
<rect x="16.7324" y="93.7988" width="21.1829" height="21.1829" rx="1.45353" transform="rotate(-62.6405 16.7324 93.7988)" fill="#FFF7D9"/>
<rect x="24.4336" y="91.3499" width="9.95361" height="9.95361" rx="0.484512" transform="rotate(-62.6405 24.4336 91.3499)" fill="#FF6F66"/>
<path d="M31.325 86.5266L29.4551 90.1406L32.9452 91.8856L34.5656 88.3956L31.325 86.5266Z" fill="#E44C4C"/>
<path d="M31.2 86.5269L28.9564 82.6621L24.5938 91.3873L29.4549 90.1409L31.2 86.5269Z" fill="#FF9898"/>
<rect x="23.082" y="110.085" width="27.8723" height="6.55819" rx="0.726767" transform="rotate(-17.6405 23.082 110.085)" fill="#FFFCF1"/>
<mask id="mask0" mask-type="alpha" maskUnits="userSpaceOnUse" x="0" y="107" width="131" height="156">
<path d="M127.467 180.811C135.416 205.807 127.15 245.362 85.5193 258.601C43.8888 271.839 14.2945 244.323 6.34591 219.328C-6.80908 177.959 4.43419 119.429 37.8809 108.793C71.3275 98.1572 114.312 139.443 127.467 180.811Z" fill="#C4C4C4"/>
</mask>
<g mask="url(#mask0)">
<rect x="-37.457" y="125.731" width="154.97" height="162.774" transform="rotate(-17.6405 -37.457 125.731)" fill="#ABFFEB"/>
<path d="M-1.67773 138.921L12.2281 134.499L16.6295 131.698C19.867 129.638 23.5789 128.442 27.4102 128.226C31.0373 128.022 34.5604 126.939 37.6767 125.072L38.3901 124.645C41.754 122.629 45.5462 121.436 49.4581 121.163L49.7301 121.144C53.5155 120.879 57.1826 119.713 60.4255 117.743C63.9205 115.619 67.9038 114.432 71.9911 114.297L76.1948 114.157L92.8817 108.851L83.0838 78.0395L-11.4757 108.109L-1.67773 138.921Z" fill="#FFF7D9"/>
<path fill-rule="evenodd" clip-rule="evenodd" d="M42.1359 154.806C43.2396 150.52 45.8179 147.214 49.4931 146.046C53.175 144.875 57.197 146.091 60.5768 148.963C61.1831 144.71 63.1815 141.405 66.3565 140.168C69.8228 138.818 73.9237 140.233 77.4656 143.527C77.6122 139.712 78.9686 136.711 81.4975 135.434C84.4456 133.945 88.3337 135.128 91.9661 138.176C91.8842 135.086 92.7181 132.712 94.5243 131.67C98.564 129.339 105.937 134.554 110.993 143.317C111.303 143.854 111.597 144.391 111.874 144.928L116.735 143.382L128.56 180.569L5.31403 219.761L-6.51111 182.574L-2.05406 181.157C-2.13736 180.558 -2.20801 179.95 -2.26521 179.333C-3.19946 169.259 -0.192217 160.743 4.45165 160.313C6.52797 160.12 8.57991 161.577 10.2977 164.146C11.5025 159.56 13.9929 156.348 17.2597 155.861C20.0617 155.443 22.9023 157.109 25.2252 160.138C26.2142 155.404 28.7446 151.881 32.3537 150.981C35.6541 150.158 39.1879 151.695 42.1359 154.806Z" fill="#77D7D7"/>
<path fill-rule="evenodd" clip-rule="evenodd" d="M-5.97988 219.663C-6.01881 219.525 -6.05726 219.387 -6.09519 219.248C-9.45923 206.952 -7.59124 195.726 -1.92292 194.176C1.31858 193.289 5.10094 195.758 8.37463 200.334C9.31455 193.864 12.2641 189.097 16.5927 188.139C20.4742 187.28 24.6429 189.665 28.0459 194.111C29.154 187.707 32.4277 182.886 37.1951 181.697C41.3538 180.66 45.8067 182.597 49.5213 186.516C50.9121 181.117 54.1608 176.952 58.7916 175.479C63.4304 174.004 68.4976 175.535 72.756 179.153C73.5202 173.796 76.0382 169.631 80.0385 168.073C84.6435 166.28 90.1374 168.359 94.7574 173.003C94.9738 167.309 97.0423 162.881 100.766 161.354C104.825 159.689 109.902 161.858 114.333 166.533C114.382 160.96 116.043 156.806 119.181 155.665C124.704 153.657 132.712 161.741 137.068 173.722C137.117 173.858 137.166 173.993 137.214 174.128L143.516 172.124L152.882 201.576L-2.41476 250.96L-11.7807 221.507L-5.97988 219.663Z" fill="#60A5CC"/>
<path fill-rule="evenodd" clip-rule="evenodd" d="M72.9543 219.906C69.1847 221.105 66.4449 224.31 65.0591 228.526C61.2286 225.371 56.9475 224.125 53.3269 225.591C50.0138 226.932 47.8831 230.289 47.1188 234.628C42.9109 231.113 38.4095 229.766 35.0619 231.529C32.5805 232.836 31.1497 235.633 30.7864 239.215C26.6948 236.294 22.7829 235.302 20.3062 236.991C16.3512 239.689 17.4279 248.29 22.547 256.914L10.1897 260.844L18.5197 287.039L156.64 243.117L148.31 216.922L135.761 220.913C134.958 210.916 130.87 203.273 126.083 203.355C123.085 203.407 120.465 206.476 118.812 211.224C116.446 208.509 113.663 207.052 110.882 207.418C107.131 207.913 104.235 211.612 102.83 216.912C99.6999 213.811 96.0217 212.302 92.5426 213.12C88.6739 214.03 85.8684 217.627 84.5938 222.545C80.977 219.784 76.8001 218.684 72.9543 219.906Z" fill="#7E86D0"/>
<path fill-rule="evenodd" clip-rule="evenodd" d="M72.9543 219.906C69.1847 221.105 66.4449 224.31 65.0591 228.526C61.2286 225.371 56.9475 224.125 53.3269 225.591C50.0138 226.932 47.8831 230.289 47.1188 234.628C42.9109 231.113 38.4095 229.766 35.0619 231.529C32.5805 232.836 31.1497 235.633 30.7864 239.215C26.6948 236.294 22.7829 235.302 20.3062 236.991C16.3512 239.689 17.4279 248.29 22.547 256.914L10.1897 260.844L18.5197 287.039L156.64 243.117L148.31 216.922L135.761 220.913C134.958 210.916 130.87 203.273 126.083 203.355C123.085 203.407 120.465 206.476 118.812 211.224C116.446 208.509 113.663 207.052 110.882 207.418C107.131 207.913 104.235 211.612 102.83 216.912C99.6999 213.811 96.0217 212.302 92.5426 213.12C88.6739 214.03 85.8684 217.627 84.5938 222.545C80.977 219.784 76.8001 218.684 72.9543 219.906Z" fill="url(#paint9_linear)"/>
</g>
<path d="M127.311 180.854C135.259 205.849 126.994 245.405 85.363 258.643C43.7325 271.881 14.1383 244.366 6.18966 219.37C-6.96533 178.002 4.27795 119.471 37.7246 108.835C71.1713 98.1995 114.156 139.485 127.311 180.854Z" fill="url(#paint10_linear)" style="mix-blend-mode:overlay"/>
<path d="M127.311 180.854C135.259 205.849 126.994 245.405 85.363 258.643C43.7325 271.881 14.1383 244.366 6.18966 219.37C-6.96533 178.002 4.27795 119.471 37.7246 108.835C71.1713 98.1995 114.156 139.485 127.311 180.854Z" fill="url(#paint11_radial)" style="mix-blend-mode:overlay"/>
<path d="M127.311 180.854C135.259 205.849 126.994 245.405 85.363 258.643C43.7325 271.881 14.1383 244.366 6.18966 219.37C-6.96533 178.002 4.27795 119.471 37.7246 108.835C71.1713 98.1995 114.156 139.485 127.311 180.854Z" fill="url(#paint12_radial)"/>
<g opacity="0.2">
<path d="M37.5393 201.699C23.579 159.07 25.5731 124.792 32.3041 112.452C22.4571 113.325 14.2778 127.784 10.3665 135.013C2.1395 150.22 -10.6987 212.543 23.579 246.073C61.9168 283.574 123.794 243.829 97.8679 248.067C71.9415 252.305 49.8164 239.188 37.5393 201.699Z" fill="#524ABC"/>
<path d="M37.5393 201.699C23.579 159.07 25.5731 124.792 32.3041 112.452C22.4571 113.325 14.2778 127.784 10.3665 135.013C2.1395 150.22 -10.6987 212.543 23.579 246.073C61.9168 283.574 123.794 243.829 97.8679 248.067C71.9415 252.305 49.8164 239.188 37.5393 201.699Z" fill="url(#paint13_linear)"/>
</g>
<path d="M145.682 37.8071C143.867 42.2797 144.304 50.3638 144.75 53.8467C145.114 58.706 144.02 65.2713 141.525 71.3089C139.03 77.3466 129.325 82.3173 123.114 87.4848C116.903 92.6523 117.659 98.3702 117.596 102.045C117.545 104.985 124.634 107.518 128.185 108.417C126.511 108.543 121.852 109.434 116.604 111.989C110.045 115.183 111.749 132.894 112.37 134.107C112.867 135.078 113.73 133.935 114.1 133.242C114.219 137.851 115.803 147.493 121.19 149.187C124.071 157.43 130.058 157.814 132.691 156.976C134.807 158.197 139.667 160.059 142.189 157.741C145.923 160.216 149.553 156.321 150.902 154.065C152.229 154.475 155.364 154.213 157.286 149.884C159.209 149.015 160.123 145.872 160.339 144.41C161.278 144.922 163.61 144.605 165.429 139.236C167.249 133.868 166.918 128.458 166.525 126.424C167.353 126.6 168.608 125.548 167.005 119.928C165.402 114.309 161.715 109.855 160.072 108.331C161.162 108.546 162.888 108.139 161.076 104.795C159.264 101.452 154.771 99.0571 152.75 98.2776L166.396 85.0805C167.172 85.2488 169.401 85.5572 172.108 85.4454C176.103 88.7595 182.129 89.1707 186.848 86.5054C190.623 84.3732 190.967 81.4021 190.667 80.1831C192.027 78.569 194.902 74.7233 195.524 72.2525C198.502 72.6933 202.687 69.3083 202.106 64.5772C201.641 60.7923 199.671 60.1057 198.744 60.2355C200.232 58.4802 202.068 54.2244 197.512 51.2436C192.956 48.2628 186.597 51.7639 183.987 53.887C183.847 53.3859 182.621 52.7239 178.832 54.0852C174.095 55.7868 167.687 62.2037 165.268 73.2209C164.752 75.57 155.583 85.7394 149.848 91.2977C148.778 89.9473 143.455 87.2103 139.924 86.2944C135.199 85.069 132.793 84.884 129.531 84.5614C130.206 83.9672 135.567 82.0345 140.391 78.0073C145.216 73.9801 148.46 71.9111 151.275 66.0079C153.005 62.3788 154.34 58.2566 155.694 53.2136C157.532 46.3666 154.581 37.202 152.851 38.0673C153.413 33.4092 150.461 32.2142 148.915 32.1989C148.593 32.2048 147.497 33.3346 145.682 37.8071Z" fill="#9B5E7F"/>
<path d="M145.682 37.8071C143.867 42.2797 144.304 50.3638 144.75 53.8467C145.114 58.706 144.02 65.2713 141.525 71.3089C139.03 77.3466 129.325 82.3173 123.114 87.4848C116.903 92.6523 117.659 98.3702 117.596 102.045C117.545 104.985 124.634 107.518 128.185 108.417C126.511 108.543 121.852 109.434 116.604 111.989C110.045 115.183 111.749 132.894 112.37 134.107C112.867 135.078 113.73 133.935 114.1 133.242C114.219 137.851 115.803 147.493 121.19 149.187C124.071 157.43 130.058 157.814 132.691 156.976C134.807 158.197 139.667 160.059 142.189 157.741C145.923 160.216 149.553 156.321 150.902 154.065C152.229 154.475 155.364 154.213 157.286 149.884C159.209 149.015 160.123 145.872 160.339 144.41C161.278 144.922 163.61 144.605 165.429 139.236C167.249 133.868 166.918 128.458 166.525 126.424C167.353 126.6 168.608 125.548 167.005 119.928C165.402 114.309 161.715 109.855 160.072 108.331C161.162 108.546 162.888 108.139 161.076 104.795C159.264 101.452 154.771 99.0571 152.75 98.2776L166.396 85.0805C167.172 85.2488 169.401 85.5572 172.108 85.4454C176.103 88.7595 182.129 89.1707 186.848 86.5054C190.623 84.3732 190.967 81.4021 190.667 80.1831C192.027 78.569 194.902 74.7233 195.524 72.2525C198.502 72.6933 202.687 69.3083 202.106 64.5772C201.641 60.7923 199.671 60.1057 198.744 60.2355C200.232 58.4802 202.068 54.2244 197.512 51.2436C192.956 48.2628 186.597 51.7639 183.987 53.887C183.847 53.3859 182.621 52.7239 178.832 54.0852C174.095 55.7868 167.687 62.2037 165.268 73.2209C164.752 75.57 155.583 85.7394 149.848 91.2977C148.778 89.9473 143.455 87.2103 139.924 86.2944C135.199 85.069 132.793 84.884 129.531 84.5614C130.206 83.9672 135.567 82.0345 140.391 78.0073C145.216 73.9801 148.46 71.9111 151.275 66.0079C153.005 62.3788 154.34 58.2566 155.694 53.2136C157.532 46.3666 154.581 37.202 152.851 38.0673C153.413 33.4092 150.461 32.2142 148.915 32.1989C148.593 32.2048 147.497 33.3346 145.682 37.8071Z" fill="url(#paint14_radial)"/>
<path d="M151.562 49.2486C151.562 49.2486 152.68 50.7502 152.494 54.0364C152.309 57.3227 151.465 59.6455 151.465 59.6455L149.846 60.8474C149.385 58.9105 149.957 51.2216 148.689 50.2651C147.104 49.0695 146.853 45.3485 147.892 43.7401C148.055 46.9677 150.407 48.7573 151.562 49.2486Z" fill="#864769"/>
<path d="M175.614 81.455C174.097 80.3366 173.949 77.0046 174.064 75.4785L174.295 73.9163L182.074 78.4959C182.167 78.6161 179.43 79.6368 176.898 78.7773C176.781 80.1648 178.764 80.8569 179.303 81.2028C178.705 81.7528 177.131 82.5734 175.614 81.455Z" fill="#864769"/>
<path d="M148.125 65.4001C149.578 65.0521 150.582 62.2215 151.081 60.7769L151.523 59.2607L146.135 62.5645C145.802 63.3732 146.658 63.454 147.197 64.0578C147.014 64.7641 145.712 64.9773 145.712 64.9773C145.712 64.9773 146.505 65.7881 148.125 65.4001Z" fill="#864769"/>
<g filter="url(#filter1_f)">
<path d="M138.827 122.006C153.688 121.162 155.72 118.259 153.09 115.467C148.664 113.264 140.225 111.481 130.89 109.619C119.773 110.056 118.386 114.015 119.542 115.948C119.465 117.912 124.887 122.798 138.827 122.006Z" fill="#8B456C"/>
</g>
<path d="M148.63 112.457C144.428 112.326 135.3 110.689 131.262 109.887C131.24 110.037 130.547 110.394 127.955 110.624C124.714 110.912 114.906 114.522 124.811 118.903C134.716 123.283 148.615 120.124 151.519 118.867C154.423 117.609 153.882 112.621 148.63 112.457Z" fill="#391730"/>
<path opacity="0.5" d="M126.839 99.3851C129.928 100.714 137.611 99.4056 141.066 98.5855C141.267 97.2233 140.46 94.3925 138.076 95.0564C135.096 95.8863 127.889 95.9092 127.068 95.4246C126.247 94.9399 125.619 91.9421 125.882 90.1654C126.145 88.3887 124.441 89.0441 124.003 90.795C123.565 92.5458 122.978 97.7242 126.839 99.3851Z" fill="#391630"/>
<path opacity="0.67" d="M182.899 62.4537C180.638 62.4326 178.942 64.9136 177.203 67.0988C175.464 69.2839 174.145 74.2143 174.145 74.2143L176.731 75.4708C176.731 75.4708 179.621 68.5805 186.58 68.4864C193.538 68.3923 196.654 63.9813 196.654 63.9813C191.597 64.6993 185.161 62.4749 182.899 62.4537Z" fill="#7B3C5E"/>
<path d="M150.931 50.0698C152.301 51.7855 151.366 58.5588 150.727 61.7309C148.34 61.5962 146.506 62.8255 145.422 62.1493C144.339 61.4731 143.114 60.6042 143.927 56.2544C144.74 51.9045 149.219 47.9252 150.931 50.0698Z" fill="#E5C3B3"/>
<path d="M150.931 50.0698C152.301 51.7855 151.366 58.5588 150.727 61.7309C148.34 61.5962 146.506 62.8255 145.422 62.1493C144.339 61.4731 143.114 60.6042 143.927 56.2544C144.74 51.9045 149.219 47.9252 150.931 50.0698Z" fill="url(#paint15_linear)"/>
<path d="M150.931 50.0698C152.301 51.7855 151.366 58.5588 150.727 61.7309C148.34 61.5962 146.506 62.8255 145.422 62.1493C144.339 61.4731 143.114 60.6042 143.927 56.2544C144.74 51.9045 149.219 47.9252 150.931 50.0698Z" fill="url(#paint16_linear)"/>
<path d="M183.071 64.9757C178.069 64.5073 175.251 71.408 174.468 74.917C178.044 76.2619 177.852 77.9666 181.078 78.444C185.731 79.1325 187.429 78.3644 189.448 75.4347C189.376 72.7054 189.324 65.5612 183.071 64.9757Z" fill="#E5C3B3"/>
<path d="M183.071 64.9757C178.069 64.5073 175.251 71.408 174.468 74.917C178.044 76.2619 177.852 77.9666 181.078 78.444C185.731 79.1325 187.429 78.3644 189.448 75.4347C189.376 72.7054 189.324 65.5612 183.071 64.9757Z" fill="url(#paint17_linear)"/>
<ellipse cx="182.677" cy="73.5555" rx="4.43655" ry="2.21828" transform="rotate(8.41806 182.677 73.5555)" fill="#571F42"/>
<path d="M143.951 57.4247C144.152 58.9217 145.414 59.3655 146.543 58.9466C148.183 58.3376 147.451 56.0343 145.794 55.4727C144.758 55.1216 144.442 54.5432 144.486 53.8081C144.149 54.7593 143.782 56.1637 143.951 57.4247Z" fill="#571F42"/>
<ellipse cx="180.4" cy="71.6168" rx="0.950689" ry="1.58448" transform="rotate(54.7903 180.4 71.6168)" fill="#ECFFF9"/>
<ellipse cx="179.848" cy="67.8047" rx="0.950689" ry="2.38195" transform="rotate(54.7903 179.848 67.8047)" fill="white"/>
<g opacity="0.8">
<path d="M128.488 115.03C128.181 115.369 128.136 118.128 128.152 119.465C128.659 119.646 129.798 120.029 130.3 120.103C130.927 120.196 131.733 115.83 131.466 115.47C131.199 115.11 128.871 114.606 128.488 115.03Z" fill="#FFDDDD"/>
<path d="M128.488 115.03C128.181 115.369 128.136 118.128 128.152 119.465C128.659 119.646 129.798 120.029 130.3 120.103C130.927 120.196 131.733 115.83 131.466 115.47C131.199 115.11 128.871 114.606 128.488 115.03Z" fill="url(#paint18_linear)"/>
</g>
<g opacity="0.8">
<path d="M133.144 120.364C132.927 118.943 132.596 116.054 133.01 115.859C133.526 115.615 135.656 115.29 136.237 115.696C136.632 115.972 136.532 117.195 136.39 118.032C136.499 117.769 136.745 117.533 137.236 117.606C138.176 117.745 139.657 117.483 139.674 118.447C139.688 119.218 139.433 120.44 139.303 120.955C138.384 121.032 136.492 121.116 136.278 120.828C136.065 120.54 134.1 120.398 133.144 120.364Z" fill="#FFDDDD"/>
<path d="M133.144 120.364C132.927 118.943 132.596 116.054 133.01 115.859C133.526 115.615 135.656 115.29 136.237 115.696C136.632 115.972 136.532 117.195 136.39 118.032C136.499 117.769 136.745 117.533 137.236 117.606C138.176 117.745 139.657 117.483 139.674 118.447C139.688 119.218 139.433 120.44 139.303 120.955C138.384 121.032 136.492 121.116 136.278 120.828C136.065 120.54 134.1 120.398 133.144 120.364Z" fill="url(#paint19_linear)"/>
</g>
<ellipse cx="149.639" cy="54.8561" rx="0.792241" ry="2.58025" transform="rotate(-5.18248 149.639 54.8561)" fill="white"/>
<ellipse rx="0.72454" ry="1.56133" transform="matrix(-0.995912 0.0903281 0.0903281 0.995912 146.972 55.8821)" fill="#ECFFF9"/>
<g filter="url(#filter2_d)">
<path d="M149.517 266.837L149.474 250.93C149.469 249.29 148.436 247.83 146.88 247.311C142.177 245.74 133.972 243.161 125.391 240.948C114.9 238.242 105.032 237.455 101.41 237.399C97.7977 239.801 89.1335 244.808 83.3749 245.622C77.6164 246.436 76.7194 251.631 76.9906 254.127C77.9388 254.214 80.6455 254.54 83.8872 255.148C80.7619 256.351 81.9509 259.934 82.9361 261.574C92.336 257.947 113.49 252.097 122.909 257.719C131.485 262.839 142.405 266.472 148.025 267.997C148.785 268.203 149.52 267.624 149.517 266.837Z" fill="#813460"/>
</g>
<g filter="url(#filter3_d)">
<path d="M3.05221 228.768C3.88438 234.401 12.2547 237.658 16.3358 238.582C16.2459 227.934 21.7711 212.317 24.5449 205.84L17.5084 201.435L14.6702 204.379L15.4125 199.363L9.92653 198.551L4.437 211.834C3.62867 215.132 2.22005 223.135 3.05221 228.768Z" fill="#813460"/>
<path d="M3.05221 228.768C3.88438 234.401 12.2547 237.658 16.3358 238.582C16.2459 227.934 21.7711 212.317 24.5449 205.84L17.5084 201.435L14.6702 204.379L15.4125 199.363L9.92653 198.551L4.437 211.834C3.62867 215.132 2.22005 223.135 3.05221 228.768Z" fill="url(#paint20_linear)"/>
</g>
<path d="M10.8627 209.305C8.8182 208.961 5.43149 210.719 4.2796 211.658C5.01903 208.718 8.61198 201.773 9.88724 198.644L15.864 199.411L14.7246 204.363L18.8162 200.437C20.6836 201.212 23.5818 202.856 25.3139 204.674C23.6674 208.451 20.1188 217.998 19.1003 220.807C17.8927 221.886 16.5226 218.225 16.261 217.78C15.9994 217.335 13.4183 209.736 10.8627 209.305Z" fill="#402241"/>
<path d="M89.4063 255.005C87.3905 253.04 91.8235 245.165 94.2689 241.629C91.1228 243.406 85.9622 244.724 83.2688 245.607C79.902 246.711 78.6425 247.645 77.2437 249.521C76.1247 251.021 76.5071 253.416 76.8381 254.426L83.4676 255.087C83.3032 255.116 82.7352 255.491 81.7788 256.759C80.8223 258.027 82.1548 260.712 82.9406 261.896L94.5908 257.854C93.7025 257.723 91.4222 256.969 89.4063 255.005Z" fill="#402241"/>
<path d="M95.5205 237.489C97.1634 237.572 100.548 237.721 100.942 237.651L97.5876 240.838L95.2653 239.213L95.5205 237.489Z" fill="#402241"/>
<path d="M88.1208 250.688C88.5408 250.811 90.477 249.839 91.3927 249.339C91.3034 250.502 91.091 252.864 90.9552 253.009C90.8195 253.153 89.8213 254.098 89.3392 254.552C88.5787 254.235 86.9526 253.57 86.5326 253.448C86.1126 253.326 87.9034 252.581 88.8513 252.224L88.0479 251.3C87.8972 251.045 87.7008 250.566 88.1208 250.688Z" fill="#813460"/>
<path d="M255.654 193.849L256.972 197.062C258.467 194.088 259.52 187.205 259.699 186.744C259.877 186.282 261.431 177.251 262.187 172.793L259.689 160.698L258.854 160.607C258.271 160.543 257.747 160.963 257.683 161.546C257.659 161.761 257.702 161.979 257.806 162.169L258.138 162.779C258.413 163.283 258.428 163.888 258.178 164.405C257.912 164.958 257.949 165.609 258.276 166.129L258.4 166.325C258.754 166.885 258.78 167.592 258.469 168.177C258.158 168.763 258.185 169.47 258.539 170.03L258.753 170.37C259.106 170.931 259.133 171.638 258.822 172.223L258.722 172.412C258.473 172.88 258.494 173.446 258.777 173.895L258.821 173.964C259.163 174.507 259.086 175.214 258.634 175.67C258.234 176.072 258.122 176.678 258.351 177.196L258.574 177.703C258.827 178.276 258.703 178.945 258.262 179.39C257.835 179.82 257.704 180.462 257.927 181.025L258.088 181.429C258.379 182.16 258.254 182.991 257.762 183.605L257.734 183.639C257.319 184.156 257.152 184.827 257.275 185.478L257.368 185.966C257.502 186.672 257.237 187.394 256.677 187.845C256.155 188.267 255.886 188.929 255.967 189.595L256.183 191.381C256.229 191.76 256.116 192.141 255.872 192.435C255.543 192.83 255.459 193.374 255.654 193.849Z" fill="#C04FAE"/>
<path d="M241.658 235.25L241.601 238.518C243.433 235.877 246.094 229.447 246.342 229.03C246.591 228.613 250.196 220.198 251.967 216.042L253.793 204.164L253.681 204.122C253.091 203.897 252.431 204.193 252.206 204.783C252.147 204.938 252.123 205.103 252.134 205.268L252.177 205.888C252.216 206.459 252.063 207.026 251.743 207.499C251.397 208.011 251.247 208.632 251.323 209.245L251.327 209.283C251.408 209.941 251.238 210.604 250.852 211.142C250.466 211.68 250.296 212.344 250.377 213.001L250.4 213.192C250.481 213.85 250.311 214.513 249.925 215.051L249.771 215.266C249.484 215.666 249.358 216.159 249.418 216.648L249.426 216.715C249.5 217.316 249.271 217.916 248.816 218.316C248.418 218.665 248.191 219.169 248.192 219.698L248.194 220.294C248.195 220.877 247.945 221.433 247.507 221.818C247.083 222.19 246.835 222.721 246.82 223.285L246.804 223.903C246.787 224.566 246.524 225.199 246.065 225.678L245.853 225.9C245.481 226.287 245.236 226.779 245.148 227.309L245.013 228.128C244.91 228.751 244.564 229.308 244.051 229.677C243.569 230.024 243.233 230.537 243.11 231.118L242.703 233.027C242.628 233.379 242.454 233.702 242.201 233.959C241.861 234.303 241.666 234.766 241.658 235.25Z" fill="#C04FAE"/>
<path d="M4.35227 207.791L4.05401 213.078L6.39291 207.19L4.35227 207.791Z" fill="#402241"/>
<path d="M191.366 72.0381C190.219 69.3426 188.394 68.1022 188.394 68.1022C188.339 67.3825 189.326 65.2882 190.601 67.08C191.72 68.6527 192.132 70.6275 191.775 72.0315C191.722 72.2407 191.451 72.2367 191.366 72.0381Z" fill="#864769"/>
<path opacity="0.4" d="M168.606 72.1462L166.64 70.0531C167.39 66.9176 168.326 62.6916 172.839 58.675C177.353 54.6585 180.806 53.2881 182.397 53.4329L182.808 54.9428L183.732 56.1512L183.648 57.6331L184.874 59.354C184.157 59.3686 181.741 58.8797 179.524 60.3736C175.226 63.2695 173.562 67.3602 172.18 70.3656L171.601 71.8196L169.514 70.7108L168.606 72.1462Z" fill="url(#paint21_linear)"/>
<path d="M129.263 94.8663C125.733 94.4378 126.362 90.4026 127.078 87.863L124.404 86.9954L127.746 86.1806L127.256 84.7197C127.785 84.654 131.326 84.72 138.94 85.9522C146.553 87.1844 150.231 91.606 151.118 93.6627L147.435 92.8816L148.156 95.3589C147.412 94.9826 145.301 94.1372 142.799 93.7667C139.671 93.3036 133.392 95.3674 129.263 94.8663Z" fill="url(#paint22_linear)"/>
<path d="M146.92 72.2985C144.525 74.8653 145.927 73.8762 139.086 78.435C132.246 82.9939 125.833 84.7859 139.3 74.649L142.599 69.3528L144.742 69.4737L146.266 67.8752L148.067 68.9801L151.061 66.7124C151.061 66.7124 149.314 69.7317 146.92 72.2985Z" fill="#B37596"/>
<path d="M120.112 112.267C121.694 109.633 129.164 109.337 129.878 109.378L127.926 108.408L122.122 109.657C122.122 109.657 116.882 111.081 115.34 113.001C113.799 114.921 114.102 116.525 115.368 117.589C116.56 118.591 118.476 118.386 119.797 117.839C119.375 116.86 118.846 114.374 120.112 112.267Z" fill="#B37596"/>
<line x1="19.418" y1="92.5272" x2="26.7286" y2="78.3628" stroke="white" stroke-width="1.45353" stroke-linecap="round"/>
<line x1="34.637" y1="103.243" x2="43.6744" y2="86.3264" stroke="#DEDFA0" stroke-width="1.45353" stroke-linecap="round"/>
<path d="M34.5613 102.356L30.6973 100.861L31.5698 103.603C31.5698 103.603 34.9352 104.475 35.8077 104.226C36.6803 103.977 37.6774 100.861 38.5499 99.7387L38.0514 98.243L37.0542 97.4951L34.5613 102.356Z" fill="#DEDFA0"/>
<path opacity="0.5" d="M30.3255 107.841C30.3255 107.841 31.9459 109.212 31.9459 111.954C27.9572 113.948 25.1112 115.943 25.1112 115.943L23.2207 110.957L23.5115 109.96L30.3255 107.841Z" fill="#DEDFA0"/>
<ellipse opacity="0.3" cx="182.306" cy="155.699" rx="12.3901" ry="20.7453" transform="rotate(-21.4507 182.306 155.699)" fill="#68B1DA"/>
<circle cx="250.128" cy="33.0676" r="3.51271" fill="#18113A"/>
<circle cx="194.409" cy="5.20837" r="3.0282" fill="#18113A"/>
<circle cx="261.149" cy="38.2763" r="3.14932" fill="#18113A"/>
<circle cx="206.278" cy="5.69275" r="3.0282" fill="#18113A"/>
<circle cx="271.446" cy="43.7272" r="3.0282" fill="#18113A"/>
<circle cx="218.149" cy="10.2958" r="3.0282" fill="#18113A"/>
<circle cx="283.073" cy="42.7582" r="3.0282" fill="#18113A"/>
<circle cx="228.083" cy="12.2338" r="3.0282" fill="#18113A"/>
<circle cx="291.796" cy="38.1551" r="2.78594" fill="#18113A"/>
<circle cx="237.046" cy="6.41949" r="2.78594" fill="#18113A"/>
<line x1="221.192" y1="29.1276" x2="222.446" y2="31.4789" stroke="#E58F8F" stroke-width="1.45353" stroke-linecap="round"/>
<line x1="214.441" y1="30.7164" x2="214.587" y2="32.8999" stroke="#E58F8F" stroke-width="1.45353" stroke-linecap="round"/>
<line x1="207.829" y1="30.4742" x2="207.319" y2="32.0024" stroke="#E58F8F" stroke-width="1.45353" stroke-linecap="round"/>
<line x1="202.23" y1="27.8748" x2="200.361" y2="28.8815" stroke="#E58F8F" stroke-width="1.45353" stroke-linecap="round"/>
<line x1="199.325" y1="23.4451" x2="197.383" y2="23.3064" stroke="#E58F8F" stroke-width="1.45353" stroke-linecap="round"/>
<line x1="199.868" y1="19.4991" x2="198.526" y2="18.8893" stroke="#E58F8F" stroke-width="1.45353" stroke-linecap="round"/>
</g>
<defs>
<filter id="filter0_d" x="141.692" y="7.49162" width="103.791" height="58.1059" filterUnits="userSpaceOnUse" color-interpolation-filters="sRGB">
<feFlood flood-opacity="0" result="BackgroundImageFix"/>
<feColorMatrix in="SourceAlpha" type="matrix" values="0 0 0 0 0 0 0 0 0 0 0 0 0 0 0 0 0 0 127 0"/>
<feOffset dy="0.969023"/>
<feGaussianBlur stdDeviation="2.78594"/>
<feColorMatrix type="matrix" values="0 0 0 0 0 0 0 0 0 0 0 0 0 0 0 0 0 0 0.25 0"/>
<feBlend mode="normal" in2="BackgroundImageFix" result="effect1_dropShadow"/>
<feBlend mode="normal" in="SourceGraphic" in2="effect1_dropShadow" result="shape"/>
</filter>
<filter id="filter1_f" x="118.723" y="109.135" width="35.8276" height="13.4419" filterUnits="userSpaceOnUse" color-interpolation-filters="sRGB">
<feFlood flood-opacity="0" result="BackgroundImageFix"/>
<feBlend mode="normal" in="SourceGraphic" in2="BackgroundImageFix" result="shape"/>
<feGaussianBlur stdDeviation="0.242256" result="effect1_foregroundBlur"/>
</filter>
<filter id="filter2_d" x="70.1641" y="231.827" width="81.2906" height="39.3611" filterUnits="userSpaceOnUse" color-interpolation-filters="sRGB">
<feFlood flood-opacity="0" result="BackgroundImageFix"/>
<feColorMatrix in="SourceAlpha" type="matrix" values="0 0 0 0 0 0 0 0 0 0 0 0 0 0 0 0 0 0 127 0"/>
<feOffset dx="-2.42256" dy="-1.21128"/>
<feGaussianBlur stdDeviation="2.1803"/>
<feColorMatrix type="matrix" values="0 0 0 0 0 0 0 0 0 0 0 0 0 0 0 0 0 0 0.25 0"/>
<feBlend mode="normal" in2="BackgroundImageFix" result="effect1_dropShadow"/>
<feBlend mode="normal" in="SourceGraphic" in2="effect1_dropShadow" result="shape"/>
</filter>
<filter id="filter3_d" x="1.10304" y="193.464" width="29.4991" height="47.7831" filterUnits="userSpaceOnUse" color-interpolation-filters="sRGB">
<feFlood flood-opacity="0" result="BackgroundImageFix"/>
<feColorMatrix in="SourceAlpha" type="matrix" values="0 0 0 0 0 0 0 0 0 0 0 0 0 0 0 0 0 0 127 0"/>
<feOffset dx="2.1803" dy="-1.21128"/>
<feGaussianBlur stdDeviation="1.93805"/>
<feColorMatrix type="matrix" values="0 0 0 0 0 0 0 0 0 0 0 0 0 0 0 0 0 0 0.25 0"/>
<feBlend mode="normal" in2="BackgroundImageFix" result="effect1_dropShadow"/>
<feBlend mode="normal" in="SourceGraphic" in2="effect1_dropShadow" result="shape"/>
</filter>
<radialGradient id="paint0_radial" cx="0" cy="0" r="1" gradientUnits="userSpaceOnUse" gradientTransform="translate(95.4482 209.794) rotate(-14.3133) scale(60.7541 80.1959)">
<stop stop-color="#3F7687"/>
<stop offset="1" stop-color="#390C2E"/>
</radialGradient>
<radialGradient id="paint1_radial" cx="0" cy="0" r="1" gradientUnits="userSpaceOnUse" gradientTransform="translate(114.828 181.692) rotate(-22.0872) scale(36.079 48.0045)">
<stop stop-color="#3F7687"/>
<stop offset="1" stop-color="#4C1038"/>
</radialGradient>
<linearGradient id="paint2_linear" x1="226.052" y1="66.2707" x2="229.86" y2="80.6895" gradientUnits="userSpaceOnUse">
<stop stop-color="#8D3F52"/>
<stop offset="1" stop-color="#7E305C"/>
</linearGradient>
<linearGradient id="paint3_linear" x1="171.03" y1="143.779" x2="156.495" y2="148.018" gradientUnits="userSpaceOnUse">
<stop stop-opacity="0"/>
<stop offset="1" stop-color="#350C2A"/>
</linearGradient>
<linearGradient id="paint4_linear" x1="157.571" y1="5.44993" x2="170.964" y2="42.6701" gradientUnits="userSpaceOnUse">
<stop stop-color="white"/>
<stop offset="0.61197" stop-color="white" stop-opacity="0"/>
</linearGradient>
<linearGradient id="paint5_linear" x1="220.523" y1="168.853" x2="214.87" y2="134.54" gradientUnits="userSpaceOnUse">
<stop stop-color="#772E92"/>
<stop offset="1" stop-color="#772E92" stop-opacity="0"/>
</linearGradient>
<linearGradient id="paint6_linear" x1="218.744" y1="77.4342" x2="257.955" y2="95.3254" gradientUnits="userSpaceOnUse">
<stop stop-color="#55153D"/>
<stop offset="1" stop-color="#55153D" stop-opacity="0"/>
</linearGradient>
<linearGradient id="paint7_linear" x1="270.883" y1="91.5743" x2="254.644" y2="76.8377" gradientUnits="userSpaceOnUse">
<stop stop-color="#7E305C"/>
<stop offset="0.22" stop-color="#A85A6C"/>
<stop offset="1" stop-color="#7E305C"/>
</linearGradient>
<linearGradient id="paint8_linear" x1="219.804" y1="76.326" x2="220.914" y2="87.222" gradientUnits="userSpaceOnUse">
<stop stop-color="#A92E44"/>
<stop offset="1" stop-color="#CC4A62"/>
</linearGradient>
<linearGradient id="paint9_linear" x1="73.0232" y1="219.302" x2="87.58" y2="265.078" gradientUnits="userSpaceOnUse">
<stop stop-color="#6E5EAD" stop-opacity="0"/>
<stop offset="1" stop-color="#6E5EAD"/>
</linearGradient>
<linearGradient id="paint10_linear" x1="37.7246" y1="108.835" x2="85.363" y2="258.643" gradientUnits="userSpaceOnUse">
<stop stop-color="#FFD2D2"/>
<stop offset="1" stop-color="#3F6384" stop-opacity="0"/>
</linearGradient>
<radialGradient id="paint11_radial" cx="0" cy="0" r="1" gradientUnits="userSpaceOnUse" gradientTransform="translate(69.2914 150.638) rotate(84.5431) scale(81.9317 66.2426)">
<stop stop-color="#97CAD6" stop-opacity="0"/>
<stop offset="1" stop-color="#2C156C" stop-opacity="0.42"/>
</radialGradient>
<radialGradient id="paint12_radial" cx="0" cy="0" r="1" gradientUnits="userSpaceOnUse" gradientTransform="translate(66.8595 119.432) rotate(67.2176) scale(65.6888 53.1101)">
<stop stop-color="white" stop-opacity="0.74"/>
<stop offset="1" stop-color="white" stop-opacity="0"/>
</radialGradient>
<linearGradient id="paint13_linear" x1="52.5317" y1="112.452" x2="52.5317" y2="262.321" gradientUnits="userSpaceOnUse">
<stop stop-color="#DEDFA0"/>
<stop offset="1" stop-color="#200E65"/>
</linearGradient>
<radialGradient id="paint14_radial" cx="0" cy="0" r="1" gradientUnits="userSpaceOnUse" gradientTransform="translate(90.2389 152.137) rotate(-19.5276) scale(70.3006 44.9201)">
<stop stop-color="#97E0DC"/>
<stop offset="1" stop-color="white" stop-opacity="0"/>
</radialGradient>
<linearGradient id="paint15_linear" x1="148.783" y1="49.3184" x2="146.788" y2="62.7982" gradientUnits="userSpaceOnUse">
<stop stop-color="white"/>
<stop offset="1" stop-color="white" stop-opacity="0"/>
</linearGradient>
<linearGradient id="paint16_linear" x1="148.783" y1="49.3184" x2="143.496" y2="60.9295" gradientUnits="userSpaceOnUse">
<stop stop-color="#C89D88"/>
<stop offset="0.828125" stop-color="#C2ECEE"/>
<stop offset="1" stop-color="#CA8B6D"/>
</linearGradient>
<linearGradient id="paint17_linear" x1="183.461" y1="65.0216" x2="179.527" y2="77.8941" gradientUnits="userSpaceOnUse">
<stop stop-color="#C89D88"/>
<stop offset="0.828125" stop-color="#C2ECEE"/>
<stop offset="1" stop-color="#CA8B6D"/>
</linearGradient>
<linearGradient id="paint18_linear" x1="130.056" y1="114.958" x2="129.316" y2="119.957" gradientUnits="userSpaceOnUse">
<stop stop-color="#E4D7CE"/>
<stop offset="1" stop-color="#CF9D9D"/>
</linearGradient>
<linearGradient id="paint19_linear" x1="136.546" y1="115.654" x2="135.779" y2="120.842" gradientUnits="userSpaceOnUse">
<stop stop-color="#E4D7CE"/>
<stop offset="1" stop-color="#CF9D9D"/>
</linearGradient>
<linearGradient id="paint20_linear" x1="15.7725" y1="199.417" x2="10.1127" y2="237.661" gradientUnits="userSpaceOnUse">
<stop stop-color="#813460"/>
<stop offset="1" stop-color="#5C1F42"/>
</linearGradient>
<linearGradient id="paint21_linear" x1="181.24" y1="56.341" x2="169.687" y2="70.8984" gradientUnits="userSpaceOnUse">
<stop stop-color="#9B5E7F"/>
<stop offset="0.646978" stop-color="#F9BADC" stop-opacity="0.4375"/>
<stop offset="1" stop-color="#9B5E7F" stop-opacity="0"/>
</linearGradient>
<linearGradient id="paint22_linear" x1="144.038" y1="92.1166" x2="130.649" y2="80.4676" gradientUnits="userSpaceOnUse">
<stop stop-color="#9B5E7F" stop-opacity="0"/>
<stop offset="0.510417" stop-color="#F9BADC" stop-opacity="0.08"/>
<stop offset="1" stop-color="#D79ABB" stop-opacity="0.43"/>
</linearGradient>
<clipPath id="clip0">
<rect width="305" height="370.167" fill="white"/>
</clipPath>
</defs>
</svg>
