<svg width="327" height="116" viewBox="0 0 327 116" fill="none" xmlns="http://www.w3.org/2000/svg">
<g clip-path="url(#clip0)">
<rect x="-7" y="66" width="285" height="51" fill="#5B51CB"/>
<rect x="-7" y="66" width="285" height="51" fill="url(#paint0_linear)" fill-opacity="0.3"/>
<path d="M57.1668 53.1217L143.155 81.8195C159.377 87.2333 171.983 100.151 177 116.5L327.002 116.5L327.002 48.5C327.002 48.5 157.288 49.4228 57.1668 53.1217Z" fill="#7873DE"/>
<g filter="url(#filter0_d)">
<path fill-rule="evenodd" clip-rule="evenodd" d="M148.265 25.3188L149.426 23.6562C152.212 19.6673 156.771 17.2908 161.636 17.2908H166.185C171.05 17.2908 175.609 19.6673 178.395 23.6562L179.556 25.3188C181.457 28.0411 184.476 29.7469 187.759 29.9913H327.437V77.7923H0V29.9913H140.062C143.345 29.7469 146.364 28.0411 148.265 25.3188Z" fill="#9189ED"/>
</g>
<g clip-path="url(#clip1)">
<path d="M307.785 48.5092C307.891 48.9049 307.845 49.3187 307.645 49.676C306.938 50.936 304.883 53.8917 301.166 53.8917C297.386 53.8917 295.325 50.8355 294.652 49.6136C294.476 49.2935 294.424 48.9296 294.497 48.5715C294.839 46.8984 296.266 41.9565 301.166 41.9565C305.63 41.9565 307.322 46.7792 307.785 48.5092Z" fill="#FEE6D9"/>
<path d="M307.785 48.5092C307.891 48.9049 307.845 49.3187 307.645 49.676C306.938 50.936 304.883 53.8917 301.166 53.8917C297.386 53.8917 295.325 50.8355 294.652 49.6136C294.476 49.2935 294.424 48.9296 294.497 48.5715C294.839 46.8984 296.266 41.9565 301.166 41.9565C305.63 41.9565 307.322 46.7792 307.785 48.5092Z" fill="url(#paint1_linear)"/>
<ellipse cx="301.165" cy="48.3219" rx="3.58056" ry="3.9784" fill="#86A6F8"/>
<ellipse cx="301.165" cy="48.3219" rx="3.58056" ry="3.9784" fill="url(#paint2_linear)"/>
<ellipse cx="301.165" cy="48.3219" rx="3.58056" ry="3.9784" fill="#2E268B" fill-opacity="0.47"/>
<circle cx="303.553" cy="45.537" r="1.19352" fill="white"/>
</g>
<g clip-path="url(#clip2)">
<path d="M291.076 48.5092C291.182 48.9049 291.136 49.3187 290.936 49.676C290.229 50.936 288.174 53.8917 284.457 53.8917C280.677 53.8917 278.616 50.8355 277.943 49.6136C277.767 49.2935 277.715 48.9296 277.788 48.5715C278.13 46.8984 279.557 41.9565 284.457 41.9565C288.921 41.9565 290.613 46.7792 291.076 48.5092Z" fill="#FEE6D9"/>
<path d="M291.076 48.5092C291.182 48.9049 291.136 49.3187 290.936 49.676C290.229 50.936 288.174 53.8917 284.457 53.8917C280.677 53.8917 278.616 50.8355 277.943 49.6136C277.767 49.2935 277.715 48.9296 277.788 48.5715C278.13 46.8984 279.557 41.9565 284.457 41.9565C288.921 41.9565 290.613 46.7792 291.076 48.5092Z" fill="url(#paint3_linear)"/>
<ellipse cx="284.456" cy="48.3219" rx="3.58056" ry="3.9784" fill="#86A6F8"/>
<ellipse cx="284.456" cy="48.3219" rx="3.58056" ry="3.9784" fill="url(#paint4_linear)"/>
<ellipse cx="284.456" cy="48.3219" rx="3.58056" ry="3.9784" fill="#2E268B" fill-opacity="0.47"/>
<circle cx="286.84" cy="45.537" r="1.19352" fill="white"/>
</g>
<rect x="15.916" y="58.6658" width="140.04" height="6.36544" rx="3.18272" fill="#5B51CB"/>
<rect x="171.865" y="58.6658" width="138.448" height="6.36544" rx="3.18272" fill="#5B51CB"/>
<path d="M15.916 61.8485C15.916 60.0907 17.341 58.6658 19.0987 58.6658H152.773C154.531 58.6658 155.956 60.0907 155.956 61.8485V61.8485C155.956 63.6063 154.531 65.0312 152.773 65.0312H19.0987C17.341 65.0312 15.916 63.6063 15.916 61.8485V61.8485Z" fill="#FFF3EC"/>
<path d="M171.865 61.8485C171.865 60.0907 173.29 58.6658 175.048 58.6658H186.187V65.0312H175.048C173.29 65.0312 171.865 63.6063 171.865 61.8485V61.8485Z" fill="#BBF7FF"/>
<path d="M39.7947 50.4498C40.3039 50.4498 40.5585 50.6662 40.5585 51.099C40.5585 51.5489 40.3039 51.7738 39.7947 51.7738H35.4916C34.9739 51.7738 34.7151 51.5489 34.7151 51.099C34.7151 50.6662 34.9739 50.4498 35.4916 50.4498H36.8157V44.6445L35.5935 45.3956C35.4747 45.4635 35.3686 45.4975 35.2752 45.4975C35.097 45.4975 34.9442 45.4211 34.8169 45.2683C34.6981 45.1155 34.6387 44.9458 34.6387 44.7591C34.6387 44.5129 34.749 44.322 34.9697 44.1862L36.943 42.964C37.1976 42.8112 37.4395 42.7349 37.6686 42.7349C37.9063 42.7349 38.0972 42.807 38.2415 42.9513C38.3858 43.0956 38.4579 43.295 38.4579 43.5496V50.4498H39.7947Z" fill="#F4F3FF"/>
<path d="M44.8693 51.8884C43.8084 51.8884 42.9979 51.4979 42.4377 50.7171C41.8776 49.9278 41.5975 48.782 41.5975 47.2798C41.5975 45.786 41.8776 44.6487 42.4377 43.8679C42.9979 43.0786 43.8084 42.6839 44.8693 42.6839C45.9302 42.6839 46.7408 43.0786 47.3009 43.8679C47.8611 44.6487 48.1412 45.786 48.1412 47.2798C48.1412 48.7735 47.8611 49.9151 47.3009 50.7044C46.7408 51.4937 45.9302 51.8884 44.8693 51.8884ZM44.8693 50.6025C45.4465 50.6025 45.8666 50.3394 46.1297 49.8132C46.3928 49.2785 46.5243 48.434 46.5243 47.2798C46.5243 46.117 46.3928 45.2768 46.1297 44.7591C45.8666 44.2329 45.4465 43.9698 44.8693 43.9698C44.2922 43.9698 43.8721 44.2329 43.609 44.7591C43.3459 45.2853 43.2143 46.1255 43.2143 47.2798C43.2143 48.434 43.3459 49.2785 43.609 49.8132C43.8721 50.3394 44.2922 50.6025 44.8693 50.6025Z" fill="#F4F3FF"/>
<path d="M52.5029 51.8884C51.442 51.8884 50.6314 51.4979 50.0713 50.7171C49.5111 49.9278 49.231 48.782 49.231 47.2798C49.231 45.786 49.5111 44.6487 50.0713 43.8679C50.6314 43.0786 51.442 42.6839 52.5029 42.6839C53.5638 42.6839 54.3743 43.0786 54.9345 43.8679C55.4946 44.6487 55.7747 45.786 55.7747 47.2798C55.7747 48.7735 55.4946 49.9151 54.9345 50.7044C54.3743 51.4937 53.5638 51.8884 52.5029 51.8884ZM52.5029 50.6025C53.08 50.6025 53.5001 50.3394 53.7632 49.8132C54.0263 49.2785 54.1579 48.434 54.1579 47.2798C54.1579 46.117 54.0263 45.2768 53.7632 44.7591C53.5001 44.2329 53.08 43.9698 52.5029 43.9698C51.9257 43.9698 51.5056 44.2329 51.2425 44.7591C50.9794 45.2853 50.8479 46.1255 50.8479 47.2798C50.8479 48.434 50.9794 49.2785 51.2425 49.8132C51.5056 50.3394 51.9257 50.6025 52.5029 50.6025Z" fill="#F4F3FF"/>
<path d="M57.0301 52.2321C56.9961 52.3424 56.941 52.4273 56.8646 52.4867C56.7882 52.5461 56.7033 52.5758 56.61 52.5758C56.4912 52.5758 56.3851 52.5334 56.2917 52.4485C56.1983 52.3636 56.1517 52.2576 56.1517 52.1302C56.1517 52.0793 56.1644 52.0199 56.1899 51.952L59.1943 42.5566C59.2283 42.4463 59.2835 42.3614 59.3598 42.302C59.4362 42.2426 59.5211 42.2129 59.6145 42.2129C59.7333 42.2129 59.8394 42.2553 59.9327 42.3402C60.0261 42.4251 60.0728 42.5354 60.0728 42.6712C60.0728 42.6967 60.0643 42.7518 60.0473 42.8367L57.0301 52.2321Z" fill="#F4F3FF"/>
<path d="M66.1862 50.8953C66.3389 50.8953 66.4578 50.9335 66.5426 51.0099C66.6275 51.0863 66.6699 51.1924 66.6699 51.3282C66.6699 51.4725 66.6275 51.5828 66.5426 51.6592C66.4663 51.7356 66.3474 51.7738 66.1862 51.7738H61.9723C61.811 51.7738 61.6879 51.7356 61.6031 51.6592C61.5267 51.5828 61.4885 51.4725 61.4885 51.3282C61.4885 51.1924 61.5309 51.0863 61.6158 51.0099C61.7007 50.9335 61.8195 50.8953 61.9723 50.8953H63.5509V44.0716L62.1632 44.9755C62.0953 45.0179 62.0274 45.0391 61.9595 45.0391C61.8407 45.0391 61.7346 44.984 61.6413 44.8736C61.5564 44.7633 61.5139 44.6445 61.5139 44.5172C61.5139 44.3389 61.5818 44.2116 61.7176 44.1353L63.6527 42.8749C63.797 42.7815 63.9455 42.7349 64.0983 42.7349C64.2426 42.7349 64.3614 42.7815 64.4548 42.8749C64.5481 42.9683 64.5948 43.0998 64.5948 43.2696V50.8953H66.1862Z" fill="#F4F3FF"/>
<path d="M71.3754 51.8756C70.3484 51.8756 69.5676 51.4852 69.0329 50.7044C68.4982 49.9236 68.2309 48.7863 68.2309 47.2925C68.2309 45.7903 68.4982 44.6487 69.0329 43.8679C69.5676 43.0871 70.3484 42.6967 71.3754 42.6967C72.4024 42.6967 73.1832 43.0871 73.7179 43.8679C74.2526 44.6402 74.5199 45.7775 74.5199 47.2798C74.5199 48.782 74.2526 49.9236 73.7179 50.7044C73.1832 51.4852 72.4024 51.8756 71.3754 51.8756ZM71.3754 50.9972C72.0883 50.9972 72.6145 50.6959 72.954 50.0933C73.2935 49.4907 73.4633 48.5529 73.4633 47.2798C73.4633 45.9982 73.2935 45.0604 72.954 44.4663C72.623 43.8721 72.0968 43.5751 71.3754 43.5751C70.6625 43.5751 70.1363 43.8764 69.7968 44.479C69.4573 45.0731 69.2875 46.0067 69.2875 47.2798C69.2875 48.5529 69.4573 49.4907 69.7968 50.0933C70.1363 50.6959 70.6625 50.9972 71.3754 50.9972Z" fill="#F4F3FF"/>
<path d="M79.009 51.8756C77.982 51.8756 77.2012 51.4852 76.6665 50.7044C76.1318 49.9236 75.8644 48.7863 75.8644 47.2925C75.8644 45.7903 76.1318 44.6487 76.6665 43.8679C77.2012 43.0871 77.982 42.6967 79.009 42.6967C80.0359 42.6967 80.8167 43.0871 81.3514 43.8679C81.8861 44.6402 82.1535 45.7775 82.1535 47.2798C82.1535 48.782 81.8861 49.9236 81.3514 50.7044C80.8167 51.4852 80.0359 51.8756 79.009 51.8756ZM79.009 50.9972C79.7219 50.9972 80.2481 50.6959 80.5876 50.0933C80.9271 49.4907 81.0968 48.5529 81.0968 47.2798C81.0968 45.9982 80.9271 45.0604 80.5876 44.4663C80.2566 43.8721 79.7304 43.5751 79.009 43.5751C78.296 43.5751 77.7698 43.8764 77.4303 44.479C77.0908 45.0731 76.9211 46.0067 76.9211 47.2798C76.9211 48.5529 77.0908 49.4907 77.4303 50.0933C77.7698 50.6959 78.296 50.9972 79.009 50.9972Z" fill="#F4F3FF"/>
<path d="M175.94 51.8885C175.286 51.8885 174.667 51.8036 174.081 51.6339C173.504 51.4557 173.033 51.218 172.668 50.921C172.473 50.7767 172.375 50.573 172.375 50.3099C172.375 50.1316 172.426 49.9789 172.528 49.8516C172.638 49.7158 172.765 49.6479 172.91 49.6479C173.062 49.6479 173.236 49.7073 173.432 49.8261C173.797 50.0892 174.179 50.2802 174.577 50.399C174.976 50.5178 175.418 50.5772 175.901 50.5772C176.521 50.5772 176.996 50.4711 177.327 50.259C177.658 50.0383 177.824 49.72 177.824 49.3041C177.824 48.9816 177.667 48.7355 177.353 48.5657C177.047 48.3875 176.534 48.2178 175.812 48.0565C175.065 47.8953 174.459 47.7085 173.992 47.4964C173.525 47.2842 173.173 47.0126 172.935 46.6816C172.698 46.3506 172.579 45.9305 172.579 45.4212C172.579 44.895 172.727 44.424 173.024 44.0081C173.321 43.5922 173.733 43.2697 174.259 43.0405C174.794 42.8029 175.392 42.6841 176.054 42.6841C177.268 42.6841 178.257 43.0066 179.021 43.6516C179.131 43.745 179.207 43.8383 179.25 43.9317C179.301 44.0166 179.326 44.1269 179.326 44.2627C179.326 44.4409 179.271 44.598 179.161 44.7338C179.059 44.8611 178.936 44.9247 178.791 44.9247C178.706 44.9247 178.626 44.912 178.549 44.8865C178.482 44.8611 178.388 44.8144 178.269 44.7465C177.921 44.4919 177.582 44.3051 177.251 44.1863C176.928 44.059 176.53 43.9954 176.054 43.9954C175.477 43.9954 175.019 44.1142 174.679 44.3518C174.348 44.581 174.183 44.9035 174.183 45.3194C174.183 45.6674 174.331 45.9347 174.628 46.1214C174.925 46.3081 175.43 46.4821 176.143 46.6434C176.899 46.8131 177.51 47.0041 177.977 47.2163C178.452 47.42 178.813 47.6831 179.059 48.0056C179.313 48.3281 179.441 48.7312 179.441 49.215C179.441 49.7412 179.292 50.208 178.995 50.6154C178.706 51.0143 178.295 51.3283 177.76 51.5575C177.234 51.7782 176.627 51.8885 175.94 51.8885Z" fill="#F4F3FF"/>
<path d="M185.739 50.068C185.883 50.068 185.997 50.1232 186.082 50.2335C186.176 50.3438 186.222 50.4924 186.222 50.6791C186.222 50.9422 186.065 51.1628 185.751 51.3411C185.463 51.5023 185.136 51.6339 184.771 51.7357C184.406 51.8291 184.058 51.8758 183.727 51.8758C182.726 51.8758 181.932 51.5872 181.346 51.0101C180.761 50.4329 180.468 49.6436 180.468 48.6421C180.468 48.0056 180.595 47.4412 180.85 46.9489C181.105 46.4567 181.461 46.0747 181.919 45.8031C182.386 45.5316 182.912 45.3958 183.498 45.3958C184.058 45.3958 184.546 45.5188 184.962 45.765C185.378 46.0111 185.7 46.3591 185.93 46.8089C186.159 47.2587 186.273 47.7892 186.273 48.4002C186.273 48.7652 186.112 48.9477 185.789 48.9477H182.034C182.085 49.5333 182.25 49.9661 182.53 50.2462C182.81 50.5178 183.218 50.6536 183.753 50.6536C184.024 50.6536 184.262 50.6197 184.465 50.5518C184.678 50.4839 184.915 50.3905 185.178 50.2717C185.433 50.1359 185.62 50.068 185.739 50.068ZM183.536 46.5161C183.103 46.5161 182.755 46.6519 182.492 46.9235C182.238 47.1951 182.085 47.5855 182.034 48.0947H184.911C184.894 47.577 184.767 47.1866 184.529 46.9235C184.291 46.6519 183.96 46.5161 183.536 46.5161Z" fill="#F4F3FF"/>
<path d="M191.05 45.4212C191.271 45.4042 191.445 45.4509 191.572 45.5613C191.7 45.6716 191.763 45.8371 191.763 46.0578C191.763 46.2869 191.708 46.4567 191.598 46.567C191.488 46.6773 191.288 46.7495 191 46.7834L190.618 46.8216C190.117 46.8725 189.748 47.0423 189.51 47.3309C189.281 47.6194 189.166 47.9801 189.166 48.413V51.0865C189.166 51.3326 189.09 51.5236 188.937 51.6593C188.784 51.7867 188.593 51.8503 188.364 51.8503C188.135 51.8503 187.944 51.7867 187.791 51.6593C187.647 51.5236 187.575 51.3326 187.575 51.0865V46.1596C187.575 45.922 187.647 45.7395 187.791 45.6122C187.944 45.4849 188.131 45.4212 188.352 45.4212C188.572 45.4212 188.75 45.4849 188.886 45.6122C189.022 45.731 189.09 45.905 189.09 46.1341V46.6434C189.251 46.2699 189.489 45.9814 189.803 45.7777C190.125 45.574 190.482 45.4594 190.872 45.434L191.05 45.4212Z" fill="#F4F3FF"/>
<path d="M197.251 50.068C197.395 50.068 197.51 50.1232 197.595 50.2335C197.688 50.3438 197.735 50.4924 197.735 50.6791C197.735 50.9422 197.578 51.1628 197.264 51.3411C196.975 51.5023 196.648 51.6339 196.283 51.7357C195.919 51.8291 195.571 51.8758 195.24 51.8758C194.238 51.8758 193.444 51.5872 192.859 51.0101C192.273 50.4329 191.98 49.6436 191.98 48.6421C191.98 48.0056 192.108 47.4412 192.362 46.9489C192.617 46.4567 192.973 46.0747 193.432 45.8031C193.899 45.5316 194.425 45.3958 195.01 45.3958C195.571 45.3958 196.059 45.5188 196.474 45.765C196.89 46.0111 197.213 46.3591 197.442 46.8089C197.671 47.2587 197.786 47.7892 197.786 48.4002C197.786 48.7652 197.624 48.9477 197.302 48.9477H193.546C193.597 49.5333 193.763 49.9661 194.043 50.2462C194.323 50.5178 194.73 50.6536 195.265 50.6536C195.537 50.6536 195.774 50.6197 195.978 50.5518C196.19 50.4839 196.428 50.3905 196.691 50.2717C196.945 50.1359 197.132 50.068 197.251 50.068ZM195.049 46.5161C194.616 46.5161 194.268 46.6519 194.005 46.9235C193.75 47.1951 193.597 47.5855 193.546 48.0947H196.424C196.407 47.577 196.279 47.1866 196.042 46.9235C195.804 46.6519 195.473 46.5161 195.049 46.5161Z" fill="#F4F3FF"/>
<path d="M202.703 45.3958C203.45 45.3958 204.006 45.6079 204.371 46.0323C204.736 46.4567 204.918 47.0975 204.918 47.9547V51.0865C204.918 51.3241 204.846 51.5108 204.702 51.6466C204.566 51.7824 204.375 51.8503 204.129 51.8503C203.883 51.8503 203.688 51.7824 203.543 51.6466C203.399 51.5108 203.327 51.3241 203.327 51.0865V48.0438C203.327 47.56 203.233 47.2078 203.047 46.9871C202.869 46.7664 202.584 46.6561 202.194 46.6561C201.735 46.6561 201.366 46.8004 201.086 47.089C200.815 47.3775 200.679 47.7637 200.679 48.2475V51.0865C200.679 51.3241 200.607 51.5108 200.462 51.6466C200.318 51.7824 200.123 51.8503 199.877 51.8503C199.631 51.8503 199.435 51.7824 199.291 51.6466C199.155 51.5108 199.087 51.3241 199.087 51.0865V46.1596C199.087 45.9389 199.16 45.7607 199.304 45.6249C199.448 45.4891 199.643 45.4212 199.89 45.4212C200.11 45.4212 200.288 45.4891 200.424 45.6249C200.568 45.7522 200.641 45.922 200.641 46.1341V46.4779C200.853 46.1299 201.137 45.8626 201.494 45.6758C201.85 45.4891 202.253 45.3958 202.703 45.3958Z" fill="#F4F3FF"/>
<path d="M211.461 50.068C211.606 50.068 211.72 50.1232 211.805 50.2335C211.898 50.3438 211.945 50.4924 211.945 50.6791C211.945 50.9422 211.788 51.1628 211.474 51.3411C211.186 51.5023 210.859 51.6339 210.494 51.7357C210.129 51.8291 209.781 51.8758 209.45 51.8758C208.448 51.8758 207.655 51.5872 207.069 51.0101C206.484 50.4329 206.191 49.6436 206.191 48.6421C206.191 48.0056 206.318 47.4412 206.573 46.9489C206.827 46.4567 207.184 46.0747 207.642 45.8031C208.109 45.5316 208.635 45.3958 209.221 45.3958C209.781 45.3958 210.269 45.5188 210.685 45.765C211.101 46.0111 211.423 46.3591 211.652 46.8089C211.881 47.2587 211.996 47.7892 211.996 48.4002C211.996 48.7652 211.835 48.9477 211.512 48.9477H207.757C207.808 49.5333 207.973 49.9661 208.253 50.2462C208.533 50.5178 208.941 50.6536 209.475 50.6536C209.747 50.6536 209.985 50.6197 210.188 50.5518C210.4 50.4839 210.638 50.3905 210.901 50.2717C211.156 50.1359 211.343 50.068 211.461 50.068ZM209.259 46.5161C208.826 46.5161 208.478 46.6519 208.215 46.9235C207.96 47.1951 207.808 47.5855 207.757 48.0947H210.634C210.617 47.577 210.49 47.1866 210.252 46.9235C210.014 46.6519 209.683 46.5161 209.259 46.5161Z" fill="#F4F3FF"/>
<path d="M218.587 53.8618C217.688 52.1389 217.238 50.3269 217.238 48.4257C217.238 46.5246 217.688 44.7125 218.587 42.9896C218.698 42.7944 218.846 42.6968 219.033 42.6968C219.135 42.6968 219.22 42.7308 219.287 42.7987C219.364 42.8666 219.402 42.9514 219.402 43.0533C219.402 43.1127 219.389 43.1763 219.364 43.2442C218.651 44.9247 218.294 46.6519 218.294 48.4257C218.294 50.1995 218.651 51.9267 219.364 53.6072C219.389 53.6836 219.402 53.7472 219.402 53.7981C219.402 53.9085 219.364 53.9933 219.287 54.0528C219.22 54.1207 219.135 54.1546 219.033 54.1546C218.846 54.1546 218.698 54.057 218.587 53.8618Z" fill="#F4F3FF"/>
<path d="M223.749 51.8758C222.722 51.8758 221.941 51.4854 221.407 50.7045C220.872 49.9237 220.605 48.7864 220.605 47.2927C220.605 45.7904 220.872 44.6489 221.407 43.8681C221.941 43.0872 222.722 42.6968 223.749 42.6968C224.776 42.6968 225.557 43.0872 226.092 43.8681C226.626 44.6404 226.894 45.7777 226.894 47.2799C226.894 48.7822 226.626 49.9237 226.092 50.7045C225.557 51.4854 224.776 51.8758 223.749 51.8758ZM223.749 50.9973C224.462 50.9973 224.988 50.696 225.328 50.0935C225.667 49.4909 225.837 48.553 225.837 47.2799C225.837 45.9984 225.667 45.0605 225.328 44.4664C224.997 43.8723 224.47 43.5752 223.749 43.5752C223.036 43.5752 222.51 43.8765 222.17 44.4791C221.831 45.0732 221.661 46.0068 221.661 47.2799C221.661 48.553 221.831 49.4909 222.17 50.0935C222.51 50.696 223.036 50.9973 223.749 50.9973Z" fill="#F4F3FF"/>
<path d="M229.027 46.8725C228.824 46.8725 228.654 46.8089 228.518 46.6816C228.382 46.5458 228.314 46.3718 228.314 46.1596C228.314 45.9474 228.382 45.7777 228.518 45.6504C228.654 45.5146 228.824 45.4467 229.027 45.4467C229.223 45.4467 229.384 45.5146 229.511 45.6504C229.647 45.7777 229.715 45.9474 229.715 46.1596C229.715 46.3718 229.647 46.5458 229.511 46.6816C229.384 46.8089 229.223 46.8725 229.027 46.8725ZM229.027 51.8376C228.824 51.8376 228.654 51.7739 228.518 51.6466C228.382 51.5108 228.314 51.3368 228.314 51.1247C228.314 50.9125 228.382 50.7385 228.518 50.6027C228.654 50.4669 228.824 50.399 229.027 50.399C229.223 50.399 229.384 50.4669 229.511 50.6027C229.647 50.7385 229.715 50.9125 229.715 51.1247C229.715 51.3368 229.647 51.5108 229.511 51.6466C229.384 51.7739 229.223 51.8376 229.027 51.8376Z" fill="#F4F3FF"/>
<path d="M236.94 50.8955C237.093 50.8955 237.211 50.9337 237.296 51.0101C237.381 51.0865 237.424 51.1926 237.424 51.3283C237.424 51.6254 237.262 51.7739 236.94 51.7739H231.949C231.805 51.7739 231.686 51.7315 231.593 51.6466C231.499 51.5533 231.453 51.4429 231.453 51.3156C231.453 51.1544 231.512 51.0143 231.631 50.8955L234.699 47.5218C235.124 47.0465 235.429 46.6222 235.616 46.2487C235.811 45.8668 235.909 45.4849 235.909 45.1029C235.909 44.6107 235.764 44.233 235.476 43.9699C235.196 43.7068 234.797 43.5752 234.279 43.5752C233.872 43.5752 233.481 43.6516 233.108 43.8044C232.734 43.9487 232.361 44.1736 231.988 44.4791C231.86 44.581 231.741 44.6319 231.631 44.6319C231.538 44.6319 231.457 44.5895 231.389 44.5046C231.321 44.4112 231.287 44.3009 231.287 44.1736C231.287 43.9954 231.355 43.8511 231.491 43.7407C231.839 43.4182 232.263 43.1636 232.764 42.9769C233.265 42.7902 233.778 42.6968 234.305 42.6968C235.111 42.6968 235.752 42.909 236.227 43.3334C236.711 43.7577 236.953 44.3306 236.953 45.052C236.953 45.5697 236.834 46.0663 236.596 46.5415C236.367 47.0168 235.985 47.5473 235.45 48.1329L232.904 50.8955H236.94Z" fill="#F4F3FF"/>
<path d="M244.51 42.7987C244.662 42.7987 244.777 42.8411 244.853 42.926C244.938 43.0024 244.981 43.1042 244.981 43.2315C244.981 43.3503 244.943 43.4819 244.866 43.6262L240.64 51.583C240.538 51.7697 240.389 51.863 240.194 51.863C240.058 51.863 239.935 51.8164 239.825 51.723C239.723 51.6296 239.672 51.5151 239.672 51.3793C239.672 51.2859 239.702 51.1926 239.761 51.0992L243.733 43.6771H239.341C239.188 43.6771 239.069 43.6389 238.985 43.5625C238.908 43.4861 238.87 43.38 238.87 43.2442C238.87 43.1 238.908 42.9896 238.985 42.9132C239.069 42.8369 239.188 42.7987 239.341 42.7987H244.51Z" fill="#F4F3FF"/>
<path d="M247.089 53.8618C246.979 54.057 246.826 54.1546 246.631 54.1546C246.529 54.1546 246.44 54.1207 246.363 54.0528C246.296 53.9933 246.262 53.9127 246.262 53.8109C246.262 53.7769 246.279 53.709 246.313 53.6072C247.017 51.9182 247.369 50.1911 247.369 48.4257C247.369 46.6604 247.017 44.9332 246.313 43.2442C246.279 43.1424 246.262 43.0745 246.262 43.0405C246.262 42.9387 246.296 42.8581 246.363 42.7987C246.44 42.7308 246.529 42.6968 246.631 42.6968C246.826 42.6968 246.979 42.7944 247.089 42.9896C247.98 44.721 248.426 46.5331 248.426 48.4257C248.426 50.3184 247.98 52.1304 247.089 53.8618Z" fill="#F4F3FF"/>
<path d="M28.4601 42.9414C28.1491 42.6291 27.7797 42.3815 27.3732 42.2125C26.9667 42.0435 26.531 41.9565 26.091 41.9565C25.6509 41.9565 25.2152 42.0435 24.8087 42.2125C24.4022 42.3815 24.0329 42.6291 23.7218 42.9414L23.0762 43.589L22.4306 42.9414C21.8023 42.311 20.9501 41.9569 20.0615 41.9569C19.1728 41.9569 18.3206 42.311 17.6923 42.9414C17.0639 43.5717 16.7109 44.4267 16.7109 45.3181C16.7109 46.2096 17.0639 47.0645 17.6923 47.6949L18.3379 48.3425L21.9492 51.9654C22.571 52.5893 23.5814 52.5893 24.2033 51.9654L27.8146 48.3425L28.4601 47.6949C28.7714 47.3828 29.0182 47.0123 29.1867 46.6045C29.3551 46.1967 29.4418 45.7596 29.4418 45.3181C29.4418 44.8767 29.3551 44.4396 29.1867 44.0318C29.0182 43.6239 28.7714 43.2534 28.4601 42.9414Z" fill="#FFA2CF"/>
<path d="M22 114.75C22 109.917 25.9174 106 30.7498 106H305.25C310.083 106 314 109.917 314 114.75V116H22V114.75Z" fill="#D4C3C1"/>
<path d="M18 110.75C18 105.917 21.9174 102 26.7498 102H301.25C306.083 102 310 105.917 310 110.75V117H18V110.75Z" fill="#FFF3F0"/>
<circle opacity="0.5" cx="159.534" cy="23.258" r="1.9892" fill="#5B51CB"/>
<circle opacity="0.5" cx="168.286" cy="23.258" r="1.9892" fill="#5B51CB"/>
<path opacity="0.5" d="M160.727 26.8386H167.092V26.8386C167.092 28.5964 165.667 30.0213 163.909 30.0213V30.0213C162.152 30.0213 160.727 28.5964 160.727 26.8386V26.8386Z" fill="#5B51CB"/>
<g opacity="0.5">
<path d="M115.477 93.8069C115.261 93.8069 115.087 93.7438 114.953 93.6176C114.827 93.4839 114.764 93.3057 114.764 93.0829V86.5663C114.764 86.3509 114.823 86.1838 114.942 86.065C115.068 85.9462 115.239 85.8868 115.454 85.8868H118.195C119.034 85.8868 119.687 86.0984 120.155 86.5217C120.623 86.9376 120.857 87.5243 120.857 88.2817C120.857 89.0392 120.623 89.6296 120.155 90.0529C119.687 90.4762 119.034 90.6879 118.195 90.6879H116.201V93.0829C116.201 93.3057 116.134 93.4839 116 93.6176C115.874 93.7438 115.699 93.8069 115.477 93.8069ZM118.016 89.5851C119.004 89.5851 119.498 89.1543 119.498 88.2929C119.498 87.4314 119.004 87.0007 118.016 87.0007H116.201V89.5851H118.016Z" fill="#F4F3FF"/>
<path d="M126.208 88.1815C126.423 88.1815 126.594 88.2409 126.72 88.3597C126.846 88.4785 126.91 88.6382 126.91 88.8387V93.1609C126.91 93.3539 126.843 93.5099 126.709 93.6287C126.583 93.7475 126.416 93.8069 126.208 93.8069C126.007 93.8069 125.848 93.7512 125.729 93.6399C125.61 93.5285 125.551 93.3762 125.551 93.1831V92.9046C125.38 93.2017 125.15 93.4319 124.86 93.5953C124.57 93.7513 124.244 93.8292 123.88 93.8292C122.543 93.8292 121.875 93.0792 121.875 91.579V88.8387C121.875 88.6382 121.938 88.4785 122.064 88.3597C122.19 88.2409 122.357 88.1815 122.565 88.1815C122.781 88.1815 122.951 88.2409 123.078 88.3597C123.204 88.4785 123.267 88.6382 123.267 88.8387V91.5902C123.267 91.9764 123.345 92.2623 123.501 92.4479C123.657 92.6336 123.902 92.7264 124.236 92.7264C124.622 92.7264 124.93 92.6002 125.161 92.3477C125.398 92.0877 125.517 91.7461 125.517 91.3228V88.8387C125.517 88.6382 125.58 88.4785 125.707 88.3597C125.833 88.2409 126 88.1815 126.208 88.1815Z" fill="#F4F3FF"/>
<path d="M129.049 93.8069C128.849 93.8069 128.682 93.7512 128.548 93.6399C128.422 93.521 128.359 93.3539 128.359 93.1386V86.4883C128.359 86.2729 128.422 86.1095 128.548 85.9981C128.682 85.8868 128.849 85.8311 129.049 85.8311C129.25 85.8311 129.417 85.8868 129.551 85.9981C129.684 86.1095 129.751 86.2729 129.751 86.4883V93.1386C129.751 93.3539 129.684 93.521 129.551 93.6399C129.417 93.7512 129.25 93.8069 129.049 93.8069Z" fill="#F4F3FF"/>
<path d="M131.878 93.8069C131.677 93.8069 131.51 93.7512 131.377 93.6399C131.25 93.521 131.187 93.3539 131.187 93.1386V86.4883C131.187 86.2729 131.25 86.1095 131.377 85.9981C131.51 85.8868 131.677 85.8311 131.878 85.8311C132.078 85.8311 132.245 85.8868 132.379 85.9981C132.513 86.1095 132.58 86.2729 132.58 86.4883V93.1386C132.58 93.3539 132.513 93.521 132.379 93.6399C132.245 93.7512 132.078 93.8069 131.878 93.8069Z" fill="#F4F3FF"/>
<path d="M141.34 88.1815C141.555 88.1815 141.726 88.2409 141.852 88.3597C141.978 88.4785 142.041 88.6382 142.041 88.8387V93.1609C142.041 93.3539 141.975 93.5099 141.841 93.6287C141.715 93.7475 141.548 93.8069 141.34 93.8069C141.139 93.8069 140.98 93.7512 140.861 93.6399C140.742 93.5285 140.682 93.3762 140.682 93.1831V92.9046C140.512 93.2017 140.281 93.4319 139.992 93.5953C139.702 93.7513 139.375 93.8292 139.012 93.8292C137.675 93.8292 137.006 93.0792 137.006 91.579V88.8387C137.006 88.6382 137.07 88.4785 137.196 88.3597C137.322 88.2409 137.489 88.1815 137.697 88.1815C137.912 88.1815 138.083 88.2409 138.209 88.3597C138.336 88.4785 138.399 88.6382 138.399 88.8387V91.5902C138.399 91.9764 138.477 92.2623 138.633 92.4479C138.789 92.6336 139.034 92.7264 139.368 92.7264C139.754 92.7264 140.062 92.6002 140.293 92.3477C140.53 92.0877 140.649 91.7461 140.649 91.3228V88.8387C140.649 88.6382 140.712 88.4785 140.838 88.3597C140.965 88.2409 141.132 88.1815 141.34 88.1815Z" fill="#F4F3FF"/>
<path d="M146.621 88.1592C147.089 88.1592 147.505 88.278 147.869 88.5157C148.24 88.7533 148.526 89.0912 148.726 89.5294C148.934 89.9601 149.038 90.4577 149.038 91.0221C149.038 91.5865 148.934 92.0803 148.726 92.5036C148.526 92.9269 148.244 93.2537 147.88 93.4839C147.516 93.7141 147.096 93.8292 146.621 93.8292C146.235 93.8292 145.889 93.7475 145.585 93.5842C145.28 93.4208 145.047 93.1943 144.883 92.9046V95.1771C144.883 95.3702 144.82 95.5224 144.694 95.6338C144.568 95.7452 144.4 95.8009 144.193 95.8009C143.985 95.8009 143.814 95.7415 143.68 95.6227C143.554 95.5039 143.491 95.3479 143.491 95.1548V88.8387C143.491 88.6382 143.55 88.4785 143.669 88.3597C143.795 88.2409 143.962 88.1815 144.17 88.1815C144.378 88.1815 144.545 88.2409 144.672 88.3597C144.798 88.4785 144.861 88.6382 144.861 88.8387V89.1172C145.024 88.8127 145.258 88.5788 145.563 88.4154C145.875 88.2446 146.227 88.1592 146.621 88.1592ZM146.253 92.7487C146.691 92.7487 147.033 92.6002 147.278 92.3031C147.523 91.9986 147.646 91.5716 147.646 91.0221C147.646 90.4577 147.523 90.0195 147.278 89.7076C147.033 89.3957 146.691 89.2397 146.253 89.2397C145.808 89.2397 145.462 89.392 145.217 89.6965C144.98 90.0009 144.861 90.4354 144.861 90.9998C144.861 91.5568 144.98 91.9875 145.217 92.292C145.462 92.5965 145.808 92.7487 146.253 92.7487Z" fill="#F4F3FF"/>
<path d="M156.035 92.771C156.406 92.7933 156.592 92.9603 156.592 93.2723C156.592 93.4505 156.517 93.5879 156.369 93.6844C156.228 93.7735 156.023 93.8107 155.756 93.7958L155.455 93.7735C154.208 93.6844 153.584 93.016 153.584 91.7684V89.34H153.027C152.826 89.34 152.67 89.2954 152.559 89.2063C152.455 89.1172 152.403 88.9873 152.403 88.8164C152.403 88.6456 152.455 88.5157 152.559 88.4266C152.67 88.3374 152.826 88.2929 153.027 88.2929H153.584V87.2681C153.584 87.0675 153.647 86.9079 153.773 86.7891C153.9 86.6702 154.07 86.6108 154.286 86.6108C154.494 86.6108 154.661 86.6702 154.787 86.7891C154.913 86.9079 154.976 87.0675 154.976 87.2681V88.2929H155.923C156.124 88.2929 156.276 88.3374 156.38 88.4266C156.491 88.5157 156.547 88.6456 156.547 88.8164C156.547 88.9873 156.491 89.1172 156.38 89.2063C156.276 89.2954 156.124 89.34 155.923 89.34H154.976V91.8687C154.976 92.4182 155.229 92.7116 155.734 92.7487L156.035 92.771Z" fill="#F4F3FF"/>
<path d="M159.801 93.8292C159.244 93.8292 158.754 93.7141 158.331 93.4839C157.915 93.2537 157.592 92.9232 157.362 92.4925C157.132 92.0618 157.016 91.5605 157.016 90.9887C157.016 90.4168 157.132 89.9193 157.362 89.496C157.592 89.0652 157.915 88.7348 158.331 88.5045C158.754 88.2743 159.244 88.1592 159.801 88.1592C160.358 88.1592 160.845 88.2743 161.261 88.5045C161.684 88.7348 162.007 89.0652 162.23 89.496C162.46 89.9193 162.575 90.4168 162.575 90.9887C162.575 91.5605 162.46 92.0618 162.23 92.4925C162.007 92.9232 161.684 93.2537 161.261 93.4839C160.845 93.7141 160.358 93.8292 159.801 93.8292ZM159.79 92.7487C160.243 92.7487 160.589 92.6002 160.826 92.3031C161.064 92.0061 161.183 91.5679 161.183 90.9887C161.183 90.4168 161.064 89.9824 160.826 89.6853C160.589 89.3808 160.247 89.2286 159.801 89.2286C159.356 89.2286 159.01 89.3808 158.765 89.6853C158.528 89.9824 158.409 90.4168 158.409 90.9887C158.409 91.5679 158.528 92.0061 158.765 92.3031C159.003 92.6002 159.345 92.7487 159.79 92.7487Z" fill="#F4F3FF"/>
<path d="M168.721 93.8292C167.911 93.8292 167.258 93.6696 166.76 93.3502C166.522 93.2091 166.404 93.0086 166.404 92.7487C166.404 92.6002 166.444 92.4813 166.526 92.3922C166.608 92.2957 166.708 92.2474 166.827 92.2474C166.953 92.2474 167.128 92.3068 167.35 92.4256C167.588 92.537 167.803 92.6224 167.996 92.6819C168.197 92.7413 168.449 92.771 168.754 92.771C169.066 92.771 169.307 92.719 169.478 92.615C169.656 92.5111 169.745 92.3662 169.745 92.1806C169.745 92.0543 169.708 91.9541 169.634 91.8798C169.567 91.8055 169.441 91.7387 169.255 91.6793C169.077 91.6125 168.802 91.5382 168.431 91.4565C167.77 91.3228 167.295 91.1335 167.005 90.8884C166.723 90.6433 166.582 90.3054 166.582 89.8747C166.582 89.5479 166.678 89.2546 166.871 88.9947C167.064 88.7273 167.328 88.5231 167.662 88.382C168.004 88.2335 168.39 88.1592 168.821 88.1592C169.133 88.1592 169.433 88.2001 169.723 88.2817C170.013 88.356 170.273 88.4674 170.503 88.6159C170.74 88.7645 170.859 88.9613 170.859 89.2063C170.859 89.3549 170.818 89.4811 170.737 89.5851C170.655 89.6816 170.555 89.7299 170.436 89.7299C170.354 89.7299 170.273 89.715 170.191 89.6853C170.117 89.6482 170.02 89.5962 169.901 89.5294C169.686 89.418 169.5 89.3363 169.344 89.2843C169.188 89.2249 168.995 89.1952 168.765 89.1952C168.49 89.1952 168.271 89.2509 168.108 89.3623C167.952 89.4737 167.874 89.6259 167.874 89.819C167.874 90.0047 167.956 90.1458 168.119 90.2423C168.282 90.3388 168.598 90.4354 169.066 90.5319C169.563 90.6359 169.953 90.7547 170.235 90.8884C170.518 91.0221 170.718 91.1892 170.837 91.3897C170.963 91.5902 171.026 91.8464 171.026 92.1583C171.026 92.6633 170.815 93.068 170.391 93.3725C169.976 93.677 169.419 93.8292 168.721 93.8292Z" fill="#F4F3FF"/>
<path d="M176.466 92.2474C176.593 92.2474 176.693 92.2957 176.767 92.3922C176.849 92.4888 176.89 92.6187 176.89 92.7821C176.89 93.0123 176.752 93.2054 176.478 93.3614C176.225 93.5025 175.939 93.6176 175.62 93.7067C175.3 93.7884 174.996 93.8292 174.706 93.8292C173.83 93.8292 173.136 93.5767 172.623 93.0717C172.111 92.5667 171.855 91.8761 171.855 90.9998C171.855 90.4428 171.966 89.949 172.189 89.5182C172.412 89.0875 172.724 88.7533 173.125 88.5157C173.533 88.278 173.993 88.1592 174.506 88.1592C174.996 88.1592 175.423 88.2669 175.787 88.4823C176.151 88.6976 176.433 89.0021 176.633 89.3957C176.834 89.7893 176.934 90.2534 176.934 90.7881C176.934 91.1075 176.793 91.2671 176.511 91.2671H173.225C173.269 91.7796 173.414 92.1583 173.659 92.4034C173.904 92.641 174.261 92.7598 174.729 92.7598C174.966 92.7598 175.174 92.7301 175.352 92.6707C175.538 92.6113 175.746 92.5296 175.976 92.4256C176.199 92.3068 176.362 92.2474 176.466 92.2474ZM174.539 89.1395C174.161 89.1395 173.856 89.2583 173.626 89.496C173.403 89.7336 173.269 90.0752 173.225 90.5208H175.742C175.727 90.0678 175.616 89.7262 175.408 89.496C175.2 89.2583 174.911 89.1395 174.539 89.1395Z" fill="#F4F3FF"/>
<path d="M182.384 92.2474C182.511 92.2474 182.611 92.2957 182.685 92.3922C182.767 92.4888 182.808 92.6187 182.808 92.7821C182.808 93.0123 182.67 93.2054 182.395 93.3614C182.143 93.5025 181.857 93.6176 181.538 93.7067C181.218 93.7884 180.914 93.8292 180.624 93.8292C179.748 93.8292 179.054 93.5767 178.541 93.0717C178.029 92.5667 177.773 91.8761 177.773 90.9998C177.773 90.4428 177.884 89.949 178.107 89.5182C178.329 89.0875 178.641 88.7533 179.042 88.5157C179.451 88.278 179.911 88.1592 180.424 88.1592C180.914 88.1592 181.341 88.2669 181.705 88.4823C182.069 88.6976 182.351 89.0021 182.551 89.3957C182.752 89.7893 182.852 90.2534 182.852 90.7881C182.852 91.1075 182.711 91.2671 182.429 91.2671H179.143C179.187 91.7796 179.332 92.1583 179.577 92.4034C179.822 92.641 180.179 92.7598 180.647 92.7598C180.884 92.7598 181.092 92.7301 181.27 92.6707C181.456 92.6113 181.664 92.5296 181.894 92.4256C182.117 92.3068 182.28 92.2474 182.384 92.2474ZM180.457 89.1395C180.078 89.1395 179.774 89.2583 179.544 89.496C179.321 89.7336 179.187 90.0752 179.143 90.5208H181.66C181.645 90.0678 181.534 89.7262 181.326 89.496C181.118 89.2583 180.828 89.1395 180.457 89.1395Z" fill="#F4F3FF"/>
<path d="M193.487 88.1592C194.082 88.1592 194.535 88.3374 194.846 88.6939C195.166 89.0429 195.325 89.6111 195.325 90.3983V93.1386C195.325 93.3539 195.259 93.521 195.125 93.6399C194.999 93.7512 194.832 93.8069 194.624 93.8069C194.423 93.8069 194.256 93.7512 194.122 93.6399C193.996 93.521 193.933 93.3539 193.933 93.1386V90.3983C193.933 89.9898 193.859 89.7002 193.71 89.5294C193.569 89.3511 193.35 89.262 193.053 89.262C192.689 89.262 192.399 89.3883 192.184 89.6408C191.969 89.8858 191.861 90.2237 191.861 90.6545V93.1386C191.861 93.3539 191.794 93.521 191.661 93.6399C191.534 93.7512 191.371 93.8069 191.17 93.8069C190.97 93.8069 190.803 93.7512 190.669 93.6399C190.535 93.521 190.469 93.3539 190.469 93.1386V90.3983C190.469 89.9898 190.394 89.7002 190.246 89.5294C190.105 89.3511 189.886 89.262 189.589 89.262C189.225 89.262 188.935 89.3883 188.72 89.6408C188.512 89.8858 188.408 90.2237 188.408 90.6545V93.1386C188.408 93.3539 188.341 93.521 188.207 93.6399C188.074 93.7512 187.907 93.8069 187.706 93.8069C187.505 93.8069 187.338 93.7512 187.205 93.6399C187.078 93.521 187.015 93.3539 187.015 93.1386V88.8276C187.015 88.6196 187.082 88.46 187.216 88.3486C187.35 88.2372 187.517 88.1815 187.717 88.1815C187.91 88.1815 188.066 88.2372 188.185 88.3486C188.311 88.4526 188.374 88.6048 188.374 88.8053V89.0727C188.545 88.7756 188.772 88.5491 189.054 88.3931C189.344 88.2372 189.674 88.1592 190.045 88.1592C190.862 88.1592 191.408 88.5008 191.683 89.184C191.846 88.8721 192.088 88.6234 192.407 88.4377C192.726 88.252 193.086 88.1592 193.487 88.1592Z" fill="#F4F3FF"/>
<path d="M199.225 93.8292C198.668 93.8292 198.178 93.7141 197.754 93.4839C197.338 93.2537 197.015 92.9232 196.785 92.4925C196.555 92.0618 196.44 91.5605 196.44 90.9887C196.44 90.4168 196.555 89.9193 196.785 89.496C197.015 89.0652 197.338 88.7348 197.754 88.5045C198.178 88.2743 198.668 88.1592 199.225 88.1592C199.782 88.1592 200.268 88.2743 200.684 88.5045C201.107 88.7348 201.43 89.0652 201.653 89.496C201.883 89.9193 201.999 90.4168 201.999 90.9887C201.999 91.5605 201.883 92.0618 201.653 92.4925C201.43 92.9232 201.107 93.2537 200.684 93.4839C200.268 93.7141 199.782 93.8292 199.225 93.8292ZM199.214 92.7487C199.667 92.7487 200.012 92.6002 200.25 92.3031C200.487 92.0061 200.606 91.5679 200.606 90.9887C200.606 90.4168 200.487 89.9824 200.25 89.6853C200.012 89.3808 199.67 89.2286 199.225 89.2286C198.779 89.2286 198.434 89.3808 198.189 89.6853C197.951 89.9824 197.832 90.4168 197.832 90.9887C197.832 91.5679 197.951 92.0061 198.189 92.3031C198.426 92.6002 198.768 92.7487 199.214 92.7487Z" fill="#F4F3FF"/>
<path d="M206.189 88.1815C206.382 88.1666 206.534 88.2075 206.646 88.304C206.757 88.4006 206.813 88.5454 206.813 88.7385C206.813 88.939 206.765 89.0875 206.668 89.184C206.572 89.2806 206.397 89.3437 206.145 89.3734L205.81 89.4068C205.372 89.4514 205.049 89.5999 204.841 89.8524C204.641 90.1049 204.541 90.4205 204.541 90.7993V93.1386C204.541 93.3539 204.474 93.521 204.34 93.6399C204.206 93.7512 204.039 93.8069 203.839 93.8069C203.638 93.8069 203.471 93.7512 203.337 93.6399C203.211 93.521 203.148 93.3539 203.148 93.1386V88.8276C203.148 88.6196 203.211 88.46 203.337 88.3486C203.471 88.2372 203.634 88.1815 203.828 88.1815C204.021 88.1815 204.177 88.2372 204.295 88.3486C204.414 88.4526 204.474 88.6048 204.474 88.8053V89.2509C204.615 88.9241 204.823 88.6716 205.097 88.4934C205.38 88.3152 205.692 88.2149 206.033 88.1926L206.189 88.1815Z" fill="#F4F3FF"/>
<path d="M211.615 92.2474C211.741 92.2474 211.841 92.2957 211.915 92.3922C211.997 92.4888 212.038 92.6187 212.038 92.7821C212.038 93.0123 211.901 93.2054 211.626 93.3614C211.373 93.5025 211.087 93.6176 210.768 93.7067C210.449 93.7884 210.144 93.8292 209.855 93.8292C208.978 93.8292 208.284 93.5767 207.771 93.0717C207.259 92.5667 207.003 91.8761 207.003 90.9998C207.003 90.4428 207.114 89.949 207.337 89.5182C207.56 89.0875 207.872 88.7533 208.273 88.5157C208.681 88.278 209.142 88.1592 209.654 88.1592C210.144 88.1592 210.571 88.2669 210.935 88.4823C211.299 88.6976 211.581 89.0021 211.782 89.3957C211.982 89.7893 212.082 90.2534 212.082 90.7881C212.082 91.1075 211.941 91.2671 211.659 91.2671H208.373C208.418 91.7796 208.562 92.1583 208.807 92.4034C209.053 92.641 209.409 92.7598 209.877 92.7598C210.114 92.7598 210.322 92.7301 210.501 92.6707C210.686 92.6113 210.894 92.5296 211.124 92.4256C211.347 92.3068 211.511 92.2474 211.615 92.2474ZM209.687 89.1395C209.309 89.1395 209.004 89.2583 208.774 89.496C208.551 89.7336 208.418 90.0752 208.373 90.5208H210.891C210.876 90.0678 210.764 89.7262 210.556 89.496C210.348 89.2583 210.059 89.1395 209.687 89.1395Z" fill="#F4F3FF"/>
</g>
</g>
<defs>
<filter id="filter0_d" x="-12.9678" y="-1.0803" width="353.373" height="86.4372" filterUnits="userSpaceOnUse" color-interpolation-filters="sRGB">
<feFlood flood-opacity="0" result="BackgroundImageFix"/>
<feColorMatrix in="SourceAlpha" type="matrix" values="0 0 0 0 0 0 0 0 0 0 0 0 0 0 0 0 0 0 127 0"/>
<feOffset dy="-5.40326"/>
<feGaussianBlur stdDeviation="6.48391"/>
<feColorMatrix type="matrix" values="0 0 0 0 0 0 0 0 0 0 0 0 0 0 0 0 0 0 0.25 0"/>
<feBlend mode="normal" in2="BackgroundImageFix" result="effect1_dropShadow"/>
<feBlend mode="normal" in="SourceGraphic" in2="effect1_dropShadow" result="shape"/>
</filter>
<linearGradient id="paint0_linear" x1="224" y1="163.993" x2="236.638" y2="96.7639" gradientUnits="userSpaceOnUse">
<stop offset="0.0001" stop-color="#3CBCF3"/>
<stop offset="1" stop-color="#AE64E8"/>
</linearGradient>
<linearGradient id="paint1_linear" x1="301.166" y1="45.9349" x2="301.166" y2="53.8917" gradientUnits="userSpaceOnUse">
<stop stop-color="white" stop-opacity="0"/>
<stop offset="1" stop-color="#FABDBD"/>
</linearGradient>
<linearGradient id="paint2_linear" x1="301.165" y1="44.3435" x2="301.165" y2="52.3003" gradientUnits="userSpaceOnUse">
<stop stop-color="#8B43E7"/>
<stop offset="1" stop-color="#4569C9"/>
</linearGradient>
<linearGradient id="paint3_linear" x1="284.457" y1="45.9349" x2="284.457" y2="53.8917" gradientUnits="userSpaceOnUse">
<stop stop-color="white" stop-opacity="0"/>
<stop offset="1" stop-color="#FABDBD"/>
</linearGradient>
<linearGradient id="paint4_linear" x1="284.456" y1="44.3435" x2="284.456" y2="52.3003" gradientUnits="userSpaceOnUse">
<stop stop-color="#8B43E7"/>
<stop offset="1" stop-color="#4569C9"/>
</linearGradient>
<clipPath id="clip0">
<rect width="327" height="116" fill="white"/>
</clipPath>
<clipPath id="clip1">
<rect width="13.5266" height="11.9352" fill="white" transform="translate(294.402 41.9565)"/>
</clipPath>
<clipPath id="clip2">
<rect width="13.5266" height="11.9352" fill="white" transform="translate(277.693 41.9565)"/>
</clipPath>
</defs>
</svg>
