<svg width="333" height="579" viewBox="0 0 333 579" fill="none" xmlns="http://www.w3.org/2000/svg">
<rect x="321" y="89" width="12" height="45" rx="3" fill="#3C436F"/>
<rect x="321" y="172" width="12" height="84" rx="3" fill="#34395F"/>
<path d="M3 30C3 13.4315 16.4315 0 33 0H300C316.569 0 330 13.4315 330 30V579H3V30Z" fill="#3E474D"/>
<path d="M3 30C3 13.4315 16.4315 0 33 0H300C316.569 0 330 13.4315 330 30V579H3V30Z" fill="url(#paint0_linear)"/>
<g filter="url(#filter0_d)">
<line x1="113" y1="19" x2="229" y2="19" stroke="black" stroke-width="6" stroke-linecap="round"/>
</g>
<circle cx="41.5" cy="19.5" r="6.5" fill="black"/>
<defs>
<filter id="filter0_d" x="110" y="16" width="122" height="8" filterUnits="userSpaceOnUse" color-interpolation-filters="sRGB">
<feFlood flood-opacity="0" result="BackgroundImageFix"/>
<feColorMatrix in="SourceAlpha" type="matrix" values="0 0 0 0 0 0 0 0 0 0 0 0 0 0 0 0 0 0 127 0"/>
<feOffset dy="2"/>
<feColorMatrix type="matrix" values="0 0 0 0 0.363368 0 0 0 0 0.412172 0 0 0 0 0.670833 0 0 0 1 0"/>
<feBlend mode="normal" in2="BackgroundImageFix" result="effect1_dropShadow"/>
<feBlend mode="normal" in="SourceGraphic" in2="effect1_dropShadow" result="shape"/>
</filter>
<linearGradient id="paint0_linear" x1="166.5" y1="0" x2="166.5" y2="579" gradientUnits="userSpaceOnUse">
<stop stop-color="#4A548A"/>
<stop offset="1" stop-color="#08030C"/>
</linearGradient>
</defs>
</svg>
