<svg width="27" height="45" viewBox="0 0 27 45" fill="none" xmlns="http://www.w3.org/2000/svg">
<path d="M22 0.867769L19.5207 3.34711C20.9421 4.95868 21.6529 6.84711 21.6529 9.0124C21.6529 11.4008 20.8058 13.4421 19.1116 15.1364C17.4174 16.8223 15.376 17.6653 12.9876 17.6653C10.8306 17.6653 8.94215 16.9628 7.32231 15.5579L4.86777 18L4 17.1322L6.46694 14.7025C5.04545 13.0661 4.33471 11.1694 4.33471 9.0124C4.33471 6.62397 5.17769 4.58678 6.86364 2.90083C8.55785 1.20661 10.5992 0.359504 12.9876 0.359504C15.1529 0.359504 17.0413 1.07025 18.6529 2.49174L21.1446 0L22 0.867769ZM17.7851 3.34711C16.4132 2.16529 14.814 1.57438 12.9876 1.57438C10.9463 1.57438 9.19421 2.30579 7.7314 3.76859C6.27686 5.22314 5.54959 6.97107 5.54959 9.0124C5.54959 10.8388 6.1405 12.438 7.32231 13.8099L17.7851 3.34711ZM20.4256 9.0124C20.4256 7.18595 19.8347 5.58678 18.6529 4.21488L8.19008 14.6777C9.56198 15.8595 11.1612 16.4504 12.9876 16.4504C15.0289 16.4504 16.7769 15.7231 18.2314 14.2686C19.6942 12.8058 20.4256 11.0537 20.4256 9.0124Z" fill="white"/>
<path d="M5.97691 40.6672C5.51859 41.64 4.77499 42.1264 3.74612 42.1264C2.9885 42.1264 2.37585 41.9159 1.90818 41.495C1.44986 41.0741 1.2207 40.4241 1.2207 39.5448V35.2797H2.32908V39.4607C2.32908 40.5924 2.85287 41.1583 3.90045 41.1583C4.50842 41.1583 4.99948 40.9245 5.37361 40.4568C5.7571 39.9891 5.9582 39.3905 5.97691 38.6609V35.2797H7.08528V42.0001H5.97691V40.6672Z" fill="white"/>
<path d="M10.9919 36.5845C11.4315 35.6117 12.1845 35.1254 13.2507 35.1254C14.0458 35.1254 14.6631 35.3873 15.1027 35.911C15.5517 36.4348 15.7762 37.1504 15.7762 38.0576V42.0001H14.6818V38.0576C14.6818 37.4123 14.5275 36.9259 14.2188 36.5985C13.9195 36.2711 13.4893 36.1075 12.9281 36.1075C12.3668 36.1075 11.9132 36.3366 11.5671 36.7949C11.2211 37.2533 11.0387 37.8893 11.02 38.703V42.0001H9.91158V35.2937H10.8656L10.9919 36.5845Z" fill="white"/>
<path d="M18.4494 35.2797H19.5578V42.0001H18.4494V35.2797ZM18.9966 33.7083C18.7721 33.7083 18.5944 33.6475 18.4635 33.5259C18.3419 33.395 18.2811 33.2266 18.2811 33.0208C18.2811 32.8057 18.3419 32.6374 18.4635 32.5158C18.5944 32.3848 18.7721 32.3193 18.9966 32.3193C19.2211 32.3193 19.3988 32.3848 19.5298 32.5158C19.6701 32.6374 19.7402 32.8057 19.7402 33.0208C19.7402 33.2266 19.6701 33.395 19.5298 33.5259C19.3988 33.6475 19.2211 33.7083 18.9966 33.7083Z" fill="white"/>
<path d="M26.0794 41.8037C25.275 42.1778 24.5408 42.2573 23.8767 42.0422C23.3997 41.8925 23.0629 41.5792 22.8665 41.1022C22.7636 40.8683 22.7122 40.5877 22.7122 40.2604V36.1355H21.6319V35.2937H22.7122V33.4277H23.8065V35.2937H25.911V36.1355H23.8065V40.2463C23.8065 40.9291 24.1245 41.2705 24.7606 41.2705C25.1067 41.2705 25.4948 41.1864 25.9251 41.018L26.0794 41.8037Z" fill="white"/>
</svg>
