<svg width="42" height="42" viewBox="0 0 42 42" fill="none" xmlns="http://www.w3.org/2000/svg">
<path fill-rule="evenodd" clip-rule="evenodd" d="M23.085 2.01765C21.922 0.892552 20.0762 0.892553 18.9132 2.01766L16.8616 4.00238C16.1965 4.64576 15.2718 4.94623 14.3556 4.81664L11.5292 4.41686C9.92698 4.19024 8.43375 5.27514 8.15417 6.86897L7.66098 9.68054C7.5011 10.592 6.92957 11.3786 6.11216 11.8123L3.5906 13.1502C2.16117 13.9086 1.59081 15.664 2.30145 17.1178L3.55506 19.6823C3.96143 20.5136 3.96143 21.4859 3.55505 22.3173L2.30145 24.8818C1.59081 26.3355 2.16117 28.0909 3.5906 28.8494L6.11216 30.1872C6.92957 30.6209 7.5011 31.4076 7.66098 32.319L8.15417 35.1306C8.43375 36.7244 9.92698 37.8093 11.5292 37.5827L14.3556 37.1829C15.2718 37.0533 16.1965 37.3538 16.8616 37.9972L18.9132 39.9819C20.0762 41.107 21.922 41.107 23.085 39.9819L25.1366 37.9972C25.8016 37.3538 26.7264 37.0533 27.6426 37.1829L30.469 37.5827C32.0712 37.8093 33.5644 36.7244 33.844 35.1306L34.3372 32.319C34.4971 31.4076 35.0686 30.6209 35.886 30.1872L38.4076 28.8494C39.837 28.0909 40.4074 26.3355 39.6967 24.8818L38.4431 22.3173C38.0367 21.4859 38.0367 20.5136 38.4431 19.6823L39.6967 17.1178C40.4074 15.664 39.837 13.9086 38.4076 13.1502L35.886 11.8123C35.0686 11.3786 34.4971 10.592 34.3372 9.68054L33.844 6.86897C33.5644 5.27514 32.0712 4.19024 30.469 4.41686L27.6426 4.81664C26.7264 4.94623 25.8016 4.64576 25.1366 4.00238L23.085 2.01765ZM32.9991 18.9998C32.9991 21.7612 30.7605 23.9998 27.9991 23.9998C25.2377 23.9998 22.9991 21.7612 22.9991 18.9998C22.9991 16.2383 25.2377 13.9998 27.9991 13.9998C30.7605 13.9998 32.9991 16.2383 32.9991 18.9998ZM29.9991 18.9998C29.9991 20.1043 29.1037 20.9998 27.9991 20.9998C26.8945 20.9998 25.9991 20.1043 25.9991 18.9998C25.9991 17.8952 26.8945 16.9998 27.9991 16.9998C29.1037 16.9998 29.9991 17.8952 29.9991 18.9998ZM14 24C16.7614 24 19 21.7614 19 19C19 16.2386 16.7614 14 14 14C11.2386 14 9 16.2386 9 19C9 21.7614 11.2386 24 14 24ZM14 21C15.1046 21 16 20.1046 16 19C16 17.8954 15.1046 17 14 17C12.8954 17 12 17.8954 12 19C12 20.1046 12.8954 21 14 21ZM15.1874 28.3232C14.7297 27.7549 15.1968 27 15.9265 27H26.0737C26.8034 27 27.2705 27.7549 26.8128 28.3232C25.5061 29.9456 23.3892 31 21.0001 31C18.611 31 16.4941 29.9456 15.1874 28.3232Z" fill="#123456"/>
</svg>
