<svg width="720" height="497" viewBox="0 0 720 497" fill="none" xmlns="http://www.w3.org/2000/svg">
<g clip-path="url(#clip0)">
<rect width="720" height="497" fill="#4F3472"/>
<rect width="720" height="497" fill="url(#paint0_linear)"/>
<path d="M679.592 -10.5203C609.053 90.3232 546.127 118.794 504.789 127.756" stroke="#A56A61" stroke-width="63.9703" stroke-linecap="round"/>
<path d="M679.592 -10.5203C609.053 90.3232 546.127 118.794 504.789 127.756" stroke="url(#paint1_linear)" stroke-width="63.9703" stroke-linecap="round"/>
<path d="M679.592 -10.5203C609.053 90.3232 546.127 118.794 504.789 127.756" stroke="url(#paint2_linear)" stroke-width="63.9703" stroke-linecap="round"/>
<path d="M508.605 135.847C501.874 137.836 494.797 134.032 492.744 127.32L489.32 116.127C487.253 109.37 491.055 102.217 497.812 100.15L519.986 93.367L533.388 128.524L508.605 135.847Z" fill="#EDC5C5"/>
<path d="M533.289 127.898C533.289 127.898 521.014 117.969 518.799 111.209C516.727 104.884 520.147 93.0299 520.147 93.0299L533.289 127.898Z" fill="#FFDDDD"/>
<path d="M561.202 115.824C560.244 111.009 557.695 99.7948 555.164 93.4535C552.633 87.1121 549.438 82.9013 548.157 81.5885" stroke="#985854" stroke-width="3.83822" stroke-linecap="round"/>
<ellipse cx="613.127" cy="49.5649" rx="24.9484" ry="19.1911" transform="rotate(-98.7636 613.127 49.5649)" fill="#A86C64"/>
<path d="M631.222 57.7801C630.264 52.9655 627.715 41.7509 625.184 35.4095C622.653 29.0682 619.458 24.8573 618.177 23.5445" stroke="#985854" stroke-width="3.83822" stroke-linecap="round"/>
<path d="M605.485 33.5925C606.911 37.8461 610.477 47.7279 613.333 53.2263C616.189 58.7247 619.251 62.2517 620.425 63.3279" stroke="#985854" stroke-width="3.83822" stroke-linecap="round"/>
</g>
<defs>
<linearGradient id="paint0_linear" x1="720" y1="89.0396" x2="14.0625" y2="89.0396" gradientUnits="userSpaceOnUse">
<stop stop-color="#4F3472"/>
<stop offset="0.47018" stop-color="#4F3472"/>
<stop offset="0.708738" stop-color="#713472"/>
<stop offset="1" stop-color="#4F3472"/>
</linearGradient>
<linearGradient id="paint1_linear" x1="477.807" y1="133.702" x2="654.055" y2="55.653" gradientUnits="userSpaceOnUse">
<stop stop-color="#B56363"/>
<stop offset="1" stop-color="#B77C75" stop-opacity="0"/>
</linearGradient>
<linearGradient id="paint2_linear" x1="463.999" y1="145" x2="504.999" y2="128" gradientUnits="userSpaceOnUse">
<stop stop-color="#67FFED" stop-opacity="0.58"/>
<stop offset="1" stop-color="#BE7A65" stop-opacity="0"/>
</linearGradient>
<clipPath id="clip0">
<rect width="720" height="497" fill="white"/>
</clipPath>
</defs>
</svg>
